%TF.GenerationSoftware,KiCad,Pcbnew,9.0.4*%
%TF.CreationDate,2025-11-06T00:07:10+01:00*%
%TF.ProjectId,BreadBoard,42726561-6442-46f6-9172-642e6b696361,rev?*%
%TF.SameCoordinates,Original*%
%TF.FileFunction,Soldermask,Bot*%
%TF.FilePolarity,Negative*%
%FSLAX46Y46*%
G04 Gerber Fmt 4.6, Leading zero omitted, Abs format (unit mm)*
G04 Created by KiCad (PCBNEW 9.0.4) date 2025-11-06 00:07:10*
%MOMM*%
%LPD*%
G01*
G04 APERTURE LIST*
G04 Aperture macros list*
%AMRoundRect*
0 Rectangle with rounded corners*
0 $1 Rounding radius*
0 $2 $3 $4 $5 $6 $7 $8 $9 X,Y pos of 4 corners*
0 Add a 4 corners polygon primitive as box body*
4,1,4,$2,$3,$4,$5,$6,$7,$8,$9,$2,$3,0*
0 Add four circle primitives for the rounded corners*
1,1,$1+$1,$2,$3*
1,1,$1+$1,$4,$5*
1,1,$1+$1,$6,$7*
1,1,$1+$1,$8,$9*
0 Add four rect primitives between the rounded corners*
20,1,$1+$1,$2,$3,$4,$5,0*
20,1,$1+$1,$4,$5,$6,$7,0*
20,1,$1+$1,$6,$7,$8,$9,0*
20,1,$1+$1,$8,$9,$2,$3,0*%
G04 Aperture macros list end*
%ADD10C,1.700000*%
%ADD11R,1.700000X1.700000*%
%ADD12C,1.600000*%
%ADD13C,1.400000*%
%ADD14O,3.200000X1.900000*%
%ADD15C,3.000000*%
%ADD16RoundRect,0.250000X-0.550000X0.550000X-0.550000X-0.550000X0.550000X-0.550000X0.550000X0.550000X0*%
%ADD17R,1.800000X1.800000*%
%ADD18C,1.800000*%
%ADD19RoundRect,0.250000X-1.000000X1.000000X-1.000000X-1.000000X1.000000X-1.000000X1.000000X1.000000X0*%
%ADD20C,2.500000*%
%ADD21RoundRect,0.250000X0.550000X0.550000X-0.550000X0.550000X-0.550000X-0.550000X0.550000X-0.550000X0*%
%ADD22RoundRect,0.250000X-0.350000X0.350000X-0.350000X-0.350000X0.350000X-0.350000X0.350000X0.350000X0*%
%ADD23C,1.200000*%
%ADD24RoundRect,0.250000X-0.650000X0.650000X-0.650000X-0.650000X0.650000X-0.650000X0.650000X0.650000X0*%
G04 APERTURE END LIST*
D10*
%TO.C,J4*%
X26500000Y-146040000D03*
X26500000Y-143500000D03*
X26500000Y-140960000D03*
D11*
X26500000Y-138420000D03*
%TD*%
%TO.C,J21*%
X90500000Y-74540000D03*
D10*
X90500000Y-72000000D03*
X90500000Y-69460000D03*
X90500000Y-66920000D03*
%TD*%
D12*
%TO.C,R8*%
X56420000Y-61500000D03*
X66580000Y-61500000D03*
%TD*%
D13*
%TO.C,SW3*%
X82500000Y-106000000D03*
X80000000Y-106000000D03*
X77500000Y-106000000D03*
X82500000Y-101000000D03*
X80000000Y-101000000D03*
X77500000Y-101000000D03*
%TD*%
D11*
%TO.C,J29*%
X48000000Y-72690000D03*
D10*
X45460000Y-72690000D03*
X42920000Y-72690000D03*
%TD*%
D13*
%TO.C,SW2*%
X82500000Y-82500000D03*
X80000000Y-82500000D03*
X77500000Y-82500000D03*
X82500000Y-77500000D03*
X80000000Y-77500000D03*
X77500000Y-77500000D03*
%TD*%
D11*
%TO.C,J10*%
X97750000Y-27000000D03*
D10*
X97750000Y-24460000D03*
X97750000Y-21920000D03*
%TD*%
D11*
%TO.C,J32*%
X46470100Y-48257500D03*
D10*
X43930100Y-48257500D03*
X41390100Y-48257500D03*
%TD*%
D14*
%TO.C,SW1*%
X84750000Y-55500000D03*
X72250000Y-55500000D03*
X84750000Y-50500000D03*
X72250000Y-50500000D03*
%TD*%
D15*
%TO.C,J5*%
X51300000Y-24000000D03*
X51300000Y-36300000D03*
X67500000Y-36300000D03*
X67500000Y-24000000D03*
%TD*%
D16*
%TO.C,C5*%
X41750000Y-122250000D03*
D12*
X41750000Y-124750000D03*
%TD*%
%TO.C,R7*%
X68500000Y-47420000D03*
X68500000Y-57580000D03*
%TD*%
D17*
%TO.C,D3*%
X49460000Y-45000000D03*
D18*
X52000000Y-45000000D03*
%TD*%
D11*
%TO.C,J23*%
X90500000Y-42580000D03*
D10*
X90500000Y-40040000D03*
X90500000Y-37500000D03*
%TD*%
D11*
%TO.C,J9*%
X27000000Y-26430000D03*
D10*
X27000000Y-28970000D03*
X27000000Y-31510000D03*
X27000000Y-34050000D03*
%TD*%
D12*
%TO.C,R2*%
X47000000Y-125920000D03*
X47000000Y-136080000D03*
%TD*%
D11*
%TO.C,J13*%
X53670000Y-125750000D03*
D10*
X56210000Y-125750000D03*
X58750000Y-125750000D03*
%TD*%
D11*
%TO.C,J22*%
X90475000Y-57525000D03*
D10*
X90475000Y-54985000D03*
X90475000Y-52445000D03*
%TD*%
D15*
%TO.C,J6*%
X31300000Y-24000000D03*
X31300000Y-36300000D03*
X47500000Y-36300000D03*
X47500000Y-24000000D03*
%TD*%
D11*
%TO.C,J15*%
X90500000Y-127120000D03*
D10*
X90500000Y-124580000D03*
X90500000Y-122040000D03*
X90500000Y-119500000D03*
%TD*%
D12*
%TO.C,C4*%
X63500000Y-95000000D03*
X58500000Y-95000000D03*
%TD*%
D11*
%TO.C,J25*%
X82540000Y-72690000D03*
D10*
X80000000Y-72690000D03*
X77460000Y-72690000D03*
%TD*%
%TO.C,J18*%
X29750000Y-46710000D03*
X29750000Y-49250000D03*
D11*
X29750000Y-51790000D03*
%TD*%
D15*
%TO.C,J7*%
X87800000Y-142450000D03*
X97800000Y-147450000D03*
X97800000Y-137450000D03*
X91800000Y-142450000D03*
%TD*%
D11*
%TO.C,J12*%
X29775000Y-85450000D03*
D10*
X29775000Y-87990000D03*
X29775000Y-90530000D03*
X29775000Y-93070000D03*
%TD*%
D12*
%TO.C,C8*%
X59472600Y-48500000D03*
X54472600Y-48500000D03*
%TD*%
D11*
%TO.C,J31*%
X48040000Y-95690000D03*
D10*
X45500000Y-95690000D03*
X42960000Y-95690000D03*
%TD*%
D19*
%TO.C,J14*%
X98000000Y-87000000D03*
D20*
X98000000Y-92000000D03*
X98000000Y-97000000D03*
X98000000Y-102000000D03*
X98000000Y-107000000D03*
X98000000Y-112000000D03*
X98000000Y-117000000D03*
X98000000Y-122000000D03*
X98000000Y-127000000D03*
X98000000Y-132000000D03*
%TD*%
D21*
%TO.C,C3*%
X62500000Y-90000000D03*
D12*
X60000000Y-90000000D03*
%TD*%
D11*
%TO.C,J16*%
X90500000Y-109040000D03*
D10*
X90500000Y-106500000D03*
X90500000Y-103960000D03*
%TD*%
D11*
%TO.C,J17*%
X90500000Y-94540000D03*
D10*
X90500000Y-92000000D03*
X90500000Y-89460000D03*
%TD*%
D17*
%TO.C,D1*%
X66000000Y-142000000D03*
D18*
X66000000Y-139460000D03*
%TD*%
D12*
%TO.C,R4*%
X52500000Y-118500000D03*
X42340000Y-118500000D03*
%TD*%
%TO.C,R3*%
X62472600Y-57580000D03*
X62472600Y-47420000D03*
%TD*%
%TO.C,C2*%
X63500000Y-106500000D03*
X58500000Y-106500000D03*
%TD*%
D11*
%TO.C,J30*%
X48040000Y-111190000D03*
D10*
X45500000Y-111190000D03*
X42960000Y-111190000D03*
%TD*%
D22*
%TO.C,C7*%
X72500000Y-62500000D03*
D23*
X72500000Y-64500000D03*
%TD*%
D11*
%TO.C,J24*%
X82525000Y-88215000D03*
D10*
X79985000Y-88215000D03*
X77445000Y-88215000D03*
%TD*%
D11*
%TO.C,J1*%
X29750000Y-73170000D03*
D10*
X29750000Y-75710000D03*
X29750000Y-78250000D03*
X29750000Y-80790000D03*
%TD*%
D11*
%TO.C,J26*%
X82500000Y-111190000D03*
D10*
X79960000Y-111190000D03*
X77420000Y-111190000D03*
%TD*%
D11*
%TO.C,J8*%
X48690000Y-147700000D03*
D10*
X46150000Y-147700000D03*
%TD*%
D12*
%TO.C,R5*%
X42420000Y-115250000D03*
X52580000Y-115250000D03*
%TD*%
D19*
%TO.C,J19*%
X98000000Y-35000000D03*
D20*
X98000000Y-40000000D03*
X98000000Y-45000000D03*
X98000000Y-50000000D03*
X98000000Y-55000000D03*
X98000000Y-60000000D03*
X98000000Y-65000000D03*
X98000000Y-70000000D03*
X98000000Y-75000000D03*
X98000000Y-80000000D03*
%TD*%
D11*
%TO.C,K1*%
X48680100Y-52477500D03*
D10*
X45680100Y-52477500D03*
X43280100Y-52477500D03*
X41080100Y-52477500D03*
X41080100Y-57557500D03*
X43280100Y-57557500D03*
X45680100Y-57557500D03*
X48680100Y-57557500D03*
%TD*%
D11*
%TO.C,J27*%
X82540000Y-95640000D03*
D10*
X80000000Y-95640000D03*
X77460000Y-95640000D03*
%TD*%
D11*
%TO.C,JP1*%
X63420000Y-117000000D03*
D10*
X65960000Y-117000000D03*
X68500000Y-117000000D03*
%TD*%
D11*
%TO.C,J28*%
X48040000Y-88190000D03*
D10*
X45500000Y-88190000D03*
X42960000Y-88190000D03*
%TD*%
D15*
%TO.C,J11*%
X71400000Y-24000000D03*
X71400000Y-36300000D03*
X87600000Y-36300000D03*
X87600000Y-24000000D03*
%TD*%
D11*
%TO.C,J2*%
X29750000Y-58710000D03*
D10*
X29750000Y-61250000D03*
%TD*%
D12*
%TO.C,R6*%
X65472600Y-57500000D03*
X65472600Y-47340000D03*
%TD*%
D13*
%TO.C,SW4*%
X48000000Y-83000000D03*
X45500000Y-83000000D03*
X43000000Y-83000000D03*
X48000000Y-78000000D03*
X45500000Y-78000000D03*
X43000000Y-78000000D03*
%TD*%
D12*
%TO.C,R1*%
X66000000Y-125840000D03*
X66000000Y-136000000D03*
%TD*%
D17*
%TO.C,D2*%
X47000000Y-139500000D03*
D18*
X47000000Y-142040000D03*
%TD*%
D11*
%TO.C,J3*%
X29775000Y-122000000D03*
D10*
X29775000Y-124540000D03*
%TD*%
D21*
%TO.C,C1*%
X63500000Y-111500000D03*
D12*
X61000000Y-111500000D03*
%TD*%
%TO.C,C6*%
X46000000Y-121500000D03*
X51000000Y-121500000D03*
%TD*%
D11*
%TO.C,J20*%
X29750000Y-113830000D03*
D10*
X29750000Y-111290000D03*
X29750000Y-108750000D03*
%TD*%
D13*
%TO.C,SW5*%
X48000000Y-106000000D03*
X45500000Y-106000000D03*
X43000000Y-106000000D03*
X48000000Y-101000000D03*
X45500000Y-101000000D03*
X43000000Y-101000000D03*
%TD*%
D24*
%TO.C,D4*%
X52430100Y-52500000D03*
D18*
X52430100Y-60120000D03*
%TD*%
D11*
%TO.C,J33*%
X46470100Y-62057500D03*
D10*
X43930100Y-62057500D03*
X41390100Y-62057500D03*
%TD*%
M02*
