%TF.GenerationSoftware,KiCad,Pcbnew,9.0.4*%
%TF.CreationDate,2025-11-06T00:07:10+01:00*%
%TF.ProjectId,BreadBoard,42726561-6442-46f6-9172-642e6b696361,rev?*%
%TF.SameCoordinates,Original*%
%TF.FileFunction,Legend,Top*%
%TF.FilePolarity,Positive*%
%FSLAX46Y46*%
G04 Gerber Fmt 4.6, Leading zero omitted, Abs format (unit mm)*
G04 Created by KiCad (PCBNEW 9.0.4) date 2025-11-06 00:07:10*
%MOMM*%
%LPD*%
G01*
G04 APERTURE LIST*
%ADD10C,0.100000*%
%ADD11C,1.000000*%
%ADD12C,0.150000*%
%ADD13C,0.750000*%
%ADD14C,0.200000*%
%ADD15C,0.300000*%
%ADD16C,0.120000*%
G04 APERTURE END LIST*
D10*
X67250000Y-120750000D02*
X68500000Y-120750000D01*
D11*
X92450000Y-122000000D02*
X95950000Y-122000000D01*
X92400000Y-37100000D02*
X96000000Y-35600000D01*
D10*
X40250000Y-64000000D02*
X44750000Y-64000000D01*
D11*
X92000000Y-127350000D02*
X96200000Y-131600000D01*
D10*
X44250000Y-66000000D02*
X43750000Y-65500000D01*
X62500000Y-135500000D02*
G75*
G02*
X50500000Y-135500000I-6000000J0D01*
G01*
X50500000Y-135500000D02*
G75*
G02*
X62500000Y-135500000I6000000J0D01*
G01*
X44750000Y-64000000D02*
X42500000Y-64000000D01*
D11*
X92400000Y-109650000D02*
X96200000Y-111600000D01*
X92300000Y-51950000D02*
X95900000Y-50450000D01*
X92380000Y-75200000D02*
X96180000Y-79450000D01*
X92400000Y-94850000D02*
X96200000Y-96800000D01*
X92500000Y-40000000D02*
X96000000Y-40000000D01*
D10*
X43750000Y-65500000D02*
X44250000Y-66000000D01*
X68500000Y-120750000D02*
X68000000Y-120250000D01*
D11*
X92350000Y-106700000D02*
X95850000Y-106700000D01*
D10*
X42500000Y-66000000D02*
X44250000Y-66000000D01*
D11*
X92400000Y-103850000D02*
X96000000Y-102350000D01*
X92400000Y-57650000D02*
X96200000Y-59600000D01*
X92300000Y-66950000D02*
X95900000Y-65450000D01*
D10*
X39000000Y-64000000D02*
X40250000Y-64000000D01*
D11*
X92300000Y-89100000D02*
X95900000Y-87600000D01*
X92500000Y-42650000D02*
X96300000Y-44600000D01*
X92450000Y-55000000D02*
X95950000Y-55000000D01*
X92350000Y-70000000D02*
X95850000Y-70000000D01*
D10*
X42500000Y-66000000D02*
X42500000Y-64000000D01*
X67250000Y-119000000D02*
X67250000Y-120750000D01*
D11*
X92400000Y-124750000D02*
X96200000Y-126700000D01*
D10*
X81500000Y-135500000D02*
G75*
G02*
X69500000Y-135500000I-6000000J0D01*
G01*
X69500000Y-135500000D02*
G75*
G02*
X81500000Y-135500000I6000000J0D01*
G01*
X40000000Y-50500000D02*
X45000000Y-50500000D01*
D11*
X92350000Y-92200000D02*
X95850000Y-92200000D01*
D10*
X40000000Y-50500000D02*
X39000000Y-50500000D01*
D11*
X92400000Y-72750000D02*
X96200000Y-74700000D01*
X92300000Y-119050000D02*
X95900000Y-117550000D01*
D10*
X44250000Y-66000000D02*
X43750000Y-66500000D01*
X68500000Y-120750000D02*
X68000000Y-121250000D01*
X65000000Y-119000000D02*
X69500000Y-119000000D01*
D12*
X31605826Y-48058628D02*
X31605826Y-46558628D01*
X32320112Y-48058628D02*
X32320112Y-46558628D01*
X32320112Y-46558628D02*
X33177255Y-48058628D01*
X33177255Y-48058628D02*
X33177255Y-46558628D01*
X31641541Y-121858628D02*
X32498684Y-121858628D01*
X32070112Y-123358628D02*
X32070112Y-121858628D01*
X33784398Y-123358628D02*
X32927255Y-123358628D01*
X33355826Y-123358628D02*
X33355826Y-121858628D01*
X33355826Y-121858628D02*
X33212969Y-122072914D01*
X33212969Y-122072914D02*
X33070112Y-122215771D01*
X33070112Y-122215771D02*
X32927255Y-122287200D01*
D13*
X35029135Y-142343857D02*
X36029135Y-145343857D01*
X36029135Y-145343857D02*
X37029135Y-142343857D01*
X38029135Y-144201000D02*
X40314850Y-144201000D01*
X73029135Y-142343857D02*
X74029135Y-145343857D01*
X74029135Y-145343857D02*
X75029135Y-142343857D01*
X76029135Y-144201000D02*
X78314850Y-144201000D01*
X77171992Y-145343857D02*
X77171992Y-143058142D01*
D12*
X91884398Y-27380057D02*
X92598684Y-27380057D01*
X91741541Y-27808628D02*
X92241541Y-26308628D01*
X92241541Y-26308628D02*
X92741541Y-27808628D01*
X93241540Y-26308628D02*
X93241540Y-27522914D01*
X93241540Y-27522914D02*
X93312969Y-27665771D01*
X93312969Y-27665771D02*
X93384398Y-27737200D01*
X93384398Y-27737200D02*
X93527255Y-27808628D01*
X93527255Y-27808628D02*
X93812969Y-27808628D01*
X93812969Y-27808628D02*
X93955826Y-27737200D01*
X93955826Y-27737200D02*
X94027255Y-27665771D01*
X94027255Y-27665771D02*
X94098683Y-27522914D01*
X94098683Y-27522914D02*
X94098683Y-26308628D01*
X94670112Y-26308628D02*
X95670112Y-27808628D01*
X95670112Y-26308628D02*
X94670112Y-27808628D01*
X31891541Y-48828628D02*
X32177255Y-48828628D01*
X32177255Y-48828628D02*
X32320112Y-48900057D01*
X32320112Y-48900057D02*
X32462969Y-49042914D01*
X32462969Y-49042914D02*
X32534398Y-49328628D01*
X32534398Y-49328628D02*
X32534398Y-49828628D01*
X32534398Y-49828628D02*
X32462969Y-50114342D01*
X32462969Y-50114342D02*
X32320112Y-50257200D01*
X32320112Y-50257200D02*
X32177255Y-50328628D01*
X32177255Y-50328628D02*
X31891541Y-50328628D01*
X31891541Y-50328628D02*
X31748684Y-50257200D01*
X31748684Y-50257200D02*
X31605826Y-50114342D01*
X31605826Y-50114342D02*
X31534398Y-49828628D01*
X31534398Y-49828628D02*
X31534398Y-49328628D01*
X31534398Y-49328628D02*
X31605826Y-49042914D01*
X31605826Y-49042914D02*
X31748684Y-48900057D01*
X31748684Y-48900057D02*
X31891541Y-48828628D01*
X33177255Y-48828628D02*
X33177255Y-50042914D01*
X33177255Y-50042914D02*
X33248684Y-50185771D01*
X33248684Y-50185771D02*
X33320113Y-50257200D01*
X33320113Y-50257200D02*
X33462970Y-50328628D01*
X33462970Y-50328628D02*
X33748684Y-50328628D01*
X33748684Y-50328628D02*
X33891541Y-50257200D01*
X33891541Y-50257200D02*
X33962970Y-50185771D01*
X33962970Y-50185771D02*
X34034398Y-50042914D01*
X34034398Y-50042914D02*
X34034398Y-48828628D01*
X34534399Y-48828628D02*
X35391542Y-48828628D01*
X34962970Y-50328628D02*
X34962970Y-48828628D01*
D13*
X54279135Y-141986714D02*
X53993421Y-141843857D01*
X53993421Y-141843857D02*
X53564849Y-141843857D01*
X53564849Y-141843857D02*
X53136278Y-141986714D01*
X53136278Y-141986714D02*
X52850563Y-142272428D01*
X52850563Y-142272428D02*
X52707706Y-142558142D01*
X52707706Y-142558142D02*
X52564849Y-143129571D01*
X52564849Y-143129571D02*
X52564849Y-143558142D01*
X52564849Y-143558142D02*
X52707706Y-144129571D01*
X52707706Y-144129571D02*
X52850563Y-144415285D01*
X52850563Y-144415285D02*
X53136278Y-144701000D01*
X53136278Y-144701000D02*
X53564849Y-144843857D01*
X53564849Y-144843857D02*
X53850563Y-144843857D01*
X53850563Y-144843857D02*
X54279135Y-144701000D01*
X54279135Y-144701000D02*
X54421992Y-144558142D01*
X54421992Y-144558142D02*
X54421992Y-143558142D01*
X54421992Y-143558142D02*
X53850563Y-143558142D01*
X55707706Y-144843857D02*
X55707706Y-141843857D01*
X55707706Y-141843857D02*
X57421992Y-144843857D01*
X57421992Y-144843857D02*
X57421992Y-141843857D01*
X58850563Y-144843857D02*
X58850563Y-141843857D01*
X58850563Y-141843857D02*
X59564849Y-141843857D01*
X59564849Y-141843857D02*
X59993420Y-141986714D01*
X59993420Y-141986714D02*
X60279135Y-142272428D01*
X60279135Y-142272428D02*
X60421992Y-142558142D01*
X60421992Y-142558142D02*
X60564849Y-143129571D01*
X60564849Y-143129571D02*
X60564849Y-143558142D01*
X60564849Y-143558142D02*
X60421992Y-144129571D01*
X60421992Y-144129571D02*
X60279135Y-144415285D01*
X60279135Y-144415285D02*
X59993420Y-144701000D01*
X59993420Y-144701000D02*
X59564849Y-144843857D01*
X59564849Y-144843857D02*
X58850563Y-144843857D01*
D12*
X89685826Y-50458628D02*
X89685826Y-48958628D01*
X89685826Y-48958628D02*
X90257255Y-48958628D01*
X90257255Y-48958628D02*
X90400112Y-49030057D01*
X90400112Y-49030057D02*
X90471541Y-49101485D01*
X90471541Y-49101485D02*
X90542969Y-49244342D01*
X90542969Y-49244342D02*
X90542969Y-49458628D01*
X90542969Y-49458628D02*
X90471541Y-49601485D01*
X90471541Y-49601485D02*
X90400112Y-49672914D01*
X90400112Y-49672914D02*
X90257255Y-49744342D01*
X90257255Y-49744342D02*
X89685826Y-49744342D01*
X91471541Y-48958628D02*
X91757255Y-48958628D01*
X91757255Y-48958628D02*
X91900112Y-49030057D01*
X91900112Y-49030057D02*
X92042969Y-49172914D01*
X92042969Y-49172914D02*
X92114398Y-49458628D01*
X92114398Y-49458628D02*
X92114398Y-49958628D01*
X92114398Y-49958628D02*
X92042969Y-50244342D01*
X92042969Y-50244342D02*
X91900112Y-50387200D01*
X91900112Y-50387200D02*
X91757255Y-50458628D01*
X91757255Y-50458628D02*
X91471541Y-50458628D01*
X91471541Y-50458628D02*
X91328684Y-50387200D01*
X91328684Y-50387200D02*
X91185826Y-50244342D01*
X91185826Y-50244342D02*
X91114398Y-49958628D01*
X91114398Y-49958628D02*
X91114398Y-49458628D01*
X91114398Y-49458628D02*
X91185826Y-49172914D01*
X91185826Y-49172914D02*
X91328684Y-49030057D01*
X91328684Y-49030057D02*
X91471541Y-48958628D01*
X92542970Y-48958628D02*
X93400113Y-48958628D01*
X92971541Y-50458628D02*
X92971541Y-48958628D01*
D14*
X28474435Y-140246028D02*
X28974435Y-141746028D01*
X28974435Y-141746028D02*
X29474435Y-140246028D01*
X29974434Y-141174600D02*
X31117292Y-141174600D01*
D12*
X31534398Y-52630057D02*
X32248684Y-52630057D01*
X31391541Y-53058628D02*
X31891541Y-51558628D01*
X31891541Y-51558628D02*
X32391541Y-53058628D01*
X32891540Y-51558628D02*
X32891540Y-52772914D01*
X32891540Y-52772914D02*
X32962969Y-52915771D01*
X32962969Y-52915771D02*
X33034398Y-52987200D01*
X33034398Y-52987200D02*
X33177255Y-53058628D01*
X33177255Y-53058628D02*
X33462969Y-53058628D01*
X33462969Y-53058628D02*
X33605826Y-52987200D01*
X33605826Y-52987200D02*
X33677255Y-52915771D01*
X33677255Y-52915771D02*
X33748683Y-52772914D01*
X33748683Y-52772914D02*
X33748683Y-51558628D01*
X34320112Y-51558628D02*
X35320112Y-53058628D01*
X35320112Y-51558628D02*
X34320112Y-53058628D01*
D14*
X31474435Y-73056028D02*
X31974435Y-74556028D01*
X31974435Y-74556028D02*
X32474435Y-73056028D01*
X32974434Y-74556028D02*
X32974434Y-73556028D01*
X32974434Y-73841742D02*
X33045863Y-73698885D01*
X33045863Y-73698885D02*
X33117292Y-73627457D01*
X33117292Y-73627457D02*
X33260149Y-73556028D01*
X33260149Y-73556028D02*
X33403006Y-73556028D01*
X34474434Y-74484600D02*
X34331577Y-74556028D01*
X34331577Y-74556028D02*
X34045863Y-74556028D01*
X34045863Y-74556028D02*
X33903005Y-74484600D01*
X33903005Y-74484600D02*
X33831577Y-74341742D01*
X33831577Y-74341742D02*
X33831577Y-73770314D01*
X33831577Y-73770314D02*
X33903005Y-73627457D01*
X33903005Y-73627457D02*
X34045863Y-73556028D01*
X34045863Y-73556028D02*
X34331577Y-73556028D01*
X34331577Y-73556028D02*
X34474434Y-73627457D01*
X34474434Y-73627457D02*
X34545863Y-73770314D01*
X34545863Y-73770314D02*
X34545863Y-73913171D01*
X34545863Y-73913171D02*
X33831577Y-74056028D01*
X34974434Y-73556028D02*
X35545862Y-73556028D01*
X35188719Y-74556028D02*
X35188719Y-73270314D01*
X35188719Y-73270314D02*
X35260148Y-73127457D01*
X35260148Y-73127457D02*
X35403005Y-73056028D01*
X35403005Y-73056028D02*
X35545862Y-73056028D01*
X28774435Y-28306028D02*
X29274435Y-29806028D01*
X29274435Y-29806028D02*
X29774435Y-28306028D01*
X30274434Y-29234600D02*
X31417292Y-29234600D01*
D12*
X50941541Y-146958628D02*
X51798684Y-146958628D01*
X51370112Y-148458628D02*
X51370112Y-146958628D01*
X53084398Y-148458628D02*
X52227255Y-148458628D01*
X52655826Y-148458628D02*
X52655826Y-146958628D01*
X52655826Y-146958628D02*
X52512969Y-147172914D01*
X52512969Y-147172914D02*
X52370112Y-147315771D01*
X52370112Y-147315771D02*
X52227255Y-147387200D01*
X32041541Y-113658628D02*
X32327255Y-113658628D01*
X32327255Y-113658628D02*
X32470112Y-113730057D01*
X32470112Y-113730057D02*
X32612969Y-113872914D01*
X32612969Y-113872914D02*
X32684398Y-114158628D01*
X32684398Y-114158628D02*
X32684398Y-114658628D01*
X32684398Y-114658628D02*
X32612969Y-114944342D01*
X32612969Y-114944342D02*
X32470112Y-115087200D01*
X32470112Y-115087200D02*
X32327255Y-115158628D01*
X32327255Y-115158628D02*
X32041541Y-115158628D01*
X32041541Y-115158628D02*
X31898684Y-115087200D01*
X31898684Y-115087200D02*
X31755826Y-114944342D01*
X31755826Y-114944342D02*
X31684398Y-114658628D01*
X31684398Y-114658628D02*
X31684398Y-114158628D01*
X31684398Y-114158628D02*
X31755826Y-113872914D01*
X31755826Y-113872914D02*
X31898684Y-113730057D01*
X31898684Y-113730057D02*
X32041541Y-113658628D01*
X33327255Y-113658628D02*
X33327255Y-114872914D01*
X33327255Y-114872914D02*
X33398684Y-115015771D01*
X33398684Y-115015771D02*
X33470113Y-115087200D01*
X33470113Y-115087200D02*
X33612970Y-115158628D01*
X33612970Y-115158628D02*
X33898684Y-115158628D01*
X33898684Y-115158628D02*
X34041541Y-115087200D01*
X34041541Y-115087200D02*
X34112970Y-115015771D01*
X34112970Y-115015771D02*
X34184398Y-114872914D01*
X34184398Y-114872914D02*
X34184398Y-113658628D01*
X34684399Y-113658628D02*
X35541542Y-113658628D01*
X35112970Y-115158628D02*
X35112970Y-113658628D01*
D15*
X55483082Y-44872257D02*
X56197368Y-44872257D01*
X55340225Y-45300828D02*
X55840225Y-43800828D01*
X55840225Y-43800828D02*
X56340225Y-45300828D01*
X57483082Y-44300828D02*
X57483082Y-45300828D01*
X56840224Y-44300828D02*
X56840224Y-45086542D01*
X56840224Y-45086542D02*
X56911653Y-45229400D01*
X56911653Y-45229400D02*
X57054510Y-45300828D01*
X57054510Y-45300828D02*
X57268796Y-45300828D01*
X57268796Y-45300828D02*
X57411653Y-45229400D01*
X57411653Y-45229400D02*
X57483082Y-45157971D01*
X58840225Y-45300828D02*
X58840225Y-43800828D01*
X58840225Y-45229400D02*
X58697367Y-45300828D01*
X58697367Y-45300828D02*
X58411653Y-45300828D01*
X58411653Y-45300828D02*
X58268796Y-45229400D01*
X58268796Y-45229400D02*
X58197367Y-45157971D01*
X58197367Y-45157971D02*
X58125939Y-45015114D01*
X58125939Y-45015114D02*
X58125939Y-44586542D01*
X58125939Y-44586542D02*
X58197367Y-44443685D01*
X58197367Y-44443685D02*
X58268796Y-44372257D01*
X58268796Y-44372257D02*
X58411653Y-44300828D01*
X58411653Y-44300828D02*
X58697367Y-44300828D01*
X58697367Y-44300828D02*
X58840225Y-44372257D01*
X59554510Y-45300828D02*
X59554510Y-44300828D01*
X59554510Y-43800828D02*
X59483082Y-43872257D01*
X59483082Y-43872257D02*
X59554510Y-43943685D01*
X59554510Y-43943685D02*
X59625939Y-43872257D01*
X59625939Y-43872257D02*
X59554510Y-43800828D01*
X59554510Y-43800828D02*
X59554510Y-43943685D01*
X60483082Y-45300828D02*
X60340225Y-45229400D01*
X60340225Y-45229400D02*
X60268796Y-45157971D01*
X60268796Y-45157971D02*
X60197368Y-45015114D01*
X60197368Y-45015114D02*
X60197368Y-44586542D01*
X60197368Y-44586542D02*
X60268796Y-44443685D01*
X60268796Y-44443685D02*
X60340225Y-44372257D01*
X60340225Y-44372257D02*
X60483082Y-44300828D01*
X60483082Y-44300828D02*
X60697368Y-44300828D01*
X60697368Y-44300828D02*
X60840225Y-44372257D01*
X60840225Y-44372257D02*
X60911654Y-44443685D01*
X60911654Y-44443685D02*
X60983082Y-44586542D01*
X60983082Y-44586542D02*
X60983082Y-45015114D01*
X60983082Y-45015114D02*
X60911654Y-45157971D01*
X60911654Y-45157971D02*
X60840225Y-45229400D01*
X60840225Y-45229400D02*
X60697368Y-45300828D01*
X60697368Y-45300828D02*
X60483082Y-45300828D01*
X62768796Y-45300828D02*
X62768796Y-43800828D01*
X63483082Y-44300828D02*
X63483082Y-45300828D01*
X63483082Y-44443685D02*
X63554511Y-44372257D01*
X63554511Y-44372257D02*
X63697368Y-44300828D01*
X63697368Y-44300828D02*
X63911654Y-44300828D01*
X63911654Y-44300828D02*
X64054511Y-44372257D01*
X64054511Y-44372257D02*
X64125940Y-44515114D01*
X64125940Y-44515114D02*
X64125940Y-45300828D01*
D14*
X28374435Y-145446028D02*
X28874435Y-146946028D01*
X28874435Y-146946028D02*
X29374435Y-145446028D01*
X29874434Y-146374600D02*
X31017292Y-146374600D01*
X30445863Y-146946028D02*
X30445863Y-145803171D01*
D12*
X93955826Y-25308628D02*
X93955826Y-23808628D01*
X94670112Y-25308628D02*
X94670112Y-23808628D01*
X94670112Y-23808628D02*
X95527255Y-25308628D01*
X95527255Y-25308628D02*
X95527255Y-23808628D01*
D15*
X34483082Y-44872257D02*
X35197368Y-44872257D01*
X34340225Y-45300828D02*
X34840225Y-43800828D01*
X34840225Y-43800828D02*
X35340225Y-45300828D01*
X36483082Y-44300828D02*
X36483082Y-45300828D01*
X35840224Y-44300828D02*
X35840224Y-45086542D01*
X35840224Y-45086542D02*
X35911653Y-45229400D01*
X35911653Y-45229400D02*
X36054510Y-45300828D01*
X36054510Y-45300828D02*
X36268796Y-45300828D01*
X36268796Y-45300828D02*
X36411653Y-45229400D01*
X36411653Y-45229400D02*
X36483082Y-45157971D01*
X37840225Y-45300828D02*
X37840225Y-43800828D01*
X37840225Y-45229400D02*
X37697367Y-45300828D01*
X37697367Y-45300828D02*
X37411653Y-45300828D01*
X37411653Y-45300828D02*
X37268796Y-45229400D01*
X37268796Y-45229400D02*
X37197367Y-45157971D01*
X37197367Y-45157971D02*
X37125939Y-45015114D01*
X37125939Y-45015114D02*
X37125939Y-44586542D01*
X37125939Y-44586542D02*
X37197367Y-44443685D01*
X37197367Y-44443685D02*
X37268796Y-44372257D01*
X37268796Y-44372257D02*
X37411653Y-44300828D01*
X37411653Y-44300828D02*
X37697367Y-44300828D01*
X37697367Y-44300828D02*
X37840225Y-44372257D01*
X38554510Y-45300828D02*
X38554510Y-44300828D01*
X38554510Y-43800828D02*
X38483082Y-43872257D01*
X38483082Y-43872257D02*
X38554510Y-43943685D01*
X38554510Y-43943685D02*
X38625939Y-43872257D01*
X38625939Y-43872257D02*
X38554510Y-43800828D01*
X38554510Y-43800828D02*
X38554510Y-43943685D01*
X39483082Y-45300828D02*
X39340225Y-45229400D01*
X39340225Y-45229400D02*
X39268796Y-45157971D01*
X39268796Y-45157971D02*
X39197368Y-45015114D01*
X39197368Y-45015114D02*
X39197368Y-44586542D01*
X39197368Y-44586542D02*
X39268796Y-44443685D01*
X39268796Y-44443685D02*
X39340225Y-44372257D01*
X39340225Y-44372257D02*
X39483082Y-44300828D01*
X39483082Y-44300828D02*
X39697368Y-44300828D01*
X39697368Y-44300828D02*
X39840225Y-44372257D01*
X39840225Y-44372257D02*
X39911654Y-44443685D01*
X39911654Y-44443685D02*
X39983082Y-44586542D01*
X39983082Y-44586542D02*
X39983082Y-45015114D01*
X39983082Y-45015114D02*
X39911654Y-45157971D01*
X39911654Y-45157971D02*
X39840225Y-45229400D01*
X39840225Y-45229400D02*
X39697368Y-45300828D01*
X39697368Y-45300828D02*
X39483082Y-45300828D01*
X42054511Y-43800828D02*
X42340225Y-43800828D01*
X42340225Y-43800828D02*
X42483082Y-43872257D01*
X42483082Y-43872257D02*
X42625939Y-44015114D01*
X42625939Y-44015114D02*
X42697368Y-44300828D01*
X42697368Y-44300828D02*
X42697368Y-44800828D01*
X42697368Y-44800828D02*
X42625939Y-45086542D01*
X42625939Y-45086542D02*
X42483082Y-45229400D01*
X42483082Y-45229400D02*
X42340225Y-45300828D01*
X42340225Y-45300828D02*
X42054511Y-45300828D01*
X42054511Y-45300828D02*
X41911654Y-45229400D01*
X41911654Y-45229400D02*
X41768796Y-45086542D01*
X41768796Y-45086542D02*
X41697368Y-44800828D01*
X41697368Y-44800828D02*
X41697368Y-44300828D01*
X41697368Y-44300828D02*
X41768796Y-44015114D01*
X41768796Y-44015114D02*
X41911654Y-43872257D01*
X41911654Y-43872257D02*
X42054511Y-43800828D01*
X43983083Y-44300828D02*
X43983083Y-45300828D01*
X43340225Y-44300828D02*
X43340225Y-45086542D01*
X43340225Y-45086542D02*
X43411654Y-45229400D01*
X43411654Y-45229400D02*
X43554511Y-45300828D01*
X43554511Y-45300828D02*
X43768797Y-45300828D01*
X43768797Y-45300828D02*
X43911654Y-45229400D01*
X43911654Y-45229400D02*
X43983083Y-45157971D01*
X44483083Y-44300828D02*
X45054511Y-44300828D01*
X44697368Y-43800828D02*
X44697368Y-45086542D01*
X44697368Y-45086542D02*
X44768797Y-45229400D01*
X44768797Y-45229400D02*
X44911654Y-45300828D01*
X44911654Y-45300828D02*
X45054511Y-45300828D01*
D12*
X41891541Y-147008628D02*
X42748684Y-147008628D01*
X42320112Y-148508628D02*
X42320112Y-147008628D01*
X43177255Y-147151485D02*
X43248683Y-147080057D01*
X43248683Y-147080057D02*
X43391541Y-147008628D01*
X43391541Y-147008628D02*
X43748683Y-147008628D01*
X43748683Y-147008628D02*
X43891541Y-147080057D01*
X43891541Y-147080057D02*
X43962969Y-147151485D01*
X43962969Y-147151485D02*
X44034398Y-147294342D01*
X44034398Y-147294342D02*
X44034398Y-147437200D01*
X44034398Y-147437200D02*
X43962969Y-147651485D01*
X43962969Y-147651485D02*
X43105826Y-148508628D01*
X43105826Y-148508628D02*
X44034398Y-148508628D01*
X92241541Y-21308628D02*
X92527255Y-21308628D01*
X92527255Y-21308628D02*
X92670112Y-21380057D01*
X92670112Y-21380057D02*
X92812969Y-21522914D01*
X92812969Y-21522914D02*
X92884398Y-21808628D01*
X92884398Y-21808628D02*
X92884398Y-22308628D01*
X92884398Y-22308628D02*
X92812969Y-22594342D01*
X92812969Y-22594342D02*
X92670112Y-22737200D01*
X92670112Y-22737200D02*
X92527255Y-22808628D01*
X92527255Y-22808628D02*
X92241541Y-22808628D01*
X92241541Y-22808628D02*
X92098684Y-22737200D01*
X92098684Y-22737200D02*
X91955826Y-22594342D01*
X91955826Y-22594342D02*
X91884398Y-22308628D01*
X91884398Y-22308628D02*
X91884398Y-21808628D01*
X91884398Y-21808628D02*
X91955826Y-21522914D01*
X91955826Y-21522914D02*
X92098684Y-21380057D01*
X92098684Y-21380057D02*
X92241541Y-21308628D01*
X93527255Y-21308628D02*
X93527255Y-22522914D01*
X93527255Y-22522914D02*
X93598684Y-22665771D01*
X93598684Y-22665771D02*
X93670113Y-22737200D01*
X93670113Y-22737200D02*
X93812970Y-22808628D01*
X93812970Y-22808628D02*
X94098684Y-22808628D01*
X94098684Y-22808628D02*
X94241541Y-22737200D01*
X94241541Y-22737200D02*
X94312970Y-22665771D01*
X94312970Y-22665771D02*
X94384398Y-22522914D01*
X94384398Y-22522914D02*
X94384398Y-21308628D01*
X94884399Y-21308628D02*
X95741542Y-21308628D01*
X95312970Y-22808628D02*
X95312970Y-21308628D01*
X89685826Y-87768628D02*
X89685826Y-86268628D01*
X89685826Y-86268628D02*
X90257255Y-86268628D01*
X90257255Y-86268628D02*
X90400112Y-86340057D01*
X90400112Y-86340057D02*
X90471541Y-86411485D01*
X90471541Y-86411485D02*
X90542969Y-86554342D01*
X90542969Y-86554342D02*
X90542969Y-86768628D01*
X90542969Y-86768628D02*
X90471541Y-86911485D01*
X90471541Y-86911485D02*
X90400112Y-86982914D01*
X90400112Y-86982914D02*
X90257255Y-87054342D01*
X90257255Y-87054342D02*
X89685826Y-87054342D01*
X91471541Y-86268628D02*
X91757255Y-86268628D01*
X91757255Y-86268628D02*
X91900112Y-86340057D01*
X91900112Y-86340057D02*
X92042969Y-86482914D01*
X92042969Y-86482914D02*
X92114398Y-86768628D01*
X92114398Y-86768628D02*
X92114398Y-87268628D01*
X92114398Y-87268628D02*
X92042969Y-87554342D01*
X92042969Y-87554342D02*
X91900112Y-87697200D01*
X91900112Y-87697200D02*
X91757255Y-87768628D01*
X91757255Y-87768628D02*
X91471541Y-87768628D01*
X91471541Y-87768628D02*
X91328684Y-87697200D01*
X91328684Y-87697200D02*
X91185826Y-87554342D01*
X91185826Y-87554342D02*
X91114398Y-87268628D01*
X91114398Y-87268628D02*
X91114398Y-86768628D01*
X91114398Y-86768628D02*
X91185826Y-86482914D01*
X91185826Y-86482914D02*
X91328684Y-86340057D01*
X91328684Y-86340057D02*
X91471541Y-86268628D01*
X92542970Y-86268628D02*
X93400113Y-86268628D01*
X92971541Y-87768628D02*
X92971541Y-86268628D01*
D14*
X32474435Y-78167457D02*
X32331578Y-78096028D01*
X32331578Y-78096028D02*
X32117292Y-78096028D01*
X32117292Y-78096028D02*
X31903006Y-78167457D01*
X31903006Y-78167457D02*
X31760149Y-78310314D01*
X31760149Y-78310314D02*
X31688720Y-78453171D01*
X31688720Y-78453171D02*
X31617292Y-78738885D01*
X31617292Y-78738885D02*
X31617292Y-78953171D01*
X31617292Y-78953171D02*
X31688720Y-79238885D01*
X31688720Y-79238885D02*
X31760149Y-79381742D01*
X31760149Y-79381742D02*
X31903006Y-79524600D01*
X31903006Y-79524600D02*
X32117292Y-79596028D01*
X32117292Y-79596028D02*
X32260149Y-79596028D01*
X32260149Y-79596028D02*
X32474435Y-79524600D01*
X32474435Y-79524600D02*
X32545863Y-79453171D01*
X32545863Y-79453171D02*
X32545863Y-78953171D01*
X32545863Y-78953171D02*
X32260149Y-78953171D01*
X33188720Y-79596028D02*
X33188720Y-78096028D01*
X33188720Y-78096028D02*
X34045863Y-79596028D01*
X34045863Y-79596028D02*
X34045863Y-78096028D01*
X34760149Y-79596028D02*
X34760149Y-78096028D01*
X34760149Y-78096028D02*
X35117292Y-78096028D01*
X35117292Y-78096028D02*
X35331578Y-78167457D01*
X35331578Y-78167457D02*
X35474435Y-78310314D01*
X35474435Y-78310314D02*
X35545864Y-78453171D01*
X35545864Y-78453171D02*
X35617292Y-78738885D01*
X35617292Y-78738885D02*
X35617292Y-78953171D01*
X35617292Y-78953171D02*
X35545864Y-79238885D01*
X35545864Y-79238885D02*
X35474435Y-79381742D01*
X35474435Y-79381742D02*
X35331578Y-79524600D01*
X35331578Y-79524600D02*
X35117292Y-79596028D01*
X35117292Y-79596028D02*
X34760149Y-79596028D01*
X31574435Y-87496028D02*
X32074435Y-88996028D01*
X32074435Y-88996028D02*
X32574435Y-87496028D01*
X33074434Y-88424600D02*
X34217292Y-88424600D01*
X33645863Y-88996028D02*
X33645863Y-87853171D01*
D12*
X31655826Y-110058628D02*
X31655826Y-108558628D01*
X32370112Y-110058628D02*
X32370112Y-108558628D01*
X32370112Y-108558628D02*
X33227255Y-110058628D01*
X33227255Y-110058628D02*
X33227255Y-108558628D01*
D14*
X31674435Y-92596028D02*
X32174435Y-94096028D01*
X32174435Y-94096028D02*
X32674435Y-92596028D01*
X33174434Y-93524600D02*
X34317292Y-93524600D01*
X29274435Y-142917457D02*
X29131578Y-142846028D01*
X29131578Y-142846028D02*
X28917292Y-142846028D01*
X28917292Y-142846028D02*
X28703006Y-142917457D01*
X28703006Y-142917457D02*
X28560149Y-143060314D01*
X28560149Y-143060314D02*
X28488720Y-143203171D01*
X28488720Y-143203171D02*
X28417292Y-143488885D01*
X28417292Y-143488885D02*
X28417292Y-143703171D01*
X28417292Y-143703171D02*
X28488720Y-143988885D01*
X28488720Y-143988885D02*
X28560149Y-144131742D01*
X28560149Y-144131742D02*
X28703006Y-144274600D01*
X28703006Y-144274600D02*
X28917292Y-144346028D01*
X28917292Y-144346028D02*
X29060149Y-144346028D01*
X29060149Y-144346028D02*
X29274435Y-144274600D01*
X29274435Y-144274600D02*
X29345863Y-144203171D01*
X29345863Y-144203171D02*
X29345863Y-143703171D01*
X29345863Y-143703171D02*
X29060149Y-143703171D01*
X29988720Y-144346028D02*
X29988720Y-142846028D01*
X29988720Y-142846028D02*
X30845863Y-144346028D01*
X30845863Y-144346028D02*
X30845863Y-142846028D01*
X31560149Y-144346028D02*
X31560149Y-142846028D01*
X31560149Y-142846028D02*
X31917292Y-142846028D01*
X31917292Y-142846028D02*
X32131578Y-142917457D01*
X32131578Y-142917457D02*
X32274435Y-143060314D01*
X32274435Y-143060314D02*
X32345864Y-143203171D01*
X32345864Y-143203171D02*
X32417292Y-143488885D01*
X32417292Y-143488885D02*
X32417292Y-143703171D01*
X32417292Y-143703171D02*
X32345864Y-143988885D01*
X32345864Y-143988885D02*
X32274435Y-144131742D01*
X32274435Y-144131742D02*
X32131578Y-144274600D01*
X32131578Y-144274600D02*
X31917292Y-144346028D01*
X31917292Y-144346028D02*
X31560149Y-144346028D01*
X29274435Y-30877457D02*
X29131578Y-30806028D01*
X29131578Y-30806028D02*
X28917292Y-30806028D01*
X28917292Y-30806028D02*
X28703006Y-30877457D01*
X28703006Y-30877457D02*
X28560149Y-31020314D01*
X28560149Y-31020314D02*
X28488720Y-31163171D01*
X28488720Y-31163171D02*
X28417292Y-31448885D01*
X28417292Y-31448885D02*
X28417292Y-31663171D01*
X28417292Y-31663171D02*
X28488720Y-31948885D01*
X28488720Y-31948885D02*
X28560149Y-32091742D01*
X28560149Y-32091742D02*
X28703006Y-32234600D01*
X28703006Y-32234600D02*
X28917292Y-32306028D01*
X28917292Y-32306028D02*
X29060149Y-32306028D01*
X29060149Y-32306028D02*
X29274435Y-32234600D01*
X29274435Y-32234600D02*
X29345863Y-32163171D01*
X29345863Y-32163171D02*
X29345863Y-31663171D01*
X29345863Y-31663171D02*
X29060149Y-31663171D01*
X29988720Y-32306028D02*
X29988720Y-30806028D01*
X29988720Y-30806028D02*
X30845863Y-32306028D01*
X30845863Y-32306028D02*
X30845863Y-30806028D01*
X31560149Y-32306028D02*
X31560149Y-30806028D01*
X31560149Y-30806028D02*
X31917292Y-30806028D01*
X31917292Y-30806028D02*
X32131578Y-30877457D01*
X32131578Y-30877457D02*
X32274435Y-31020314D01*
X32274435Y-31020314D02*
X32345864Y-31163171D01*
X32345864Y-31163171D02*
X32417292Y-31448885D01*
X32417292Y-31448885D02*
X32417292Y-31663171D01*
X32417292Y-31663171D02*
X32345864Y-31948885D01*
X32345864Y-31948885D02*
X32274435Y-32091742D01*
X32274435Y-32091742D02*
X32131578Y-32234600D01*
X32131578Y-32234600D02*
X31917292Y-32306028D01*
X31917292Y-32306028D02*
X31560149Y-32306028D01*
X32474435Y-90167457D02*
X32331578Y-90096028D01*
X32331578Y-90096028D02*
X32117292Y-90096028D01*
X32117292Y-90096028D02*
X31903006Y-90167457D01*
X31903006Y-90167457D02*
X31760149Y-90310314D01*
X31760149Y-90310314D02*
X31688720Y-90453171D01*
X31688720Y-90453171D02*
X31617292Y-90738885D01*
X31617292Y-90738885D02*
X31617292Y-90953171D01*
X31617292Y-90953171D02*
X31688720Y-91238885D01*
X31688720Y-91238885D02*
X31760149Y-91381742D01*
X31760149Y-91381742D02*
X31903006Y-91524600D01*
X31903006Y-91524600D02*
X32117292Y-91596028D01*
X32117292Y-91596028D02*
X32260149Y-91596028D01*
X32260149Y-91596028D02*
X32474435Y-91524600D01*
X32474435Y-91524600D02*
X32545863Y-91453171D01*
X32545863Y-91453171D02*
X32545863Y-90953171D01*
X32545863Y-90953171D02*
X32260149Y-90953171D01*
X33188720Y-91596028D02*
X33188720Y-90096028D01*
X33188720Y-90096028D02*
X34045863Y-91596028D01*
X34045863Y-91596028D02*
X34045863Y-90096028D01*
X34760149Y-91596028D02*
X34760149Y-90096028D01*
X34760149Y-90096028D02*
X35117292Y-90096028D01*
X35117292Y-90096028D02*
X35331578Y-90167457D01*
X35331578Y-90167457D02*
X35474435Y-90310314D01*
X35474435Y-90310314D02*
X35545864Y-90453171D01*
X35545864Y-90453171D02*
X35617292Y-90738885D01*
X35617292Y-90738885D02*
X35617292Y-90953171D01*
X35617292Y-90953171D02*
X35545864Y-91238885D01*
X35545864Y-91238885D02*
X35474435Y-91381742D01*
X35474435Y-91381742D02*
X35331578Y-91524600D01*
X35331578Y-91524600D02*
X35117292Y-91596028D01*
X35117292Y-91596028D02*
X34760149Y-91596028D01*
D15*
X77983082Y-44872257D02*
X78697368Y-44872257D01*
X77840225Y-45300828D02*
X78340225Y-43800828D01*
X78340225Y-43800828D02*
X78840225Y-45300828D01*
X79983082Y-44300828D02*
X79983082Y-45300828D01*
X79340224Y-44300828D02*
X79340224Y-45086542D01*
X79340224Y-45086542D02*
X79411653Y-45229400D01*
X79411653Y-45229400D02*
X79554510Y-45300828D01*
X79554510Y-45300828D02*
X79768796Y-45300828D01*
X79768796Y-45300828D02*
X79911653Y-45229400D01*
X79911653Y-45229400D02*
X79983082Y-45157971D01*
X80554510Y-45300828D02*
X81340225Y-44300828D01*
X80554510Y-44300828D02*
X81340225Y-45300828D01*
D14*
X31674435Y-75496028D02*
X32174435Y-76996028D01*
X32174435Y-76996028D02*
X32674435Y-75496028D01*
X33174434Y-76424600D02*
X34317292Y-76424600D01*
X28274435Y-137806028D02*
X28774435Y-139306028D01*
X28774435Y-139306028D02*
X29274435Y-137806028D01*
X29774434Y-139306028D02*
X29774434Y-138306028D01*
X29774434Y-138591742D02*
X29845863Y-138448885D01*
X29845863Y-138448885D02*
X29917292Y-138377457D01*
X29917292Y-138377457D02*
X30060149Y-138306028D01*
X30060149Y-138306028D02*
X30203006Y-138306028D01*
X31274434Y-139234600D02*
X31131577Y-139306028D01*
X31131577Y-139306028D02*
X30845863Y-139306028D01*
X30845863Y-139306028D02*
X30703005Y-139234600D01*
X30703005Y-139234600D02*
X30631577Y-139091742D01*
X30631577Y-139091742D02*
X30631577Y-138520314D01*
X30631577Y-138520314D02*
X30703005Y-138377457D01*
X30703005Y-138377457D02*
X30845863Y-138306028D01*
X30845863Y-138306028D02*
X31131577Y-138306028D01*
X31131577Y-138306028D02*
X31274434Y-138377457D01*
X31274434Y-138377457D02*
X31345863Y-138520314D01*
X31345863Y-138520314D02*
X31345863Y-138663171D01*
X31345863Y-138663171D02*
X30631577Y-138806028D01*
X31774434Y-138306028D02*
X32345862Y-138306028D01*
X31988719Y-139306028D02*
X31988719Y-138020314D01*
X31988719Y-138020314D02*
X32060148Y-137877457D01*
X32060148Y-137877457D02*
X32203005Y-137806028D01*
X32203005Y-137806028D02*
X32345862Y-137806028D01*
D12*
X89685826Y-35498628D02*
X89685826Y-33998628D01*
X89685826Y-33998628D02*
X90257255Y-33998628D01*
X90257255Y-33998628D02*
X90400112Y-34070057D01*
X90400112Y-34070057D02*
X90471541Y-34141485D01*
X90471541Y-34141485D02*
X90542969Y-34284342D01*
X90542969Y-34284342D02*
X90542969Y-34498628D01*
X90542969Y-34498628D02*
X90471541Y-34641485D01*
X90471541Y-34641485D02*
X90400112Y-34712914D01*
X90400112Y-34712914D02*
X90257255Y-34784342D01*
X90257255Y-34784342D02*
X89685826Y-34784342D01*
X91471541Y-33998628D02*
X91757255Y-33998628D01*
X91757255Y-33998628D02*
X91900112Y-34070057D01*
X91900112Y-34070057D02*
X92042969Y-34212914D01*
X92042969Y-34212914D02*
X92114398Y-34498628D01*
X92114398Y-34498628D02*
X92114398Y-34998628D01*
X92114398Y-34998628D02*
X92042969Y-35284342D01*
X92042969Y-35284342D02*
X91900112Y-35427200D01*
X91900112Y-35427200D02*
X91757255Y-35498628D01*
X91757255Y-35498628D02*
X91471541Y-35498628D01*
X91471541Y-35498628D02*
X91328684Y-35427200D01*
X91328684Y-35427200D02*
X91185826Y-35284342D01*
X91185826Y-35284342D02*
X91114398Y-34998628D01*
X91114398Y-34998628D02*
X91114398Y-34498628D01*
X91114398Y-34498628D02*
X91185826Y-34212914D01*
X91185826Y-34212914D02*
X91328684Y-34070057D01*
X91328684Y-34070057D02*
X91471541Y-33998628D01*
X92542970Y-33998628D02*
X93400113Y-33998628D01*
X92971541Y-35498628D02*
X92971541Y-33998628D01*
D14*
X25274435Y-36306028D02*
X25774435Y-37806028D01*
X25774435Y-37806028D02*
X26274435Y-36306028D01*
X26774434Y-37234600D02*
X27917292Y-37234600D01*
X27345863Y-37806028D02*
X27345863Y-36663171D01*
D12*
X89685826Y-65418628D02*
X89685826Y-63918628D01*
X89685826Y-63918628D02*
X90257255Y-63918628D01*
X90257255Y-63918628D02*
X90400112Y-63990057D01*
X90400112Y-63990057D02*
X90471541Y-64061485D01*
X90471541Y-64061485D02*
X90542969Y-64204342D01*
X90542969Y-64204342D02*
X90542969Y-64418628D01*
X90542969Y-64418628D02*
X90471541Y-64561485D01*
X90471541Y-64561485D02*
X90400112Y-64632914D01*
X90400112Y-64632914D02*
X90257255Y-64704342D01*
X90257255Y-64704342D02*
X89685826Y-64704342D01*
X91471541Y-63918628D02*
X91757255Y-63918628D01*
X91757255Y-63918628D02*
X91900112Y-63990057D01*
X91900112Y-63990057D02*
X92042969Y-64132914D01*
X92042969Y-64132914D02*
X92114398Y-64418628D01*
X92114398Y-64418628D02*
X92114398Y-64918628D01*
X92114398Y-64918628D02*
X92042969Y-65204342D01*
X92042969Y-65204342D02*
X91900112Y-65347200D01*
X91900112Y-65347200D02*
X91757255Y-65418628D01*
X91757255Y-65418628D02*
X91471541Y-65418628D01*
X91471541Y-65418628D02*
X91328684Y-65347200D01*
X91328684Y-65347200D02*
X91185826Y-65204342D01*
X91185826Y-65204342D02*
X91114398Y-64918628D01*
X91114398Y-64918628D02*
X91114398Y-64418628D01*
X91114398Y-64418628D02*
X91185826Y-64132914D01*
X91185826Y-64132914D02*
X91328684Y-63990057D01*
X91328684Y-63990057D02*
X91471541Y-63918628D01*
X92542970Y-63918628D02*
X93400113Y-63918628D01*
X92971541Y-65418628D02*
X92971541Y-63918628D01*
D14*
X24774435Y-22806028D02*
X25274435Y-24306028D01*
X25274435Y-24306028D02*
X25774435Y-22806028D01*
X26274434Y-24306028D02*
X26274434Y-23306028D01*
X26274434Y-23591742D02*
X26345863Y-23448885D01*
X26345863Y-23448885D02*
X26417292Y-23377457D01*
X26417292Y-23377457D02*
X26560149Y-23306028D01*
X26560149Y-23306028D02*
X26703006Y-23306028D01*
X27774434Y-24234600D02*
X27631577Y-24306028D01*
X27631577Y-24306028D02*
X27345863Y-24306028D01*
X27345863Y-24306028D02*
X27203005Y-24234600D01*
X27203005Y-24234600D02*
X27131577Y-24091742D01*
X27131577Y-24091742D02*
X27131577Y-23520314D01*
X27131577Y-23520314D02*
X27203005Y-23377457D01*
X27203005Y-23377457D02*
X27345863Y-23306028D01*
X27345863Y-23306028D02*
X27631577Y-23306028D01*
X27631577Y-23306028D02*
X27774434Y-23377457D01*
X27774434Y-23377457D02*
X27845863Y-23520314D01*
X27845863Y-23520314D02*
X27845863Y-23663171D01*
X27845863Y-23663171D02*
X27131577Y-23806028D01*
X28274434Y-23306028D02*
X28845862Y-23306028D01*
X28488719Y-24306028D02*
X28488719Y-23020314D01*
X28488719Y-23020314D02*
X28560148Y-22877457D01*
X28560148Y-22877457D02*
X28703005Y-22806028D01*
X28703005Y-22806028D02*
X28845862Y-22806028D01*
D12*
X31491541Y-58558628D02*
X32348684Y-58558628D01*
X31920112Y-60058628D02*
X31920112Y-58558628D01*
X33634398Y-60058628D02*
X32777255Y-60058628D01*
X33205826Y-60058628D02*
X33205826Y-58558628D01*
X33205826Y-58558628D02*
X33062969Y-58772914D01*
X33062969Y-58772914D02*
X32920112Y-58915771D01*
X32920112Y-58915771D02*
X32777255Y-58987200D01*
X31491541Y-61158628D02*
X32348684Y-61158628D01*
X31920112Y-62658628D02*
X31920112Y-61158628D01*
X32777255Y-61301485D02*
X32848683Y-61230057D01*
X32848683Y-61230057D02*
X32991541Y-61158628D01*
X32991541Y-61158628D02*
X33348683Y-61158628D01*
X33348683Y-61158628D02*
X33491541Y-61230057D01*
X33491541Y-61230057D02*
X33562969Y-61301485D01*
X33562969Y-61301485D02*
X33634398Y-61444342D01*
X33634398Y-61444342D02*
X33634398Y-61587200D01*
X33634398Y-61587200D02*
X33562969Y-61801485D01*
X33562969Y-61801485D02*
X32705826Y-62658628D01*
X32705826Y-62658628D02*
X33634398Y-62658628D01*
D14*
X31674435Y-80596028D02*
X32174435Y-82096028D01*
X32174435Y-82096028D02*
X32674435Y-80596028D01*
X33174434Y-81524600D02*
X34317292Y-81524600D01*
X33745863Y-82096028D02*
X33745863Y-80953171D01*
D10*
X68911027Y-119762475D02*
X69482455Y-119762475D01*
X69196741Y-120762475D02*
X69196741Y-119762475D01*
X70244360Y-120095808D02*
X70244360Y-120762475D01*
X69815789Y-120095808D02*
X69815789Y-120619617D01*
X69815789Y-120619617D02*
X69863408Y-120714856D01*
X69863408Y-120714856D02*
X69958646Y-120762475D01*
X69958646Y-120762475D02*
X70101503Y-120762475D01*
X70101503Y-120762475D02*
X70196741Y-120714856D01*
X70196741Y-120714856D02*
X70244360Y-120667236D01*
X70720551Y-120762475D02*
X70720551Y-120095808D01*
X70720551Y-120286284D02*
X70768170Y-120191046D01*
X70768170Y-120191046D02*
X70815789Y-120143427D01*
X70815789Y-120143427D02*
X70911027Y-120095808D01*
X70911027Y-120095808D02*
X71006265Y-120095808D01*
X71339599Y-120095808D02*
X71339599Y-120762475D01*
X71339599Y-120191046D02*
X71387218Y-120143427D01*
X71387218Y-120143427D02*
X71482456Y-120095808D01*
X71482456Y-120095808D02*
X71625313Y-120095808D01*
X71625313Y-120095808D02*
X71720551Y-120143427D01*
X71720551Y-120143427D02*
X71768170Y-120238665D01*
X71768170Y-120238665D02*
X71768170Y-120762475D01*
X73196742Y-119762475D02*
X73387218Y-119762475D01*
X73387218Y-119762475D02*
X73482456Y-119810094D01*
X73482456Y-119810094D02*
X73577694Y-119905332D01*
X73577694Y-119905332D02*
X73625313Y-120095808D01*
X73625313Y-120095808D02*
X73625313Y-120429141D01*
X73625313Y-120429141D02*
X73577694Y-120619617D01*
X73577694Y-120619617D02*
X73482456Y-120714856D01*
X73482456Y-120714856D02*
X73387218Y-120762475D01*
X73387218Y-120762475D02*
X73196742Y-120762475D01*
X73196742Y-120762475D02*
X73101504Y-120714856D01*
X73101504Y-120714856D02*
X73006266Y-120619617D01*
X73006266Y-120619617D02*
X72958647Y-120429141D01*
X72958647Y-120429141D02*
X72958647Y-120095808D01*
X72958647Y-120095808D02*
X73006266Y-119905332D01*
X73006266Y-119905332D02*
X73101504Y-119810094D01*
X73101504Y-119810094D02*
X73196742Y-119762475D01*
X74387218Y-120238665D02*
X74053885Y-120238665D01*
X74053885Y-120762475D02*
X74053885Y-119762475D01*
X74053885Y-119762475D02*
X74530075Y-119762475D01*
X75244361Y-120238665D02*
X74911028Y-120238665D01*
X74911028Y-120762475D02*
X74911028Y-119762475D01*
X74911028Y-119762475D02*
X75387218Y-119762475D01*
X69053884Y-122372419D02*
X69053884Y-121705752D01*
X69053884Y-121896228D02*
X69101503Y-121800990D01*
X69101503Y-121800990D02*
X69149122Y-121753371D01*
X69149122Y-121753371D02*
X69244360Y-121705752D01*
X69244360Y-121705752D02*
X69339598Y-121705752D01*
X70053884Y-122324800D02*
X69958646Y-122372419D01*
X69958646Y-122372419D02*
X69768170Y-122372419D01*
X69768170Y-122372419D02*
X69672932Y-122324800D01*
X69672932Y-122324800D02*
X69625313Y-122229561D01*
X69625313Y-122229561D02*
X69625313Y-121848609D01*
X69625313Y-121848609D02*
X69672932Y-121753371D01*
X69672932Y-121753371D02*
X69768170Y-121705752D01*
X69768170Y-121705752D02*
X69958646Y-121705752D01*
X69958646Y-121705752D02*
X70053884Y-121753371D01*
X70053884Y-121753371D02*
X70101503Y-121848609D01*
X70101503Y-121848609D02*
X70101503Y-121943847D01*
X70101503Y-121943847D02*
X69625313Y-122039085D01*
X70958646Y-121705752D02*
X70958646Y-122515276D01*
X70958646Y-122515276D02*
X70911027Y-122610514D01*
X70911027Y-122610514D02*
X70863408Y-122658133D01*
X70863408Y-122658133D02*
X70768170Y-122705752D01*
X70768170Y-122705752D02*
X70625313Y-122705752D01*
X70625313Y-122705752D02*
X70530075Y-122658133D01*
X70958646Y-122324800D02*
X70863408Y-122372419D01*
X70863408Y-122372419D02*
X70672932Y-122372419D01*
X70672932Y-122372419D02*
X70577694Y-122324800D01*
X70577694Y-122324800D02*
X70530075Y-122277180D01*
X70530075Y-122277180D02*
X70482456Y-122181942D01*
X70482456Y-122181942D02*
X70482456Y-121896228D01*
X70482456Y-121896228D02*
X70530075Y-121800990D01*
X70530075Y-121800990D02*
X70577694Y-121753371D01*
X70577694Y-121753371D02*
X70672932Y-121705752D01*
X70672932Y-121705752D02*
X70863408Y-121705752D01*
X70863408Y-121705752D02*
X70958646Y-121753371D01*
X71863408Y-121705752D02*
X71863408Y-122372419D01*
X71434837Y-121705752D02*
X71434837Y-122229561D01*
X71434837Y-122229561D02*
X71482456Y-122324800D01*
X71482456Y-122324800D02*
X71577694Y-122372419D01*
X71577694Y-122372419D02*
X71720551Y-122372419D01*
X71720551Y-122372419D02*
X71815789Y-122324800D01*
X71815789Y-122324800D02*
X71863408Y-122277180D01*
X72482456Y-122372419D02*
X72387218Y-122324800D01*
X72387218Y-122324800D02*
X72339599Y-122229561D01*
X72339599Y-122229561D02*
X72339599Y-121372419D01*
X73291980Y-122372419D02*
X73291980Y-121848609D01*
X73291980Y-121848609D02*
X73244361Y-121753371D01*
X73244361Y-121753371D02*
X73149123Y-121705752D01*
X73149123Y-121705752D02*
X72958647Y-121705752D01*
X72958647Y-121705752D02*
X72863409Y-121753371D01*
X73291980Y-122324800D02*
X73196742Y-122372419D01*
X73196742Y-122372419D02*
X72958647Y-122372419D01*
X72958647Y-122372419D02*
X72863409Y-122324800D01*
X72863409Y-122324800D02*
X72815790Y-122229561D01*
X72815790Y-122229561D02*
X72815790Y-122134323D01*
X72815790Y-122134323D02*
X72863409Y-122039085D01*
X72863409Y-122039085D02*
X72958647Y-121991466D01*
X72958647Y-121991466D02*
X73196742Y-121991466D01*
X73196742Y-121991466D02*
X73291980Y-121943847D01*
X73625314Y-121705752D02*
X74006266Y-121705752D01*
X73768171Y-121372419D02*
X73768171Y-122229561D01*
X73768171Y-122229561D02*
X73815790Y-122324800D01*
X73815790Y-122324800D02*
X73911028Y-122372419D01*
X73911028Y-122372419D02*
X74006266Y-122372419D01*
X74482457Y-122372419D02*
X74387219Y-122324800D01*
X74387219Y-122324800D02*
X74339600Y-122277180D01*
X74339600Y-122277180D02*
X74291981Y-122181942D01*
X74291981Y-122181942D02*
X74291981Y-121896228D01*
X74291981Y-121896228D02*
X74339600Y-121800990D01*
X74339600Y-121800990D02*
X74387219Y-121753371D01*
X74387219Y-121753371D02*
X74482457Y-121705752D01*
X74482457Y-121705752D02*
X74625314Y-121705752D01*
X74625314Y-121705752D02*
X74720552Y-121753371D01*
X74720552Y-121753371D02*
X74768171Y-121800990D01*
X74768171Y-121800990D02*
X74815790Y-121896228D01*
X74815790Y-121896228D02*
X74815790Y-122181942D01*
X74815790Y-122181942D02*
X74768171Y-122277180D01*
X74768171Y-122277180D02*
X74720552Y-122324800D01*
X74720552Y-122324800D02*
X74625314Y-122372419D01*
X74625314Y-122372419D02*
X74482457Y-122372419D01*
X75244362Y-122372419D02*
X75244362Y-121705752D01*
X75244362Y-121896228D02*
X75291981Y-121800990D01*
X75291981Y-121800990D02*
X75339600Y-121753371D01*
X75339600Y-121753371D02*
X75434838Y-121705752D01*
X75434838Y-121705752D02*
X75530076Y-121705752D01*
D12*
X89685826Y-117498628D02*
X89685826Y-115998628D01*
X89685826Y-115998628D02*
X90257255Y-115998628D01*
X90257255Y-115998628D02*
X90400112Y-116070057D01*
X90400112Y-116070057D02*
X90471541Y-116141485D01*
X90471541Y-116141485D02*
X90542969Y-116284342D01*
X90542969Y-116284342D02*
X90542969Y-116498628D01*
X90542969Y-116498628D02*
X90471541Y-116641485D01*
X90471541Y-116641485D02*
X90400112Y-116712914D01*
X90400112Y-116712914D02*
X90257255Y-116784342D01*
X90257255Y-116784342D02*
X89685826Y-116784342D01*
X91471541Y-115998628D02*
X91757255Y-115998628D01*
X91757255Y-115998628D02*
X91900112Y-116070057D01*
X91900112Y-116070057D02*
X92042969Y-116212914D01*
X92042969Y-116212914D02*
X92114398Y-116498628D01*
X92114398Y-116498628D02*
X92114398Y-116998628D01*
X92114398Y-116998628D02*
X92042969Y-117284342D01*
X92042969Y-117284342D02*
X91900112Y-117427200D01*
X91900112Y-117427200D02*
X91757255Y-117498628D01*
X91757255Y-117498628D02*
X91471541Y-117498628D01*
X91471541Y-117498628D02*
X91328684Y-117427200D01*
X91328684Y-117427200D02*
X91185826Y-117284342D01*
X91185826Y-117284342D02*
X91114398Y-116998628D01*
X91114398Y-116998628D02*
X91114398Y-116498628D01*
X91114398Y-116498628D02*
X91185826Y-116212914D01*
X91185826Y-116212914D02*
X91328684Y-116070057D01*
X91328684Y-116070057D02*
X91471541Y-115998628D01*
X92542970Y-115998628D02*
X93400113Y-115998628D01*
X92971541Y-117498628D02*
X92971541Y-115998628D01*
D14*
X31474435Y-85056028D02*
X31974435Y-86556028D01*
X31974435Y-86556028D02*
X32474435Y-85056028D01*
X32974434Y-86556028D02*
X32974434Y-85556028D01*
X32974434Y-85841742D02*
X33045863Y-85698885D01*
X33045863Y-85698885D02*
X33117292Y-85627457D01*
X33117292Y-85627457D02*
X33260149Y-85556028D01*
X33260149Y-85556028D02*
X33403006Y-85556028D01*
X34474434Y-86484600D02*
X34331577Y-86556028D01*
X34331577Y-86556028D02*
X34045863Y-86556028D01*
X34045863Y-86556028D02*
X33903005Y-86484600D01*
X33903005Y-86484600D02*
X33831577Y-86341742D01*
X33831577Y-86341742D02*
X33831577Y-85770314D01*
X33831577Y-85770314D02*
X33903005Y-85627457D01*
X33903005Y-85627457D02*
X34045863Y-85556028D01*
X34045863Y-85556028D02*
X34331577Y-85556028D01*
X34331577Y-85556028D02*
X34474434Y-85627457D01*
X34474434Y-85627457D02*
X34545863Y-85770314D01*
X34545863Y-85770314D02*
X34545863Y-85913171D01*
X34545863Y-85913171D02*
X33831577Y-86056028D01*
X34974434Y-85556028D02*
X35545862Y-85556028D01*
X35188719Y-86556028D02*
X35188719Y-85270314D01*
X35188719Y-85270314D02*
X35260148Y-85127457D01*
X35260148Y-85127457D02*
X35403005Y-85056028D01*
X35403005Y-85056028D02*
X35545862Y-85056028D01*
D10*
X45375312Y-66372419D02*
X45041979Y-65896228D01*
X44803884Y-66372419D02*
X44803884Y-65372419D01*
X44803884Y-65372419D02*
X45184836Y-65372419D01*
X45184836Y-65372419D02*
X45280074Y-65420038D01*
X45280074Y-65420038D02*
X45327693Y-65467657D01*
X45327693Y-65467657D02*
X45375312Y-65562895D01*
X45375312Y-65562895D02*
X45375312Y-65705752D01*
X45375312Y-65705752D02*
X45327693Y-65800990D01*
X45327693Y-65800990D02*
X45280074Y-65848609D01*
X45280074Y-65848609D02*
X45184836Y-65896228D01*
X45184836Y-65896228D02*
X44803884Y-65896228D01*
X46184836Y-66324800D02*
X46089598Y-66372419D01*
X46089598Y-66372419D02*
X45899122Y-66372419D01*
X45899122Y-66372419D02*
X45803884Y-66324800D01*
X45803884Y-66324800D02*
X45756265Y-66229561D01*
X45756265Y-66229561D02*
X45756265Y-65848609D01*
X45756265Y-65848609D02*
X45803884Y-65753371D01*
X45803884Y-65753371D02*
X45899122Y-65705752D01*
X45899122Y-65705752D02*
X46089598Y-65705752D01*
X46089598Y-65705752D02*
X46184836Y-65753371D01*
X46184836Y-65753371D02*
X46232455Y-65848609D01*
X46232455Y-65848609D02*
X46232455Y-65943847D01*
X46232455Y-65943847D02*
X45756265Y-66039085D01*
X46661027Y-66372419D02*
X46661027Y-65705752D01*
X46661027Y-65800990D02*
X46708646Y-65753371D01*
X46708646Y-65753371D02*
X46803884Y-65705752D01*
X46803884Y-65705752D02*
X46946741Y-65705752D01*
X46946741Y-65705752D02*
X47041979Y-65753371D01*
X47041979Y-65753371D02*
X47089598Y-65848609D01*
X47089598Y-65848609D02*
X47089598Y-66372419D01*
X47089598Y-65848609D02*
X47137217Y-65753371D01*
X47137217Y-65753371D02*
X47232455Y-65705752D01*
X47232455Y-65705752D02*
X47375312Y-65705752D01*
X47375312Y-65705752D02*
X47470551Y-65753371D01*
X47470551Y-65753371D02*
X47518170Y-65848609D01*
X47518170Y-65848609D02*
X47518170Y-66372419D01*
X48137217Y-66372419D02*
X48041979Y-66324800D01*
X48041979Y-66324800D02*
X47994360Y-66277180D01*
X47994360Y-66277180D02*
X47946741Y-66181942D01*
X47946741Y-66181942D02*
X47946741Y-65896228D01*
X47946741Y-65896228D02*
X47994360Y-65800990D01*
X47994360Y-65800990D02*
X48041979Y-65753371D01*
X48041979Y-65753371D02*
X48137217Y-65705752D01*
X48137217Y-65705752D02*
X48280074Y-65705752D01*
X48280074Y-65705752D02*
X48375312Y-65753371D01*
X48375312Y-65753371D02*
X48422931Y-65800990D01*
X48422931Y-65800990D02*
X48470550Y-65896228D01*
X48470550Y-65896228D02*
X48470550Y-66181942D01*
X48470550Y-66181942D02*
X48422931Y-66277180D01*
X48422931Y-66277180D02*
X48375312Y-66324800D01*
X48375312Y-66324800D02*
X48280074Y-66372419D01*
X48280074Y-66372419D02*
X48137217Y-66372419D01*
X48803884Y-65705752D02*
X49041979Y-66372419D01*
X49041979Y-66372419D02*
X49280074Y-65705752D01*
X50041979Y-66324800D02*
X49946741Y-66372419D01*
X49946741Y-66372419D02*
X49756265Y-66372419D01*
X49756265Y-66372419D02*
X49661027Y-66324800D01*
X49661027Y-66324800D02*
X49613408Y-66229561D01*
X49613408Y-66229561D02*
X49613408Y-65848609D01*
X49613408Y-65848609D02*
X49661027Y-65753371D01*
X49661027Y-65753371D02*
X49756265Y-65705752D01*
X49756265Y-65705752D02*
X49946741Y-65705752D01*
X49946741Y-65705752D02*
X50041979Y-65753371D01*
X50041979Y-65753371D02*
X50089598Y-65848609D01*
X50089598Y-65848609D02*
X50089598Y-65943847D01*
X50089598Y-65943847D02*
X49613408Y-66039085D01*
X51280075Y-66372419D02*
X51280075Y-65705752D01*
X51280075Y-65896228D02*
X51327694Y-65800990D01*
X51327694Y-65800990D02*
X51375313Y-65753371D01*
X51375313Y-65753371D02*
X51470551Y-65705752D01*
X51470551Y-65705752D02*
X51565789Y-65705752D01*
X52280075Y-66324800D02*
X52184837Y-66372419D01*
X52184837Y-66372419D02*
X51994361Y-66372419D01*
X51994361Y-66372419D02*
X51899123Y-66324800D01*
X51899123Y-66324800D02*
X51851504Y-66229561D01*
X51851504Y-66229561D02*
X51851504Y-65848609D01*
X51851504Y-65848609D02*
X51899123Y-65753371D01*
X51899123Y-65753371D02*
X51994361Y-65705752D01*
X51994361Y-65705752D02*
X52184837Y-65705752D01*
X52184837Y-65705752D02*
X52280075Y-65753371D01*
X52280075Y-65753371D02*
X52327694Y-65848609D01*
X52327694Y-65848609D02*
X52327694Y-65943847D01*
X52327694Y-65943847D02*
X51851504Y-66039085D01*
X52899123Y-66372419D02*
X52803885Y-66324800D01*
X52803885Y-66324800D02*
X52756266Y-66229561D01*
X52756266Y-66229561D02*
X52756266Y-65372419D01*
X53708647Y-66372419D02*
X53708647Y-65848609D01*
X53708647Y-65848609D02*
X53661028Y-65753371D01*
X53661028Y-65753371D02*
X53565790Y-65705752D01*
X53565790Y-65705752D02*
X53375314Y-65705752D01*
X53375314Y-65705752D02*
X53280076Y-65753371D01*
X53708647Y-66324800D02*
X53613409Y-66372419D01*
X53613409Y-66372419D02*
X53375314Y-66372419D01*
X53375314Y-66372419D02*
X53280076Y-66324800D01*
X53280076Y-66324800D02*
X53232457Y-66229561D01*
X53232457Y-66229561D02*
X53232457Y-66134323D01*
X53232457Y-66134323D02*
X53280076Y-66039085D01*
X53280076Y-66039085D02*
X53375314Y-65991466D01*
X53375314Y-65991466D02*
X53613409Y-65991466D01*
X53613409Y-65991466D02*
X53708647Y-65943847D01*
X54089600Y-65705752D02*
X54327695Y-66372419D01*
X54565790Y-65705752D02*
X54327695Y-66372419D01*
X54327695Y-66372419D02*
X54232457Y-66610514D01*
X54232457Y-66610514D02*
X54184838Y-66658133D01*
X54184838Y-66658133D02*
X54089600Y-66705752D01*
D12*
X89685826Y-102308628D02*
X89685826Y-100808628D01*
X89685826Y-100808628D02*
X90257255Y-100808628D01*
X90257255Y-100808628D02*
X90400112Y-100880057D01*
X90400112Y-100880057D02*
X90471541Y-100951485D01*
X90471541Y-100951485D02*
X90542969Y-101094342D01*
X90542969Y-101094342D02*
X90542969Y-101308628D01*
X90542969Y-101308628D02*
X90471541Y-101451485D01*
X90471541Y-101451485D02*
X90400112Y-101522914D01*
X90400112Y-101522914D02*
X90257255Y-101594342D01*
X90257255Y-101594342D02*
X89685826Y-101594342D01*
X91471541Y-100808628D02*
X91757255Y-100808628D01*
X91757255Y-100808628D02*
X91900112Y-100880057D01*
X91900112Y-100880057D02*
X92042969Y-101022914D01*
X92042969Y-101022914D02*
X92114398Y-101308628D01*
X92114398Y-101308628D02*
X92114398Y-101808628D01*
X92114398Y-101808628D02*
X92042969Y-102094342D01*
X92042969Y-102094342D02*
X91900112Y-102237200D01*
X91900112Y-102237200D02*
X91757255Y-102308628D01*
X91757255Y-102308628D02*
X91471541Y-102308628D01*
X91471541Y-102308628D02*
X91328684Y-102237200D01*
X91328684Y-102237200D02*
X91185826Y-102094342D01*
X91185826Y-102094342D02*
X91114398Y-101808628D01*
X91114398Y-101808628D02*
X91114398Y-101308628D01*
X91114398Y-101308628D02*
X91185826Y-101022914D01*
X91185826Y-101022914D02*
X91328684Y-100880057D01*
X91328684Y-100880057D02*
X91471541Y-100808628D01*
X92542970Y-100808628D02*
X93400113Y-100808628D01*
X92971541Y-102308628D02*
X92971541Y-100808628D01*
X31641541Y-124458628D02*
X32498684Y-124458628D01*
X32070112Y-125958628D02*
X32070112Y-124458628D01*
X32927255Y-124601485D02*
X32998683Y-124530057D01*
X32998683Y-124530057D02*
X33141541Y-124458628D01*
X33141541Y-124458628D02*
X33498683Y-124458628D01*
X33498683Y-124458628D02*
X33641541Y-124530057D01*
X33641541Y-124530057D02*
X33712969Y-124601485D01*
X33712969Y-124601485D02*
X33784398Y-124744342D01*
X33784398Y-124744342D02*
X33784398Y-124887200D01*
X33784398Y-124887200D02*
X33712969Y-125101485D01*
X33712969Y-125101485D02*
X32855826Y-125958628D01*
X32855826Y-125958628D02*
X33784398Y-125958628D01*
X31784398Y-112130057D02*
X32498684Y-112130057D01*
X31641541Y-112558628D02*
X32141541Y-111058628D01*
X32141541Y-111058628D02*
X32641541Y-112558628D01*
X33141540Y-111058628D02*
X33141540Y-112272914D01*
X33141540Y-112272914D02*
X33212969Y-112415771D01*
X33212969Y-112415771D02*
X33284398Y-112487200D01*
X33284398Y-112487200D02*
X33427255Y-112558628D01*
X33427255Y-112558628D02*
X33712969Y-112558628D01*
X33712969Y-112558628D02*
X33855826Y-112487200D01*
X33855826Y-112487200D02*
X33927255Y-112415771D01*
X33927255Y-112415771D02*
X33998683Y-112272914D01*
X33998683Y-112272914D02*
X33998683Y-111058628D01*
X34570112Y-111058628D02*
X35570112Y-112558628D01*
X35570112Y-111058628D02*
X34570112Y-112558628D01*
D10*
X39000000Y-50500000D02*
X39000000Y-64000000D01*
X43500000Y-135500000D02*
G75*
G02*
X31500000Y-135500000I-6000000J0D01*
G01*
X31500000Y-135500000D02*
G75*
G02*
X43500000Y-135500000I6000000J0D01*
G01*
D12*
X26166666Y-135104819D02*
X26166666Y-135819104D01*
X26166666Y-135819104D02*
X26119047Y-135961961D01*
X26119047Y-135961961D02*
X26023809Y-136057200D01*
X26023809Y-136057200D02*
X25880952Y-136104819D01*
X25880952Y-136104819D02*
X25785714Y-136104819D01*
X27071428Y-135438152D02*
X27071428Y-136104819D01*
X26833333Y-135057200D02*
X26595238Y-135771485D01*
X26595238Y-135771485D02*
X27214285Y-135771485D01*
X89690476Y-76764819D02*
X89690476Y-77479104D01*
X89690476Y-77479104D02*
X89642857Y-77621961D01*
X89642857Y-77621961D02*
X89547619Y-77717200D01*
X89547619Y-77717200D02*
X89404762Y-77764819D01*
X89404762Y-77764819D02*
X89309524Y-77764819D01*
X90119048Y-76860057D02*
X90166667Y-76812438D01*
X90166667Y-76812438D02*
X90261905Y-76764819D01*
X90261905Y-76764819D02*
X90500000Y-76764819D01*
X90500000Y-76764819D02*
X90595238Y-76812438D01*
X90595238Y-76812438D02*
X90642857Y-76860057D01*
X90642857Y-76860057D02*
X90690476Y-76955295D01*
X90690476Y-76955295D02*
X90690476Y-77050533D01*
X90690476Y-77050533D02*
X90642857Y-77193390D01*
X90642857Y-77193390D02*
X90071429Y-77764819D01*
X90071429Y-77764819D02*
X90690476Y-77764819D01*
X91642857Y-77764819D02*
X91071429Y-77764819D01*
X91357143Y-77764819D02*
X91357143Y-76764819D01*
X91357143Y-76764819D02*
X91261905Y-76907676D01*
X91261905Y-76907676D02*
X91166667Y-77002914D01*
X91166667Y-77002914D02*
X91071429Y-77050533D01*
X61333333Y-61954819D02*
X61000000Y-61478628D01*
X60761905Y-61954819D02*
X60761905Y-60954819D01*
X60761905Y-60954819D02*
X61142857Y-60954819D01*
X61142857Y-60954819D02*
X61238095Y-61002438D01*
X61238095Y-61002438D02*
X61285714Y-61050057D01*
X61285714Y-61050057D02*
X61333333Y-61145295D01*
X61333333Y-61145295D02*
X61333333Y-61288152D01*
X61333333Y-61288152D02*
X61285714Y-61383390D01*
X61285714Y-61383390D02*
X61238095Y-61431009D01*
X61238095Y-61431009D02*
X61142857Y-61478628D01*
X61142857Y-61478628D02*
X60761905Y-61478628D01*
X61904762Y-61383390D02*
X61809524Y-61335771D01*
X61809524Y-61335771D02*
X61761905Y-61288152D01*
X61761905Y-61288152D02*
X61714286Y-61192914D01*
X61714286Y-61192914D02*
X61714286Y-61145295D01*
X61714286Y-61145295D02*
X61761905Y-61050057D01*
X61761905Y-61050057D02*
X61809524Y-61002438D01*
X61809524Y-61002438D02*
X61904762Y-60954819D01*
X61904762Y-60954819D02*
X62095238Y-60954819D01*
X62095238Y-60954819D02*
X62190476Y-61002438D01*
X62190476Y-61002438D02*
X62238095Y-61050057D01*
X62238095Y-61050057D02*
X62285714Y-61145295D01*
X62285714Y-61145295D02*
X62285714Y-61192914D01*
X62285714Y-61192914D02*
X62238095Y-61288152D01*
X62238095Y-61288152D02*
X62190476Y-61335771D01*
X62190476Y-61335771D02*
X62095238Y-61383390D01*
X62095238Y-61383390D02*
X61904762Y-61383390D01*
X61904762Y-61383390D02*
X61809524Y-61431009D01*
X61809524Y-61431009D02*
X61761905Y-61478628D01*
X61761905Y-61478628D02*
X61714286Y-61573866D01*
X61714286Y-61573866D02*
X61714286Y-61764342D01*
X61714286Y-61764342D02*
X61761905Y-61859580D01*
X61761905Y-61859580D02*
X61809524Y-61907200D01*
X61809524Y-61907200D02*
X61904762Y-61954819D01*
X61904762Y-61954819D02*
X62095238Y-61954819D01*
X62095238Y-61954819D02*
X62190476Y-61907200D01*
X62190476Y-61907200D02*
X62238095Y-61859580D01*
X62238095Y-61859580D02*
X62285714Y-61764342D01*
X62285714Y-61764342D02*
X62285714Y-61573866D01*
X62285714Y-61573866D02*
X62238095Y-61478628D01*
X62238095Y-61478628D02*
X62190476Y-61431009D01*
X62190476Y-61431009D02*
X62095238Y-61383390D01*
X81333332Y-103592800D02*
X81190475Y-103545180D01*
X81190475Y-103545180D02*
X80952380Y-103545180D01*
X80952380Y-103545180D02*
X80857142Y-103592800D01*
X80857142Y-103592800D02*
X80809523Y-103640419D01*
X80809523Y-103640419D02*
X80761904Y-103735657D01*
X80761904Y-103735657D02*
X80761904Y-103830895D01*
X80761904Y-103830895D02*
X80809523Y-103926133D01*
X80809523Y-103926133D02*
X80857142Y-103973752D01*
X80857142Y-103973752D02*
X80952380Y-104021371D01*
X80952380Y-104021371D02*
X81142856Y-104068990D01*
X81142856Y-104068990D02*
X81238094Y-104116609D01*
X81238094Y-104116609D02*
X81285713Y-104164228D01*
X81285713Y-104164228D02*
X81333332Y-104259466D01*
X81333332Y-104259466D02*
X81333332Y-104354704D01*
X81333332Y-104354704D02*
X81285713Y-104449942D01*
X81285713Y-104449942D02*
X81238094Y-104497561D01*
X81238094Y-104497561D02*
X81142856Y-104545180D01*
X81142856Y-104545180D02*
X80904761Y-104545180D01*
X80904761Y-104545180D02*
X80761904Y-104497561D01*
X80428570Y-104545180D02*
X80190475Y-103545180D01*
X80190475Y-103545180D02*
X79999999Y-104259466D01*
X79999999Y-104259466D02*
X79809523Y-103545180D01*
X79809523Y-103545180D02*
X79571428Y-104545180D01*
X79285713Y-104545180D02*
X78666666Y-104545180D01*
X78666666Y-104545180D02*
X78999999Y-104164228D01*
X78999999Y-104164228D02*
X78857142Y-104164228D01*
X78857142Y-104164228D02*
X78761904Y-104116609D01*
X78761904Y-104116609D02*
X78714285Y-104068990D01*
X78714285Y-104068990D02*
X78666666Y-103973752D01*
X78666666Y-103973752D02*
X78666666Y-103735657D01*
X78666666Y-103735657D02*
X78714285Y-103640419D01*
X78714285Y-103640419D02*
X78761904Y-103592800D01*
X78761904Y-103592800D02*
X78857142Y-103545180D01*
X78857142Y-103545180D02*
X79142856Y-103545180D01*
X79142856Y-103545180D02*
X79238094Y-103592800D01*
X79238094Y-103592800D02*
X79285713Y-103640419D01*
X50224819Y-73499523D02*
X50939104Y-73499523D01*
X50939104Y-73499523D02*
X51081961Y-73547142D01*
X51081961Y-73547142D02*
X51177200Y-73642380D01*
X51177200Y-73642380D02*
X51224819Y-73785237D01*
X51224819Y-73785237D02*
X51224819Y-73880475D01*
X50320057Y-73070951D02*
X50272438Y-73023332D01*
X50272438Y-73023332D02*
X50224819Y-72928094D01*
X50224819Y-72928094D02*
X50224819Y-72689999D01*
X50224819Y-72689999D02*
X50272438Y-72594761D01*
X50272438Y-72594761D02*
X50320057Y-72547142D01*
X50320057Y-72547142D02*
X50415295Y-72499523D01*
X50415295Y-72499523D02*
X50510533Y-72499523D01*
X50510533Y-72499523D02*
X50653390Y-72547142D01*
X50653390Y-72547142D02*
X51224819Y-73118570D01*
X51224819Y-73118570D02*
X51224819Y-72499523D01*
X51224819Y-72023332D02*
X51224819Y-71832856D01*
X51224819Y-71832856D02*
X51177200Y-71737618D01*
X51177200Y-71737618D02*
X51129580Y-71689999D01*
X51129580Y-71689999D02*
X50986723Y-71594761D01*
X50986723Y-71594761D02*
X50796247Y-71547142D01*
X50796247Y-71547142D02*
X50415295Y-71547142D01*
X50415295Y-71547142D02*
X50320057Y-71594761D01*
X50320057Y-71594761D02*
X50272438Y-71642380D01*
X50272438Y-71642380D02*
X50224819Y-71737618D01*
X50224819Y-71737618D02*
X50224819Y-71928094D01*
X50224819Y-71928094D02*
X50272438Y-72023332D01*
X50272438Y-72023332D02*
X50320057Y-72070951D01*
X50320057Y-72070951D02*
X50415295Y-72118570D01*
X50415295Y-72118570D02*
X50653390Y-72118570D01*
X50653390Y-72118570D02*
X50748628Y-72070951D01*
X50748628Y-72070951D02*
X50796247Y-72023332D01*
X50796247Y-72023332D02*
X50843866Y-71928094D01*
X50843866Y-71928094D02*
X50843866Y-71737618D01*
X50843866Y-71737618D02*
X50796247Y-71642380D01*
X50796247Y-71642380D02*
X50748628Y-71594761D01*
X50748628Y-71594761D02*
X50653390Y-71547142D01*
X81333332Y-80092800D02*
X81190475Y-80045180D01*
X81190475Y-80045180D02*
X80952380Y-80045180D01*
X80952380Y-80045180D02*
X80857142Y-80092800D01*
X80857142Y-80092800D02*
X80809523Y-80140419D01*
X80809523Y-80140419D02*
X80761904Y-80235657D01*
X80761904Y-80235657D02*
X80761904Y-80330895D01*
X80761904Y-80330895D02*
X80809523Y-80426133D01*
X80809523Y-80426133D02*
X80857142Y-80473752D01*
X80857142Y-80473752D02*
X80952380Y-80521371D01*
X80952380Y-80521371D02*
X81142856Y-80568990D01*
X81142856Y-80568990D02*
X81238094Y-80616609D01*
X81238094Y-80616609D02*
X81285713Y-80664228D01*
X81285713Y-80664228D02*
X81333332Y-80759466D01*
X81333332Y-80759466D02*
X81333332Y-80854704D01*
X81333332Y-80854704D02*
X81285713Y-80949942D01*
X81285713Y-80949942D02*
X81238094Y-80997561D01*
X81238094Y-80997561D02*
X81142856Y-81045180D01*
X81142856Y-81045180D02*
X80904761Y-81045180D01*
X80904761Y-81045180D02*
X80761904Y-80997561D01*
X80428570Y-81045180D02*
X80190475Y-80045180D01*
X80190475Y-80045180D02*
X79999999Y-80759466D01*
X79999999Y-80759466D02*
X79809523Y-80045180D01*
X79809523Y-80045180D02*
X79571428Y-81045180D01*
X79238094Y-80949942D02*
X79190475Y-80997561D01*
X79190475Y-80997561D02*
X79095237Y-81045180D01*
X79095237Y-81045180D02*
X78857142Y-81045180D01*
X78857142Y-81045180D02*
X78761904Y-80997561D01*
X78761904Y-80997561D02*
X78714285Y-80949942D01*
X78714285Y-80949942D02*
X78666666Y-80854704D01*
X78666666Y-80854704D02*
X78666666Y-80759466D01*
X78666666Y-80759466D02*
X78714285Y-80616609D01*
X78714285Y-80616609D02*
X79285713Y-80045180D01*
X79285713Y-80045180D02*
X78666666Y-80045180D01*
X96940476Y-28834819D02*
X96940476Y-29549104D01*
X96940476Y-29549104D02*
X96892857Y-29691961D01*
X96892857Y-29691961D02*
X96797619Y-29787200D01*
X96797619Y-29787200D02*
X96654762Y-29834819D01*
X96654762Y-29834819D02*
X96559524Y-29834819D01*
X97940476Y-29834819D02*
X97369048Y-29834819D01*
X97654762Y-29834819D02*
X97654762Y-28834819D01*
X97654762Y-28834819D02*
X97559524Y-28977676D01*
X97559524Y-28977676D02*
X97464286Y-29072914D01*
X97464286Y-29072914D02*
X97369048Y-29120533D01*
X98559524Y-28834819D02*
X98654762Y-28834819D01*
X98654762Y-28834819D02*
X98750000Y-28882438D01*
X98750000Y-28882438D02*
X98797619Y-28930057D01*
X98797619Y-28930057D02*
X98845238Y-29025295D01*
X98845238Y-29025295D02*
X98892857Y-29215771D01*
X98892857Y-29215771D02*
X98892857Y-29453866D01*
X98892857Y-29453866D02*
X98845238Y-29644342D01*
X98845238Y-29644342D02*
X98797619Y-29739580D01*
X98797619Y-29739580D02*
X98750000Y-29787200D01*
X98750000Y-29787200D02*
X98654762Y-29834819D01*
X98654762Y-29834819D02*
X98559524Y-29834819D01*
X98559524Y-29834819D02*
X98464286Y-29787200D01*
X98464286Y-29787200D02*
X98416667Y-29739580D01*
X98416667Y-29739580D02*
X98369048Y-29644342D01*
X98369048Y-29644342D02*
X98321429Y-29453866D01*
X98321429Y-29453866D02*
X98321429Y-29215771D01*
X98321429Y-29215771D02*
X98369048Y-29025295D01*
X98369048Y-29025295D02*
X98416667Y-28930057D01*
X98416667Y-28930057D02*
X98464286Y-28882438D01*
X98464286Y-28882438D02*
X98559524Y-28834819D01*
X48690476Y-49454819D02*
X48690476Y-50169104D01*
X48690476Y-50169104D02*
X48642857Y-50311961D01*
X48642857Y-50311961D02*
X48547619Y-50407200D01*
X48547619Y-50407200D02*
X48404762Y-50454819D01*
X48404762Y-50454819D02*
X48309524Y-50454819D01*
X49071429Y-49454819D02*
X49690476Y-49454819D01*
X49690476Y-49454819D02*
X49357143Y-49835771D01*
X49357143Y-49835771D02*
X49500000Y-49835771D01*
X49500000Y-49835771D02*
X49595238Y-49883390D01*
X49595238Y-49883390D02*
X49642857Y-49931009D01*
X49642857Y-49931009D02*
X49690476Y-50026247D01*
X49690476Y-50026247D02*
X49690476Y-50264342D01*
X49690476Y-50264342D02*
X49642857Y-50359580D01*
X49642857Y-50359580D02*
X49595238Y-50407200D01*
X49595238Y-50407200D02*
X49500000Y-50454819D01*
X49500000Y-50454819D02*
X49214286Y-50454819D01*
X49214286Y-50454819D02*
X49119048Y-50407200D01*
X49119048Y-50407200D02*
X49071429Y-50359580D01*
X50071429Y-49550057D02*
X50119048Y-49502438D01*
X50119048Y-49502438D02*
X50214286Y-49454819D01*
X50214286Y-49454819D02*
X50452381Y-49454819D01*
X50452381Y-49454819D02*
X50547619Y-49502438D01*
X50547619Y-49502438D02*
X50595238Y-49550057D01*
X50595238Y-49550057D02*
X50642857Y-49645295D01*
X50642857Y-49645295D02*
X50642857Y-49740533D01*
X50642857Y-49740533D02*
X50595238Y-49883390D01*
X50595238Y-49883390D02*
X50023810Y-50454819D01*
X50023810Y-50454819D02*
X50642857Y-50454819D01*
X83166667Y-61407200D02*
X83309524Y-61454819D01*
X83309524Y-61454819D02*
X83547619Y-61454819D01*
X83547619Y-61454819D02*
X83642857Y-61407200D01*
X83642857Y-61407200D02*
X83690476Y-61359580D01*
X83690476Y-61359580D02*
X83738095Y-61264342D01*
X83738095Y-61264342D02*
X83738095Y-61169104D01*
X83738095Y-61169104D02*
X83690476Y-61073866D01*
X83690476Y-61073866D02*
X83642857Y-61026247D01*
X83642857Y-61026247D02*
X83547619Y-60978628D01*
X83547619Y-60978628D02*
X83357143Y-60931009D01*
X83357143Y-60931009D02*
X83261905Y-60883390D01*
X83261905Y-60883390D02*
X83214286Y-60835771D01*
X83214286Y-60835771D02*
X83166667Y-60740533D01*
X83166667Y-60740533D02*
X83166667Y-60645295D01*
X83166667Y-60645295D02*
X83214286Y-60550057D01*
X83214286Y-60550057D02*
X83261905Y-60502438D01*
X83261905Y-60502438D02*
X83357143Y-60454819D01*
X83357143Y-60454819D02*
X83595238Y-60454819D01*
X83595238Y-60454819D02*
X83738095Y-60502438D01*
X84071429Y-60454819D02*
X84309524Y-61454819D01*
X84309524Y-61454819D02*
X84500000Y-60740533D01*
X84500000Y-60740533D02*
X84690476Y-61454819D01*
X84690476Y-61454819D02*
X84928572Y-60454819D01*
X85833333Y-61454819D02*
X85261905Y-61454819D01*
X85547619Y-61454819D02*
X85547619Y-60454819D01*
X85547619Y-60454819D02*
X85452381Y-60597676D01*
X85452381Y-60597676D02*
X85357143Y-60692914D01*
X85357143Y-60692914D02*
X85261905Y-60740533D01*
X58354819Y-30333333D02*
X59069104Y-30333333D01*
X59069104Y-30333333D02*
X59211961Y-30380952D01*
X59211961Y-30380952D02*
X59307200Y-30476190D01*
X59307200Y-30476190D02*
X59354819Y-30619047D01*
X59354819Y-30619047D02*
X59354819Y-30714285D01*
X58354819Y-29380952D02*
X58354819Y-29857142D01*
X58354819Y-29857142D02*
X58831009Y-29904761D01*
X58831009Y-29904761D02*
X58783390Y-29857142D01*
X58783390Y-29857142D02*
X58735771Y-29761904D01*
X58735771Y-29761904D02*
X58735771Y-29523809D01*
X58735771Y-29523809D02*
X58783390Y-29428571D01*
X58783390Y-29428571D02*
X58831009Y-29380952D01*
X58831009Y-29380952D02*
X58926247Y-29333333D01*
X58926247Y-29333333D02*
X59164342Y-29333333D01*
X59164342Y-29333333D02*
X59259580Y-29380952D01*
X59259580Y-29380952D02*
X59307200Y-29428571D01*
X59307200Y-29428571D02*
X59354819Y-29523809D01*
X59354819Y-29523809D02*
X59354819Y-29761904D01*
X59354819Y-29761904D02*
X59307200Y-29857142D01*
X59307200Y-29857142D02*
X59259580Y-29904761D01*
X46509580Y-123666666D02*
X46557200Y-123714285D01*
X46557200Y-123714285D02*
X46604819Y-123857142D01*
X46604819Y-123857142D02*
X46604819Y-123952380D01*
X46604819Y-123952380D02*
X46557200Y-124095237D01*
X46557200Y-124095237D02*
X46461961Y-124190475D01*
X46461961Y-124190475D02*
X46366723Y-124238094D01*
X46366723Y-124238094D02*
X46176247Y-124285713D01*
X46176247Y-124285713D02*
X46033390Y-124285713D01*
X46033390Y-124285713D02*
X45842914Y-124238094D01*
X45842914Y-124238094D02*
X45747676Y-124190475D01*
X45747676Y-124190475D02*
X45652438Y-124095237D01*
X45652438Y-124095237D02*
X45604819Y-123952380D01*
X45604819Y-123952380D02*
X45604819Y-123857142D01*
X45604819Y-123857142D02*
X45652438Y-123714285D01*
X45652438Y-123714285D02*
X45700057Y-123666666D01*
X45604819Y-122761904D02*
X45604819Y-123238094D01*
X45604819Y-123238094D02*
X46081009Y-123285713D01*
X46081009Y-123285713D02*
X46033390Y-123238094D01*
X46033390Y-123238094D02*
X45985771Y-123142856D01*
X45985771Y-123142856D02*
X45985771Y-122904761D01*
X45985771Y-122904761D02*
X46033390Y-122809523D01*
X46033390Y-122809523D02*
X46081009Y-122761904D01*
X46081009Y-122761904D02*
X46176247Y-122714285D01*
X46176247Y-122714285D02*
X46414342Y-122714285D01*
X46414342Y-122714285D02*
X46509580Y-122761904D01*
X46509580Y-122761904D02*
X46557200Y-122809523D01*
X46557200Y-122809523D02*
X46604819Y-122904761D01*
X46604819Y-122904761D02*
X46604819Y-123142856D01*
X46604819Y-123142856D02*
X46557200Y-123238094D01*
X46557200Y-123238094D02*
X46509580Y-123285713D01*
X68954819Y-52666666D02*
X68478628Y-52999999D01*
X68954819Y-53238094D02*
X67954819Y-53238094D01*
X67954819Y-53238094D02*
X67954819Y-52857142D01*
X67954819Y-52857142D02*
X68002438Y-52761904D01*
X68002438Y-52761904D02*
X68050057Y-52714285D01*
X68050057Y-52714285D02*
X68145295Y-52666666D01*
X68145295Y-52666666D02*
X68288152Y-52666666D01*
X68288152Y-52666666D02*
X68383390Y-52714285D01*
X68383390Y-52714285D02*
X68431009Y-52761904D01*
X68431009Y-52761904D02*
X68478628Y-52857142D01*
X68478628Y-52857142D02*
X68478628Y-53238094D01*
X67954819Y-52333332D02*
X67954819Y-51666666D01*
X67954819Y-51666666D02*
X68954819Y-52095237D01*
X46261905Y-45454819D02*
X46261905Y-44454819D01*
X46261905Y-44454819D02*
X46500000Y-44454819D01*
X46500000Y-44454819D02*
X46642857Y-44502438D01*
X46642857Y-44502438D02*
X46738095Y-44597676D01*
X46738095Y-44597676D02*
X46785714Y-44692914D01*
X46785714Y-44692914D02*
X46833333Y-44883390D01*
X46833333Y-44883390D02*
X46833333Y-45026247D01*
X46833333Y-45026247D02*
X46785714Y-45216723D01*
X46785714Y-45216723D02*
X46738095Y-45311961D01*
X46738095Y-45311961D02*
X46642857Y-45407200D01*
X46642857Y-45407200D02*
X46500000Y-45454819D01*
X46500000Y-45454819D02*
X46261905Y-45454819D01*
X47166667Y-44454819D02*
X47785714Y-44454819D01*
X47785714Y-44454819D02*
X47452381Y-44835771D01*
X47452381Y-44835771D02*
X47595238Y-44835771D01*
X47595238Y-44835771D02*
X47690476Y-44883390D01*
X47690476Y-44883390D02*
X47738095Y-44931009D01*
X47738095Y-44931009D02*
X47785714Y-45026247D01*
X47785714Y-45026247D02*
X47785714Y-45264342D01*
X47785714Y-45264342D02*
X47738095Y-45359580D01*
X47738095Y-45359580D02*
X47690476Y-45407200D01*
X47690476Y-45407200D02*
X47595238Y-45454819D01*
X47595238Y-45454819D02*
X47309524Y-45454819D01*
X47309524Y-45454819D02*
X47214286Y-45407200D01*
X47214286Y-45407200D02*
X47166667Y-45359580D01*
X89690476Y-44804819D02*
X89690476Y-45519104D01*
X89690476Y-45519104D02*
X89642857Y-45661961D01*
X89642857Y-45661961D02*
X89547619Y-45757200D01*
X89547619Y-45757200D02*
X89404762Y-45804819D01*
X89404762Y-45804819D02*
X89309524Y-45804819D01*
X90119048Y-44900057D02*
X90166667Y-44852438D01*
X90166667Y-44852438D02*
X90261905Y-44804819D01*
X90261905Y-44804819D02*
X90500000Y-44804819D01*
X90500000Y-44804819D02*
X90595238Y-44852438D01*
X90595238Y-44852438D02*
X90642857Y-44900057D01*
X90642857Y-44900057D02*
X90690476Y-44995295D01*
X90690476Y-44995295D02*
X90690476Y-45090533D01*
X90690476Y-45090533D02*
X90642857Y-45233390D01*
X90642857Y-45233390D02*
X90071429Y-45804819D01*
X90071429Y-45804819D02*
X90690476Y-45804819D01*
X91023810Y-44804819D02*
X91642857Y-44804819D01*
X91642857Y-44804819D02*
X91309524Y-45185771D01*
X91309524Y-45185771D02*
X91452381Y-45185771D01*
X91452381Y-45185771D02*
X91547619Y-45233390D01*
X91547619Y-45233390D02*
X91595238Y-45281009D01*
X91595238Y-45281009D02*
X91642857Y-45376247D01*
X91642857Y-45376247D02*
X91642857Y-45614342D01*
X91642857Y-45614342D02*
X91595238Y-45709580D01*
X91595238Y-45709580D02*
X91547619Y-45757200D01*
X91547619Y-45757200D02*
X91452381Y-45804819D01*
X91452381Y-45804819D02*
X91166667Y-45804819D01*
X91166667Y-45804819D02*
X91071429Y-45757200D01*
X91071429Y-45757200D02*
X91023810Y-45709580D01*
X28866666Y-33604819D02*
X28866666Y-34319104D01*
X28866666Y-34319104D02*
X28819047Y-34461961D01*
X28819047Y-34461961D02*
X28723809Y-34557200D01*
X28723809Y-34557200D02*
X28580952Y-34604819D01*
X28580952Y-34604819D02*
X28485714Y-34604819D01*
X29390476Y-34604819D02*
X29580952Y-34604819D01*
X29580952Y-34604819D02*
X29676190Y-34557200D01*
X29676190Y-34557200D02*
X29723809Y-34509580D01*
X29723809Y-34509580D02*
X29819047Y-34366723D01*
X29819047Y-34366723D02*
X29866666Y-34176247D01*
X29866666Y-34176247D02*
X29866666Y-33795295D01*
X29866666Y-33795295D02*
X29819047Y-33700057D01*
X29819047Y-33700057D02*
X29771428Y-33652438D01*
X29771428Y-33652438D02*
X29676190Y-33604819D01*
X29676190Y-33604819D02*
X29485714Y-33604819D01*
X29485714Y-33604819D02*
X29390476Y-33652438D01*
X29390476Y-33652438D02*
X29342857Y-33700057D01*
X29342857Y-33700057D02*
X29295238Y-33795295D01*
X29295238Y-33795295D02*
X29295238Y-34033390D01*
X29295238Y-34033390D02*
X29342857Y-34128628D01*
X29342857Y-34128628D02*
X29390476Y-34176247D01*
X29390476Y-34176247D02*
X29485714Y-34223866D01*
X29485714Y-34223866D02*
X29676190Y-34223866D01*
X29676190Y-34223866D02*
X29771428Y-34176247D01*
X29771428Y-34176247D02*
X29819047Y-34128628D01*
X29819047Y-34128628D02*
X29866666Y-34033390D01*
X49824819Y-131166666D02*
X49348628Y-131499999D01*
X49824819Y-131738094D02*
X48824819Y-131738094D01*
X48824819Y-131738094D02*
X48824819Y-131357142D01*
X48824819Y-131357142D02*
X48872438Y-131261904D01*
X48872438Y-131261904D02*
X48920057Y-131214285D01*
X48920057Y-131214285D02*
X49015295Y-131166666D01*
X49015295Y-131166666D02*
X49158152Y-131166666D01*
X49158152Y-131166666D02*
X49253390Y-131214285D01*
X49253390Y-131214285D02*
X49301009Y-131261904D01*
X49301009Y-131261904D02*
X49348628Y-131357142D01*
X49348628Y-131357142D02*
X49348628Y-131738094D01*
X48920057Y-130785713D02*
X48872438Y-130738094D01*
X48872438Y-130738094D02*
X48824819Y-130642856D01*
X48824819Y-130642856D02*
X48824819Y-130404761D01*
X48824819Y-130404761D02*
X48872438Y-130309523D01*
X48872438Y-130309523D02*
X48920057Y-130261904D01*
X48920057Y-130261904D02*
X49015295Y-130214285D01*
X49015295Y-130214285D02*
X49110533Y-130214285D01*
X49110533Y-130214285D02*
X49253390Y-130261904D01*
X49253390Y-130261904D02*
X49824819Y-130833332D01*
X49824819Y-130833332D02*
X49824819Y-130214285D01*
X56058095Y-96269819D02*
X56058095Y-97079342D01*
X56058095Y-97079342D02*
X56105714Y-97174580D01*
X56105714Y-97174580D02*
X56153333Y-97222200D01*
X56153333Y-97222200D02*
X56248571Y-97269819D01*
X56248571Y-97269819D02*
X56439047Y-97269819D01*
X56439047Y-97269819D02*
X56534285Y-97222200D01*
X56534285Y-97222200D02*
X56581904Y-97174580D01*
X56581904Y-97174580D02*
X56629523Y-97079342D01*
X56629523Y-97079342D02*
X56629523Y-96269819D01*
X57629523Y-97269819D02*
X57058095Y-97269819D01*
X57343809Y-97269819D02*
X57343809Y-96269819D01*
X57343809Y-96269819D02*
X57248571Y-96412676D01*
X57248571Y-96412676D02*
X57153333Y-96507914D01*
X57153333Y-96507914D02*
X57058095Y-96555533D01*
X50744819Y-126559523D02*
X51459104Y-126559523D01*
X51459104Y-126559523D02*
X51601961Y-126607142D01*
X51601961Y-126607142D02*
X51697200Y-126702380D01*
X51697200Y-126702380D02*
X51744819Y-126845237D01*
X51744819Y-126845237D02*
X51744819Y-126940475D01*
X51744819Y-125559523D02*
X51744819Y-126130951D01*
X51744819Y-125845237D02*
X50744819Y-125845237D01*
X50744819Y-125845237D02*
X50887676Y-125940475D01*
X50887676Y-125940475D02*
X50982914Y-126035713D01*
X50982914Y-126035713D02*
X51030533Y-126130951D01*
X50744819Y-125226189D02*
X50744819Y-124607142D01*
X50744819Y-124607142D02*
X51125771Y-124940475D01*
X51125771Y-124940475D02*
X51125771Y-124797618D01*
X51125771Y-124797618D02*
X51173390Y-124702380D01*
X51173390Y-124702380D02*
X51221009Y-124654761D01*
X51221009Y-124654761D02*
X51316247Y-124607142D01*
X51316247Y-124607142D02*
X51554342Y-124607142D01*
X51554342Y-124607142D02*
X51649580Y-124654761D01*
X51649580Y-124654761D02*
X51697200Y-124702380D01*
X51697200Y-124702380D02*
X51744819Y-124797618D01*
X51744819Y-124797618D02*
X51744819Y-125083332D01*
X51744819Y-125083332D02*
X51697200Y-125178570D01*
X51697200Y-125178570D02*
X51649580Y-125226189D01*
X89665476Y-59749819D02*
X89665476Y-60464104D01*
X89665476Y-60464104D02*
X89617857Y-60606961D01*
X89617857Y-60606961D02*
X89522619Y-60702200D01*
X89522619Y-60702200D02*
X89379762Y-60749819D01*
X89379762Y-60749819D02*
X89284524Y-60749819D01*
X90094048Y-59845057D02*
X90141667Y-59797438D01*
X90141667Y-59797438D02*
X90236905Y-59749819D01*
X90236905Y-59749819D02*
X90475000Y-59749819D01*
X90475000Y-59749819D02*
X90570238Y-59797438D01*
X90570238Y-59797438D02*
X90617857Y-59845057D01*
X90617857Y-59845057D02*
X90665476Y-59940295D01*
X90665476Y-59940295D02*
X90665476Y-60035533D01*
X90665476Y-60035533D02*
X90617857Y-60178390D01*
X90617857Y-60178390D02*
X90046429Y-60749819D01*
X90046429Y-60749819D02*
X90665476Y-60749819D01*
X91046429Y-59845057D02*
X91094048Y-59797438D01*
X91094048Y-59797438D02*
X91189286Y-59749819D01*
X91189286Y-59749819D02*
X91427381Y-59749819D01*
X91427381Y-59749819D02*
X91522619Y-59797438D01*
X91522619Y-59797438D02*
X91570238Y-59845057D01*
X91570238Y-59845057D02*
X91617857Y-59940295D01*
X91617857Y-59940295D02*
X91617857Y-60035533D01*
X91617857Y-60035533D02*
X91570238Y-60178390D01*
X91570238Y-60178390D02*
X90998810Y-60749819D01*
X90998810Y-60749819D02*
X91617857Y-60749819D01*
X38354819Y-30333333D02*
X39069104Y-30333333D01*
X39069104Y-30333333D02*
X39211961Y-30380952D01*
X39211961Y-30380952D02*
X39307200Y-30476190D01*
X39307200Y-30476190D02*
X39354819Y-30619047D01*
X39354819Y-30619047D02*
X39354819Y-30714285D01*
X38354819Y-29428571D02*
X38354819Y-29619047D01*
X38354819Y-29619047D02*
X38402438Y-29714285D01*
X38402438Y-29714285D02*
X38450057Y-29761904D01*
X38450057Y-29761904D02*
X38592914Y-29857142D01*
X38592914Y-29857142D02*
X38783390Y-29904761D01*
X38783390Y-29904761D02*
X39164342Y-29904761D01*
X39164342Y-29904761D02*
X39259580Y-29857142D01*
X39259580Y-29857142D02*
X39307200Y-29809523D01*
X39307200Y-29809523D02*
X39354819Y-29714285D01*
X39354819Y-29714285D02*
X39354819Y-29523809D01*
X39354819Y-29523809D02*
X39307200Y-29428571D01*
X39307200Y-29428571D02*
X39259580Y-29380952D01*
X39259580Y-29380952D02*
X39164342Y-29333333D01*
X39164342Y-29333333D02*
X38926247Y-29333333D01*
X38926247Y-29333333D02*
X38831009Y-29380952D01*
X38831009Y-29380952D02*
X38783390Y-29428571D01*
X38783390Y-29428571D02*
X38735771Y-29523809D01*
X38735771Y-29523809D02*
X38735771Y-29714285D01*
X38735771Y-29714285D02*
X38783390Y-29809523D01*
X38783390Y-29809523D02*
X38831009Y-29857142D01*
X38831009Y-29857142D02*
X38926247Y-29904761D01*
X89690476Y-129344819D02*
X89690476Y-130059104D01*
X89690476Y-130059104D02*
X89642857Y-130201961D01*
X89642857Y-130201961D02*
X89547619Y-130297200D01*
X89547619Y-130297200D02*
X89404762Y-130344819D01*
X89404762Y-130344819D02*
X89309524Y-130344819D01*
X90690476Y-130344819D02*
X90119048Y-130344819D01*
X90404762Y-130344819D02*
X90404762Y-129344819D01*
X90404762Y-129344819D02*
X90309524Y-129487676D01*
X90309524Y-129487676D02*
X90214286Y-129582914D01*
X90214286Y-129582914D02*
X90119048Y-129630533D01*
X91595238Y-129344819D02*
X91119048Y-129344819D01*
X91119048Y-129344819D02*
X91071429Y-129821009D01*
X91071429Y-129821009D02*
X91119048Y-129773390D01*
X91119048Y-129773390D02*
X91214286Y-129725771D01*
X91214286Y-129725771D02*
X91452381Y-129725771D01*
X91452381Y-129725771D02*
X91547619Y-129773390D01*
X91547619Y-129773390D02*
X91595238Y-129821009D01*
X91595238Y-129821009D02*
X91642857Y-129916247D01*
X91642857Y-129916247D02*
X91642857Y-130154342D01*
X91642857Y-130154342D02*
X91595238Y-130249580D01*
X91595238Y-130249580D02*
X91547619Y-130297200D01*
X91547619Y-130297200D02*
X91452381Y-130344819D01*
X91452381Y-130344819D02*
X91214286Y-130344819D01*
X91214286Y-130344819D02*
X91119048Y-130297200D01*
X91119048Y-130297200D02*
X91071429Y-130249580D01*
X60833333Y-95359580D02*
X60785714Y-95407200D01*
X60785714Y-95407200D02*
X60642857Y-95454819D01*
X60642857Y-95454819D02*
X60547619Y-95454819D01*
X60547619Y-95454819D02*
X60404762Y-95407200D01*
X60404762Y-95407200D02*
X60309524Y-95311961D01*
X60309524Y-95311961D02*
X60261905Y-95216723D01*
X60261905Y-95216723D02*
X60214286Y-95026247D01*
X60214286Y-95026247D02*
X60214286Y-94883390D01*
X60214286Y-94883390D02*
X60261905Y-94692914D01*
X60261905Y-94692914D02*
X60309524Y-94597676D01*
X60309524Y-94597676D02*
X60404762Y-94502438D01*
X60404762Y-94502438D02*
X60547619Y-94454819D01*
X60547619Y-94454819D02*
X60642857Y-94454819D01*
X60642857Y-94454819D02*
X60785714Y-94502438D01*
X60785714Y-94502438D02*
X60833333Y-94550057D01*
X61690476Y-94788152D02*
X61690476Y-95454819D01*
X61452381Y-94407200D02*
X61214286Y-95121485D01*
X61214286Y-95121485D02*
X61833333Y-95121485D01*
X58738095Y-59454819D02*
X58738095Y-60264342D01*
X58738095Y-60264342D02*
X58785714Y-60359580D01*
X58785714Y-60359580D02*
X58833333Y-60407200D01*
X58833333Y-60407200D02*
X58928571Y-60454819D01*
X58928571Y-60454819D02*
X59119047Y-60454819D01*
X59119047Y-60454819D02*
X59214285Y-60407200D01*
X59214285Y-60407200D02*
X59261904Y-60359580D01*
X59261904Y-60359580D02*
X59309523Y-60264342D01*
X59309523Y-60264342D02*
X59309523Y-59454819D01*
X59738095Y-59550057D02*
X59785714Y-59502438D01*
X59785714Y-59502438D02*
X59880952Y-59454819D01*
X59880952Y-59454819D02*
X60119047Y-59454819D01*
X60119047Y-59454819D02*
X60214285Y-59502438D01*
X60214285Y-59502438D02*
X60261904Y-59550057D01*
X60261904Y-59550057D02*
X60309523Y-59645295D01*
X60309523Y-59645295D02*
X60309523Y-59740533D01*
X60309523Y-59740533D02*
X60261904Y-59883390D01*
X60261904Y-59883390D02*
X59690476Y-60454819D01*
X59690476Y-60454819D02*
X60309523Y-60454819D01*
X84764819Y-73499523D02*
X85479104Y-73499523D01*
X85479104Y-73499523D02*
X85621961Y-73547142D01*
X85621961Y-73547142D02*
X85717200Y-73642380D01*
X85717200Y-73642380D02*
X85764819Y-73785237D01*
X85764819Y-73785237D02*
X85764819Y-73880475D01*
X84860057Y-73070951D02*
X84812438Y-73023332D01*
X84812438Y-73023332D02*
X84764819Y-72928094D01*
X84764819Y-72928094D02*
X84764819Y-72689999D01*
X84764819Y-72689999D02*
X84812438Y-72594761D01*
X84812438Y-72594761D02*
X84860057Y-72547142D01*
X84860057Y-72547142D02*
X84955295Y-72499523D01*
X84955295Y-72499523D02*
X85050533Y-72499523D01*
X85050533Y-72499523D02*
X85193390Y-72547142D01*
X85193390Y-72547142D02*
X85764819Y-73118570D01*
X85764819Y-73118570D02*
X85764819Y-72499523D01*
X84764819Y-71594761D02*
X84764819Y-72070951D01*
X84764819Y-72070951D02*
X85241009Y-72118570D01*
X85241009Y-72118570D02*
X85193390Y-72070951D01*
X85193390Y-72070951D02*
X85145771Y-71975713D01*
X85145771Y-71975713D02*
X85145771Y-71737618D01*
X85145771Y-71737618D02*
X85193390Y-71642380D01*
X85193390Y-71642380D02*
X85241009Y-71594761D01*
X85241009Y-71594761D02*
X85336247Y-71547142D01*
X85336247Y-71547142D02*
X85574342Y-71547142D01*
X85574342Y-71547142D02*
X85669580Y-71594761D01*
X85669580Y-71594761D02*
X85717200Y-71642380D01*
X85717200Y-71642380D02*
X85764819Y-71737618D01*
X85764819Y-71737618D02*
X85764819Y-71975713D01*
X85764819Y-71975713D02*
X85717200Y-72070951D01*
X85717200Y-72070951D02*
X85669580Y-72118570D01*
X28940476Y-54014819D02*
X28940476Y-54729104D01*
X28940476Y-54729104D02*
X28892857Y-54871961D01*
X28892857Y-54871961D02*
X28797619Y-54967200D01*
X28797619Y-54967200D02*
X28654762Y-55014819D01*
X28654762Y-55014819D02*
X28559524Y-55014819D01*
X29940476Y-55014819D02*
X29369048Y-55014819D01*
X29654762Y-55014819D02*
X29654762Y-54014819D01*
X29654762Y-54014819D02*
X29559524Y-54157676D01*
X29559524Y-54157676D02*
X29464286Y-54252914D01*
X29464286Y-54252914D02*
X29369048Y-54300533D01*
X30511905Y-54443390D02*
X30416667Y-54395771D01*
X30416667Y-54395771D02*
X30369048Y-54348152D01*
X30369048Y-54348152D02*
X30321429Y-54252914D01*
X30321429Y-54252914D02*
X30321429Y-54205295D01*
X30321429Y-54205295D02*
X30369048Y-54110057D01*
X30369048Y-54110057D02*
X30416667Y-54062438D01*
X30416667Y-54062438D02*
X30511905Y-54014819D01*
X30511905Y-54014819D02*
X30702381Y-54014819D01*
X30702381Y-54014819D02*
X30797619Y-54062438D01*
X30797619Y-54062438D02*
X30845238Y-54110057D01*
X30845238Y-54110057D02*
X30892857Y-54205295D01*
X30892857Y-54205295D02*
X30892857Y-54252914D01*
X30892857Y-54252914D02*
X30845238Y-54348152D01*
X30845238Y-54348152D02*
X30797619Y-54395771D01*
X30797619Y-54395771D02*
X30702381Y-54443390D01*
X30702381Y-54443390D02*
X30511905Y-54443390D01*
X30511905Y-54443390D02*
X30416667Y-54491009D01*
X30416667Y-54491009D02*
X30369048Y-54538628D01*
X30369048Y-54538628D02*
X30321429Y-54633866D01*
X30321429Y-54633866D02*
X30321429Y-54824342D01*
X30321429Y-54824342D02*
X30369048Y-54919580D01*
X30369048Y-54919580D02*
X30416667Y-54967200D01*
X30416667Y-54967200D02*
X30511905Y-55014819D01*
X30511905Y-55014819D02*
X30702381Y-55014819D01*
X30702381Y-55014819D02*
X30797619Y-54967200D01*
X30797619Y-54967200D02*
X30845238Y-54919580D01*
X30845238Y-54919580D02*
X30892857Y-54824342D01*
X30892857Y-54824342D02*
X30892857Y-54633866D01*
X30892857Y-54633866D02*
X30845238Y-54538628D01*
X30845238Y-54538628D02*
X30797619Y-54491009D01*
X30797619Y-54491009D02*
X30702381Y-54443390D01*
X88133333Y-143495180D02*
X88133333Y-142780895D01*
X88133333Y-142780895D02*
X88180952Y-142638038D01*
X88180952Y-142638038D02*
X88276190Y-142542800D01*
X88276190Y-142542800D02*
X88419047Y-142495180D01*
X88419047Y-142495180D02*
X88514285Y-142495180D01*
X87752380Y-143495180D02*
X87085714Y-143495180D01*
X87085714Y-143495180D02*
X87514285Y-142495180D01*
X28965476Y-82134819D02*
X28965476Y-82849104D01*
X28965476Y-82849104D02*
X28917857Y-82991961D01*
X28917857Y-82991961D02*
X28822619Y-83087200D01*
X28822619Y-83087200D02*
X28679762Y-83134819D01*
X28679762Y-83134819D02*
X28584524Y-83134819D01*
X29965476Y-83134819D02*
X29394048Y-83134819D01*
X29679762Y-83134819D02*
X29679762Y-82134819D01*
X29679762Y-82134819D02*
X29584524Y-82277676D01*
X29584524Y-82277676D02*
X29489286Y-82372914D01*
X29489286Y-82372914D02*
X29394048Y-82420533D01*
X30346429Y-82230057D02*
X30394048Y-82182438D01*
X30394048Y-82182438D02*
X30489286Y-82134819D01*
X30489286Y-82134819D02*
X30727381Y-82134819D01*
X30727381Y-82134819D02*
X30822619Y-82182438D01*
X30822619Y-82182438D02*
X30870238Y-82230057D01*
X30870238Y-82230057D02*
X30917857Y-82325295D01*
X30917857Y-82325295D02*
X30917857Y-82420533D01*
X30917857Y-82420533D02*
X30870238Y-82563390D01*
X30870238Y-82563390D02*
X30298810Y-83134819D01*
X30298810Y-83134819D02*
X30917857Y-83134819D01*
X56805933Y-48859580D02*
X56758314Y-48907200D01*
X56758314Y-48907200D02*
X56615457Y-48954819D01*
X56615457Y-48954819D02*
X56520219Y-48954819D01*
X56520219Y-48954819D02*
X56377362Y-48907200D01*
X56377362Y-48907200D02*
X56282124Y-48811961D01*
X56282124Y-48811961D02*
X56234505Y-48716723D01*
X56234505Y-48716723D02*
X56186886Y-48526247D01*
X56186886Y-48526247D02*
X56186886Y-48383390D01*
X56186886Y-48383390D02*
X56234505Y-48192914D01*
X56234505Y-48192914D02*
X56282124Y-48097676D01*
X56282124Y-48097676D02*
X56377362Y-48002438D01*
X56377362Y-48002438D02*
X56520219Y-47954819D01*
X56520219Y-47954819D02*
X56615457Y-47954819D01*
X56615457Y-47954819D02*
X56758314Y-48002438D01*
X56758314Y-48002438D02*
X56805933Y-48050057D01*
X57377362Y-48383390D02*
X57282124Y-48335771D01*
X57282124Y-48335771D02*
X57234505Y-48288152D01*
X57234505Y-48288152D02*
X57186886Y-48192914D01*
X57186886Y-48192914D02*
X57186886Y-48145295D01*
X57186886Y-48145295D02*
X57234505Y-48050057D01*
X57234505Y-48050057D02*
X57282124Y-48002438D01*
X57282124Y-48002438D02*
X57377362Y-47954819D01*
X57377362Y-47954819D02*
X57567838Y-47954819D01*
X57567838Y-47954819D02*
X57663076Y-48002438D01*
X57663076Y-48002438D02*
X57710695Y-48050057D01*
X57710695Y-48050057D02*
X57758314Y-48145295D01*
X57758314Y-48145295D02*
X57758314Y-48192914D01*
X57758314Y-48192914D02*
X57710695Y-48288152D01*
X57710695Y-48288152D02*
X57663076Y-48335771D01*
X57663076Y-48335771D02*
X57567838Y-48383390D01*
X57567838Y-48383390D02*
X57377362Y-48383390D01*
X57377362Y-48383390D02*
X57282124Y-48431009D01*
X57282124Y-48431009D02*
X57234505Y-48478628D01*
X57234505Y-48478628D02*
X57186886Y-48573866D01*
X57186886Y-48573866D02*
X57186886Y-48764342D01*
X57186886Y-48764342D02*
X57234505Y-48859580D01*
X57234505Y-48859580D02*
X57282124Y-48907200D01*
X57282124Y-48907200D02*
X57377362Y-48954819D01*
X57377362Y-48954819D02*
X57567838Y-48954819D01*
X57567838Y-48954819D02*
X57663076Y-48907200D01*
X57663076Y-48907200D02*
X57710695Y-48859580D01*
X57710695Y-48859580D02*
X57758314Y-48764342D01*
X57758314Y-48764342D02*
X57758314Y-48573866D01*
X57758314Y-48573866D02*
X57710695Y-48478628D01*
X57710695Y-48478628D02*
X57663076Y-48431009D01*
X57663076Y-48431009D02*
X57567838Y-48383390D01*
X50264819Y-96499523D02*
X50979104Y-96499523D01*
X50979104Y-96499523D02*
X51121961Y-96547142D01*
X51121961Y-96547142D02*
X51217200Y-96642380D01*
X51217200Y-96642380D02*
X51264819Y-96785237D01*
X51264819Y-96785237D02*
X51264819Y-96880475D01*
X50264819Y-96118570D02*
X50264819Y-95499523D01*
X50264819Y-95499523D02*
X50645771Y-95832856D01*
X50645771Y-95832856D02*
X50645771Y-95689999D01*
X50645771Y-95689999D02*
X50693390Y-95594761D01*
X50693390Y-95594761D02*
X50741009Y-95547142D01*
X50741009Y-95547142D02*
X50836247Y-95499523D01*
X50836247Y-95499523D02*
X51074342Y-95499523D01*
X51074342Y-95499523D02*
X51169580Y-95547142D01*
X51169580Y-95547142D02*
X51217200Y-95594761D01*
X51217200Y-95594761D02*
X51264819Y-95689999D01*
X51264819Y-95689999D02*
X51264819Y-95975713D01*
X51264819Y-95975713D02*
X51217200Y-96070951D01*
X51217200Y-96070951D02*
X51169580Y-96118570D01*
X51264819Y-94547142D02*
X51264819Y-95118570D01*
X51264819Y-94832856D02*
X50264819Y-94832856D01*
X50264819Y-94832856D02*
X50407676Y-94928094D01*
X50407676Y-94928094D02*
X50502914Y-95023332D01*
X50502914Y-95023332D02*
X50550533Y-95118570D01*
X102674819Y-110309523D02*
X103389104Y-110309523D01*
X103389104Y-110309523D02*
X103531961Y-110357142D01*
X103531961Y-110357142D02*
X103627200Y-110452380D01*
X103627200Y-110452380D02*
X103674819Y-110595237D01*
X103674819Y-110595237D02*
X103674819Y-110690475D01*
X103674819Y-109309523D02*
X103674819Y-109880951D01*
X103674819Y-109595237D02*
X102674819Y-109595237D01*
X102674819Y-109595237D02*
X102817676Y-109690475D01*
X102817676Y-109690475D02*
X102912914Y-109785713D01*
X102912914Y-109785713D02*
X102960533Y-109880951D01*
X103008152Y-108452380D02*
X103674819Y-108452380D01*
X102627200Y-108690475D02*
X103341485Y-108928570D01*
X103341485Y-108928570D02*
X103341485Y-108309523D01*
X65633333Y-90059580D02*
X65585714Y-90107200D01*
X65585714Y-90107200D02*
X65442857Y-90154819D01*
X65442857Y-90154819D02*
X65347619Y-90154819D01*
X65347619Y-90154819D02*
X65204762Y-90107200D01*
X65204762Y-90107200D02*
X65109524Y-90011961D01*
X65109524Y-90011961D02*
X65061905Y-89916723D01*
X65061905Y-89916723D02*
X65014286Y-89726247D01*
X65014286Y-89726247D02*
X65014286Y-89583390D01*
X65014286Y-89583390D02*
X65061905Y-89392914D01*
X65061905Y-89392914D02*
X65109524Y-89297676D01*
X65109524Y-89297676D02*
X65204762Y-89202438D01*
X65204762Y-89202438D02*
X65347619Y-89154819D01*
X65347619Y-89154819D02*
X65442857Y-89154819D01*
X65442857Y-89154819D02*
X65585714Y-89202438D01*
X65585714Y-89202438D02*
X65633333Y-89250057D01*
X65966667Y-89154819D02*
X66585714Y-89154819D01*
X66585714Y-89154819D02*
X66252381Y-89535771D01*
X66252381Y-89535771D02*
X66395238Y-89535771D01*
X66395238Y-89535771D02*
X66490476Y-89583390D01*
X66490476Y-89583390D02*
X66538095Y-89631009D01*
X66538095Y-89631009D02*
X66585714Y-89726247D01*
X66585714Y-89726247D02*
X66585714Y-89964342D01*
X66585714Y-89964342D02*
X66538095Y-90059580D01*
X66538095Y-90059580D02*
X66490476Y-90107200D01*
X66490476Y-90107200D02*
X66395238Y-90154819D01*
X66395238Y-90154819D02*
X66109524Y-90154819D01*
X66109524Y-90154819D02*
X66014286Y-90107200D01*
X66014286Y-90107200D02*
X65966667Y-90059580D01*
X89690476Y-111264819D02*
X89690476Y-111979104D01*
X89690476Y-111979104D02*
X89642857Y-112121961D01*
X89642857Y-112121961D02*
X89547619Y-112217200D01*
X89547619Y-112217200D02*
X89404762Y-112264819D01*
X89404762Y-112264819D02*
X89309524Y-112264819D01*
X90690476Y-112264819D02*
X90119048Y-112264819D01*
X90404762Y-112264819D02*
X90404762Y-111264819D01*
X90404762Y-111264819D02*
X90309524Y-111407676D01*
X90309524Y-111407676D02*
X90214286Y-111502914D01*
X90214286Y-111502914D02*
X90119048Y-111550533D01*
X91547619Y-111264819D02*
X91357143Y-111264819D01*
X91357143Y-111264819D02*
X91261905Y-111312438D01*
X91261905Y-111312438D02*
X91214286Y-111360057D01*
X91214286Y-111360057D02*
X91119048Y-111502914D01*
X91119048Y-111502914D02*
X91071429Y-111693390D01*
X91071429Y-111693390D02*
X91071429Y-112074342D01*
X91071429Y-112074342D02*
X91119048Y-112169580D01*
X91119048Y-112169580D02*
X91166667Y-112217200D01*
X91166667Y-112217200D02*
X91261905Y-112264819D01*
X91261905Y-112264819D02*
X91452381Y-112264819D01*
X91452381Y-112264819D02*
X91547619Y-112217200D01*
X91547619Y-112217200D02*
X91595238Y-112169580D01*
X91595238Y-112169580D02*
X91642857Y-112074342D01*
X91642857Y-112074342D02*
X91642857Y-111836247D01*
X91642857Y-111836247D02*
X91595238Y-111741009D01*
X91595238Y-111741009D02*
X91547619Y-111693390D01*
X91547619Y-111693390D02*
X91452381Y-111645771D01*
X91452381Y-111645771D02*
X91261905Y-111645771D01*
X91261905Y-111645771D02*
X91166667Y-111693390D01*
X91166667Y-111693390D02*
X91119048Y-111741009D01*
X91119048Y-111741009D02*
X91071429Y-111836247D01*
X89690476Y-96764819D02*
X89690476Y-97479104D01*
X89690476Y-97479104D02*
X89642857Y-97621961D01*
X89642857Y-97621961D02*
X89547619Y-97717200D01*
X89547619Y-97717200D02*
X89404762Y-97764819D01*
X89404762Y-97764819D02*
X89309524Y-97764819D01*
X90690476Y-97764819D02*
X90119048Y-97764819D01*
X90404762Y-97764819D02*
X90404762Y-96764819D01*
X90404762Y-96764819D02*
X90309524Y-96907676D01*
X90309524Y-96907676D02*
X90214286Y-97002914D01*
X90214286Y-97002914D02*
X90119048Y-97050533D01*
X91023810Y-96764819D02*
X91690476Y-96764819D01*
X91690476Y-96764819D02*
X91261905Y-97764819D01*
X62494819Y-141468094D02*
X61494819Y-141468094D01*
X61494819Y-141468094D02*
X61494819Y-141229999D01*
X61494819Y-141229999D02*
X61542438Y-141087142D01*
X61542438Y-141087142D02*
X61637676Y-140991904D01*
X61637676Y-140991904D02*
X61732914Y-140944285D01*
X61732914Y-140944285D02*
X61923390Y-140896666D01*
X61923390Y-140896666D02*
X62066247Y-140896666D01*
X62066247Y-140896666D02*
X62256723Y-140944285D01*
X62256723Y-140944285D02*
X62351961Y-140991904D01*
X62351961Y-140991904D02*
X62447200Y-141087142D01*
X62447200Y-141087142D02*
X62494819Y-141229999D01*
X62494819Y-141229999D02*
X62494819Y-141468094D01*
X62494819Y-139944285D02*
X62494819Y-140515713D01*
X62494819Y-140229999D02*
X61494819Y-140229999D01*
X61494819Y-140229999D02*
X61637676Y-140325237D01*
X61637676Y-140325237D02*
X61732914Y-140420475D01*
X61732914Y-140420475D02*
X61780533Y-140515713D01*
X47253333Y-118954819D02*
X46920000Y-118478628D01*
X46681905Y-118954819D02*
X46681905Y-117954819D01*
X46681905Y-117954819D02*
X47062857Y-117954819D01*
X47062857Y-117954819D02*
X47158095Y-118002438D01*
X47158095Y-118002438D02*
X47205714Y-118050057D01*
X47205714Y-118050057D02*
X47253333Y-118145295D01*
X47253333Y-118145295D02*
X47253333Y-118288152D01*
X47253333Y-118288152D02*
X47205714Y-118383390D01*
X47205714Y-118383390D02*
X47158095Y-118431009D01*
X47158095Y-118431009D02*
X47062857Y-118478628D01*
X47062857Y-118478628D02*
X46681905Y-118478628D01*
X48110476Y-118288152D02*
X48110476Y-118954819D01*
X47872381Y-117907200D02*
X47634286Y-118621485D01*
X47634286Y-118621485D02*
X48253333Y-118621485D01*
X62927419Y-52666666D02*
X62451228Y-52999999D01*
X62927419Y-53238094D02*
X61927419Y-53238094D01*
X61927419Y-53238094D02*
X61927419Y-52857142D01*
X61927419Y-52857142D02*
X61975038Y-52761904D01*
X61975038Y-52761904D02*
X62022657Y-52714285D01*
X62022657Y-52714285D02*
X62117895Y-52666666D01*
X62117895Y-52666666D02*
X62260752Y-52666666D01*
X62260752Y-52666666D02*
X62355990Y-52714285D01*
X62355990Y-52714285D02*
X62403609Y-52761904D01*
X62403609Y-52761904D02*
X62451228Y-52857142D01*
X62451228Y-52857142D02*
X62451228Y-53238094D01*
X61927419Y-52333332D02*
X61927419Y-51714285D01*
X61927419Y-51714285D02*
X62308371Y-52047618D01*
X62308371Y-52047618D02*
X62308371Y-51904761D01*
X62308371Y-51904761D02*
X62355990Y-51809523D01*
X62355990Y-51809523D02*
X62403609Y-51761904D01*
X62403609Y-51761904D02*
X62498847Y-51714285D01*
X62498847Y-51714285D02*
X62736942Y-51714285D01*
X62736942Y-51714285D02*
X62832180Y-51761904D01*
X62832180Y-51761904D02*
X62879800Y-51809523D01*
X62879800Y-51809523D02*
X62927419Y-51904761D01*
X62927419Y-51904761D02*
X62927419Y-52190475D01*
X62927419Y-52190475D02*
X62879800Y-52285713D01*
X62879800Y-52285713D02*
X62832180Y-52333332D01*
X60783333Y-106959580D02*
X60735714Y-107007200D01*
X60735714Y-107007200D02*
X60592857Y-107054819D01*
X60592857Y-107054819D02*
X60497619Y-107054819D01*
X60497619Y-107054819D02*
X60354762Y-107007200D01*
X60354762Y-107007200D02*
X60259524Y-106911961D01*
X60259524Y-106911961D02*
X60211905Y-106816723D01*
X60211905Y-106816723D02*
X60164286Y-106626247D01*
X60164286Y-106626247D02*
X60164286Y-106483390D01*
X60164286Y-106483390D02*
X60211905Y-106292914D01*
X60211905Y-106292914D02*
X60259524Y-106197676D01*
X60259524Y-106197676D02*
X60354762Y-106102438D01*
X60354762Y-106102438D02*
X60497619Y-106054819D01*
X60497619Y-106054819D02*
X60592857Y-106054819D01*
X60592857Y-106054819D02*
X60735714Y-106102438D01*
X60735714Y-106102438D02*
X60783333Y-106150057D01*
X61164286Y-106150057D02*
X61211905Y-106102438D01*
X61211905Y-106102438D02*
X61307143Y-106054819D01*
X61307143Y-106054819D02*
X61545238Y-106054819D01*
X61545238Y-106054819D02*
X61640476Y-106102438D01*
X61640476Y-106102438D02*
X61688095Y-106150057D01*
X61688095Y-106150057D02*
X61735714Y-106245295D01*
X61735714Y-106245295D02*
X61735714Y-106340533D01*
X61735714Y-106340533D02*
X61688095Y-106483390D01*
X61688095Y-106483390D02*
X61116667Y-107054819D01*
X61116667Y-107054819D02*
X61735714Y-107054819D01*
X50264819Y-111999523D02*
X50979104Y-111999523D01*
X50979104Y-111999523D02*
X51121961Y-112047142D01*
X51121961Y-112047142D02*
X51217200Y-112142380D01*
X51217200Y-112142380D02*
X51264819Y-112285237D01*
X51264819Y-112285237D02*
X51264819Y-112380475D01*
X50264819Y-111618570D02*
X50264819Y-110999523D01*
X50264819Y-110999523D02*
X50645771Y-111332856D01*
X50645771Y-111332856D02*
X50645771Y-111189999D01*
X50645771Y-111189999D02*
X50693390Y-111094761D01*
X50693390Y-111094761D02*
X50741009Y-111047142D01*
X50741009Y-111047142D02*
X50836247Y-110999523D01*
X50836247Y-110999523D02*
X51074342Y-110999523D01*
X51074342Y-110999523D02*
X51169580Y-111047142D01*
X51169580Y-111047142D02*
X51217200Y-111094761D01*
X51217200Y-111094761D02*
X51264819Y-111189999D01*
X51264819Y-111189999D02*
X51264819Y-111475713D01*
X51264819Y-111475713D02*
X51217200Y-111570951D01*
X51217200Y-111570951D02*
X51169580Y-111618570D01*
X50264819Y-110380475D02*
X50264819Y-110285237D01*
X50264819Y-110285237D02*
X50312438Y-110189999D01*
X50312438Y-110189999D02*
X50360057Y-110142380D01*
X50360057Y-110142380D02*
X50455295Y-110094761D01*
X50455295Y-110094761D02*
X50645771Y-110047142D01*
X50645771Y-110047142D02*
X50883866Y-110047142D01*
X50883866Y-110047142D02*
X51074342Y-110094761D01*
X51074342Y-110094761D02*
X51169580Y-110142380D01*
X51169580Y-110142380D02*
X51217200Y-110189999D01*
X51217200Y-110189999D02*
X51264819Y-110285237D01*
X51264819Y-110285237D02*
X51264819Y-110380475D01*
X51264819Y-110380475D02*
X51217200Y-110475713D01*
X51217200Y-110475713D02*
X51169580Y-110523332D01*
X51169580Y-110523332D02*
X51074342Y-110570951D01*
X51074342Y-110570951D02*
X50883866Y-110618570D01*
X50883866Y-110618570D02*
X50645771Y-110618570D01*
X50645771Y-110618570D02*
X50455295Y-110570951D01*
X50455295Y-110570951D02*
X50360057Y-110523332D01*
X50360057Y-110523332D02*
X50312438Y-110475713D01*
X50312438Y-110475713D02*
X50264819Y-110380475D01*
X76109580Y-63666666D02*
X76157200Y-63714285D01*
X76157200Y-63714285D02*
X76204819Y-63857142D01*
X76204819Y-63857142D02*
X76204819Y-63952380D01*
X76204819Y-63952380D02*
X76157200Y-64095237D01*
X76157200Y-64095237D02*
X76061961Y-64190475D01*
X76061961Y-64190475D02*
X75966723Y-64238094D01*
X75966723Y-64238094D02*
X75776247Y-64285713D01*
X75776247Y-64285713D02*
X75633390Y-64285713D01*
X75633390Y-64285713D02*
X75442914Y-64238094D01*
X75442914Y-64238094D02*
X75347676Y-64190475D01*
X75347676Y-64190475D02*
X75252438Y-64095237D01*
X75252438Y-64095237D02*
X75204819Y-63952380D01*
X75204819Y-63952380D02*
X75204819Y-63857142D01*
X75204819Y-63857142D02*
X75252438Y-63714285D01*
X75252438Y-63714285D02*
X75300057Y-63666666D01*
X75204819Y-63333332D02*
X75204819Y-62666666D01*
X75204819Y-62666666D02*
X76204819Y-63095237D01*
X84749819Y-89024523D02*
X85464104Y-89024523D01*
X85464104Y-89024523D02*
X85606961Y-89072142D01*
X85606961Y-89072142D02*
X85702200Y-89167380D01*
X85702200Y-89167380D02*
X85749819Y-89310237D01*
X85749819Y-89310237D02*
X85749819Y-89405475D01*
X84845057Y-88595951D02*
X84797438Y-88548332D01*
X84797438Y-88548332D02*
X84749819Y-88453094D01*
X84749819Y-88453094D02*
X84749819Y-88214999D01*
X84749819Y-88214999D02*
X84797438Y-88119761D01*
X84797438Y-88119761D02*
X84845057Y-88072142D01*
X84845057Y-88072142D02*
X84940295Y-88024523D01*
X84940295Y-88024523D02*
X85035533Y-88024523D01*
X85035533Y-88024523D02*
X85178390Y-88072142D01*
X85178390Y-88072142D02*
X85749819Y-88643570D01*
X85749819Y-88643570D02*
X85749819Y-88024523D01*
X85083152Y-87167380D02*
X85749819Y-87167380D01*
X84702200Y-87405475D02*
X85416485Y-87643570D01*
X85416485Y-87643570D02*
X85416485Y-87024523D01*
X29416666Y-69854819D02*
X29416666Y-70569104D01*
X29416666Y-70569104D02*
X29369047Y-70711961D01*
X29369047Y-70711961D02*
X29273809Y-70807200D01*
X29273809Y-70807200D02*
X29130952Y-70854819D01*
X29130952Y-70854819D02*
X29035714Y-70854819D01*
X30416666Y-70854819D02*
X29845238Y-70854819D01*
X30130952Y-70854819D02*
X30130952Y-69854819D01*
X30130952Y-69854819D02*
X30035714Y-69997676D01*
X30035714Y-69997676D02*
X29940476Y-70092914D01*
X29940476Y-70092914D02*
X29845238Y-70140533D01*
X84724819Y-111999523D02*
X85439104Y-111999523D01*
X85439104Y-111999523D02*
X85581961Y-112047142D01*
X85581961Y-112047142D02*
X85677200Y-112142380D01*
X85677200Y-112142380D02*
X85724819Y-112285237D01*
X85724819Y-112285237D02*
X85724819Y-112380475D01*
X84820057Y-111570951D02*
X84772438Y-111523332D01*
X84772438Y-111523332D02*
X84724819Y-111428094D01*
X84724819Y-111428094D02*
X84724819Y-111189999D01*
X84724819Y-111189999D02*
X84772438Y-111094761D01*
X84772438Y-111094761D02*
X84820057Y-111047142D01*
X84820057Y-111047142D02*
X84915295Y-110999523D01*
X84915295Y-110999523D02*
X85010533Y-110999523D01*
X85010533Y-110999523D02*
X85153390Y-111047142D01*
X85153390Y-111047142D02*
X85724819Y-111618570D01*
X85724819Y-111618570D02*
X85724819Y-110999523D01*
X84724819Y-110142380D02*
X84724819Y-110332856D01*
X84724819Y-110332856D02*
X84772438Y-110428094D01*
X84772438Y-110428094D02*
X84820057Y-110475713D01*
X84820057Y-110475713D02*
X84962914Y-110570951D01*
X84962914Y-110570951D02*
X85153390Y-110618570D01*
X85153390Y-110618570D02*
X85534342Y-110618570D01*
X85534342Y-110618570D02*
X85629580Y-110570951D01*
X85629580Y-110570951D02*
X85677200Y-110523332D01*
X85677200Y-110523332D02*
X85724819Y-110428094D01*
X85724819Y-110428094D02*
X85724819Y-110237618D01*
X85724819Y-110237618D02*
X85677200Y-110142380D01*
X85677200Y-110142380D02*
X85629580Y-110094761D01*
X85629580Y-110094761D02*
X85534342Y-110047142D01*
X85534342Y-110047142D02*
X85296247Y-110047142D01*
X85296247Y-110047142D02*
X85201009Y-110094761D01*
X85201009Y-110094761D02*
X85153390Y-110142380D01*
X85153390Y-110142380D02*
X85105771Y-110237618D01*
X85105771Y-110237618D02*
X85105771Y-110428094D01*
X85105771Y-110428094D02*
X85153390Y-110523332D01*
X85153390Y-110523332D02*
X85201009Y-110570951D01*
X85201009Y-110570951D02*
X85296247Y-110618570D01*
X49516666Y-144654819D02*
X49516666Y-145369104D01*
X49516666Y-145369104D02*
X49469047Y-145511961D01*
X49469047Y-145511961D02*
X49373809Y-145607200D01*
X49373809Y-145607200D02*
X49230952Y-145654819D01*
X49230952Y-145654819D02*
X49135714Y-145654819D01*
X50135714Y-145083390D02*
X50040476Y-145035771D01*
X50040476Y-145035771D02*
X49992857Y-144988152D01*
X49992857Y-144988152D02*
X49945238Y-144892914D01*
X49945238Y-144892914D02*
X49945238Y-144845295D01*
X49945238Y-144845295D02*
X49992857Y-144750057D01*
X49992857Y-144750057D02*
X50040476Y-144702438D01*
X50040476Y-144702438D02*
X50135714Y-144654819D01*
X50135714Y-144654819D02*
X50326190Y-144654819D01*
X50326190Y-144654819D02*
X50421428Y-144702438D01*
X50421428Y-144702438D02*
X50469047Y-144750057D01*
X50469047Y-144750057D02*
X50516666Y-144845295D01*
X50516666Y-144845295D02*
X50516666Y-144892914D01*
X50516666Y-144892914D02*
X50469047Y-144988152D01*
X50469047Y-144988152D02*
X50421428Y-145035771D01*
X50421428Y-145035771D02*
X50326190Y-145083390D01*
X50326190Y-145083390D02*
X50135714Y-145083390D01*
X50135714Y-145083390D02*
X50040476Y-145131009D01*
X50040476Y-145131009D02*
X49992857Y-145178628D01*
X49992857Y-145178628D02*
X49945238Y-145273866D01*
X49945238Y-145273866D02*
X49945238Y-145464342D01*
X49945238Y-145464342D02*
X49992857Y-145559580D01*
X49992857Y-145559580D02*
X50040476Y-145607200D01*
X50040476Y-145607200D02*
X50135714Y-145654819D01*
X50135714Y-145654819D02*
X50326190Y-145654819D01*
X50326190Y-145654819D02*
X50421428Y-145607200D01*
X50421428Y-145607200D02*
X50469047Y-145559580D01*
X50469047Y-145559580D02*
X50516666Y-145464342D01*
X50516666Y-145464342D02*
X50516666Y-145273866D01*
X50516666Y-145273866D02*
X50469047Y-145178628D01*
X50469047Y-145178628D02*
X50421428Y-145131009D01*
X50421428Y-145131009D02*
X50326190Y-145083390D01*
X47333333Y-115704819D02*
X47000000Y-115228628D01*
X46761905Y-115704819D02*
X46761905Y-114704819D01*
X46761905Y-114704819D02*
X47142857Y-114704819D01*
X47142857Y-114704819D02*
X47238095Y-114752438D01*
X47238095Y-114752438D02*
X47285714Y-114800057D01*
X47285714Y-114800057D02*
X47333333Y-114895295D01*
X47333333Y-114895295D02*
X47333333Y-115038152D01*
X47333333Y-115038152D02*
X47285714Y-115133390D01*
X47285714Y-115133390D02*
X47238095Y-115181009D01*
X47238095Y-115181009D02*
X47142857Y-115228628D01*
X47142857Y-115228628D02*
X46761905Y-115228628D01*
X48238095Y-114704819D02*
X47761905Y-114704819D01*
X47761905Y-114704819D02*
X47714286Y-115181009D01*
X47714286Y-115181009D02*
X47761905Y-115133390D01*
X47761905Y-115133390D02*
X47857143Y-115085771D01*
X47857143Y-115085771D02*
X48095238Y-115085771D01*
X48095238Y-115085771D02*
X48190476Y-115133390D01*
X48190476Y-115133390D02*
X48238095Y-115181009D01*
X48238095Y-115181009D02*
X48285714Y-115276247D01*
X48285714Y-115276247D02*
X48285714Y-115514342D01*
X48285714Y-115514342D02*
X48238095Y-115609580D01*
X48238095Y-115609580D02*
X48190476Y-115657200D01*
X48190476Y-115657200D02*
X48095238Y-115704819D01*
X48095238Y-115704819D02*
X47857143Y-115704819D01*
X47857143Y-115704819D02*
X47761905Y-115657200D01*
X47761905Y-115657200D02*
X47714286Y-115609580D01*
X102674819Y-58309523D02*
X103389104Y-58309523D01*
X103389104Y-58309523D02*
X103531961Y-58357142D01*
X103531961Y-58357142D02*
X103627200Y-58452380D01*
X103627200Y-58452380D02*
X103674819Y-58595237D01*
X103674819Y-58595237D02*
X103674819Y-58690475D01*
X103674819Y-57309523D02*
X103674819Y-57880951D01*
X103674819Y-57595237D02*
X102674819Y-57595237D01*
X102674819Y-57595237D02*
X102817676Y-57690475D01*
X102817676Y-57690475D02*
X102912914Y-57785713D01*
X102912914Y-57785713D02*
X102960533Y-57880951D01*
X103674819Y-56833332D02*
X103674819Y-56642856D01*
X103674819Y-56642856D02*
X103627200Y-56547618D01*
X103627200Y-56547618D02*
X103579580Y-56499999D01*
X103579580Y-56499999D02*
X103436723Y-56404761D01*
X103436723Y-56404761D02*
X103246247Y-56357142D01*
X103246247Y-56357142D02*
X102865295Y-56357142D01*
X102865295Y-56357142D02*
X102770057Y-56404761D01*
X102770057Y-56404761D02*
X102722438Y-56452380D01*
X102722438Y-56452380D02*
X102674819Y-56547618D01*
X102674819Y-56547618D02*
X102674819Y-56738094D01*
X102674819Y-56738094D02*
X102722438Y-56833332D01*
X102722438Y-56833332D02*
X102770057Y-56880951D01*
X102770057Y-56880951D02*
X102865295Y-56928570D01*
X102865295Y-56928570D02*
X103103390Y-56928570D01*
X103103390Y-56928570D02*
X103198628Y-56880951D01*
X103198628Y-56880951D02*
X103246247Y-56833332D01*
X103246247Y-56833332D02*
X103293866Y-56738094D01*
X103293866Y-56738094D02*
X103293866Y-56547618D01*
X103293866Y-56547618D02*
X103246247Y-56452380D01*
X103246247Y-56452380D02*
X103198628Y-56404761D01*
X103198628Y-56404761D02*
X103103390Y-56357142D01*
X45427419Y-55738094D02*
X44427419Y-55738094D01*
X45427419Y-55166666D02*
X44855990Y-55595237D01*
X44427419Y-55166666D02*
X44998847Y-55738094D01*
X45427419Y-54214285D02*
X45427419Y-54785713D01*
X45427419Y-54499999D02*
X44427419Y-54499999D01*
X44427419Y-54499999D02*
X44570276Y-54595237D01*
X44570276Y-54595237D02*
X44665514Y-54690475D01*
X44665514Y-54690475D02*
X44713133Y-54785713D01*
X84764819Y-96449523D02*
X85479104Y-96449523D01*
X85479104Y-96449523D02*
X85621961Y-96497142D01*
X85621961Y-96497142D02*
X85717200Y-96592380D01*
X85717200Y-96592380D02*
X85764819Y-96735237D01*
X85764819Y-96735237D02*
X85764819Y-96830475D01*
X84860057Y-96020951D02*
X84812438Y-95973332D01*
X84812438Y-95973332D02*
X84764819Y-95878094D01*
X84764819Y-95878094D02*
X84764819Y-95639999D01*
X84764819Y-95639999D02*
X84812438Y-95544761D01*
X84812438Y-95544761D02*
X84860057Y-95497142D01*
X84860057Y-95497142D02*
X84955295Y-95449523D01*
X84955295Y-95449523D02*
X85050533Y-95449523D01*
X85050533Y-95449523D02*
X85193390Y-95497142D01*
X85193390Y-95497142D02*
X85764819Y-96068570D01*
X85764819Y-96068570D02*
X85764819Y-95449523D01*
X84764819Y-95116189D02*
X84764819Y-94449523D01*
X84764819Y-94449523D02*
X85764819Y-94878094D01*
X60494819Y-117833333D02*
X61209104Y-117833333D01*
X61209104Y-117833333D02*
X61351961Y-117880952D01*
X61351961Y-117880952D02*
X61447200Y-117976190D01*
X61447200Y-117976190D02*
X61494819Y-118119047D01*
X61494819Y-118119047D02*
X61494819Y-118214285D01*
X61494819Y-117357142D02*
X60494819Y-117357142D01*
X60494819Y-117357142D02*
X60494819Y-116976190D01*
X60494819Y-116976190D02*
X60542438Y-116880952D01*
X60542438Y-116880952D02*
X60590057Y-116833333D01*
X60590057Y-116833333D02*
X60685295Y-116785714D01*
X60685295Y-116785714D02*
X60828152Y-116785714D01*
X60828152Y-116785714D02*
X60923390Y-116833333D01*
X60923390Y-116833333D02*
X60971009Y-116880952D01*
X60971009Y-116880952D02*
X61018628Y-116976190D01*
X61018628Y-116976190D02*
X61018628Y-117357142D01*
X61494819Y-115833333D02*
X61494819Y-116404761D01*
X61494819Y-116119047D02*
X60494819Y-116119047D01*
X60494819Y-116119047D02*
X60637676Y-116214285D01*
X60637676Y-116214285D02*
X60732914Y-116309523D01*
X60732914Y-116309523D02*
X60780533Y-116404761D01*
X50264819Y-88999523D02*
X50979104Y-88999523D01*
X50979104Y-88999523D02*
X51121961Y-89047142D01*
X51121961Y-89047142D02*
X51217200Y-89142380D01*
X51217200Y-89142380D02*
X51264819Y-89285237D01*
X51264819Y-89285237D02*
X51264819Y-89380475D01*
X50360057Y-88570951D02*
X50312438Y-88523332D01*
X50312438Y-88523332D02*
X50264819Y-88428094D01*
X50264819Y-88428094D02*
X50264819Y-88189999D01*
X50264819Y-88189999D02*
X50312438Y-88094761D01*
X50312438Y-88094761D02*
X50360057Y-88047142D01*
X50360057Y-88047142D02*
X50455295Y-87999523D01*
X50455295Y-87999523D02*
X50550533Y-87999523D01*
X50550533Y-87999523D02*
X50693390Y-88047142D01*
X50693390Y-88047142D02*
X51264819Y-88618570D01*
X51264819Y-88618570D02*
X51264819Y-87999523D01*
X50693390Y-87428094D02*
X50645771Y-87523332D01*
X50645771Y-87523332D02*
X50598152Y-87570951D01*
X50598152Y-87570951D02*
X50502914Y-87618570D01*
X50502914Y-87618570D02*
X50455295Y-87618570D01*
X50455295Y-87618570D02*
X50360057Y-87570951D01*
X50360057Y-87570951D02*
X50312438Y-87523332D01*
X50312438Y-87523332D02*
X50264819Y-87428094D01*
X50264819Y-87428094D02*
X50264819Y-87237618D01*
X50264819Y-87237618D02*
X50312438Y-87142380D01*
X50312438Y-87142380D02*
X50360057Y-87094761D01*
X50360057Y-87094761D02*
X50455295Y-87047142D01*
X50455295Y-87047142D02*
X50502914Y-87047142D01*
X50502914Y-87047142D02*
X50598152Y-87094761D01*
X50598152Y-87094761D02*
X50645771Y-87142380D01*
X50645771Y-87142380D02*
X50693390Y-87237618D01*
X50693390Y-87237618D02*
X50693390Y-87428094D01*
X50693390Y-87428094D02*
X50741009Y-87523332D01*
X50741009Y-87523332D02*
X50788628Y-87570951D01*
X50788628Y-87570951D02*
X50883866Y-87618570D01*
X50883866Y-87618570D02*
X51074342Y-87618570D01*
X51074342Y-87618570D02*
X51169580Y-87570951D01*
X51169580Y-87570951D02*
X51217200Y-87523332D01*
X51217200Y-87523332D02*
X51264819Y-87428094D01*
X51264819Y-87428094D02*
X51264819Y-87237618D01*
X51264819Y-87237618D02*
X51217200Y-87142380D01*
X51217200Y-87142380D02*
X51169580Y-87094761D01*
X51169580Y-87094761D02*
X51074342Y-87047142D01*
X51074342Y-87047142D02*
X50883866Y-87047142D01*
X50883866Y-87047142D02*
X50788628Y-87094761D01*
X50788628Y-87094761D02*
X50741009Y-87142380D01*
X50741009Y-87142380D02*
X50693390Y-87237618D01*
X78454819Y-30809523D02*
X79169104Y-30809523D01*
X79169104Y-30809523D02*
X79311961Y-30857142D01*
X79311961Y-30857142D02*
X79407200Y-30952380D01*
X79407200Y-30952380D02*
X79454819Y-31095237D01*
X79454819Y-31095237D02*
X79454819Y-31190475D01*
X79454819Y-29809523D02*
X79454819Y-30380951D01*
X79454819Y-30095237D02*
X78454819Y-30095237D01*
X78454819Y-30095237D02*
X78597676Y-30190475D01*
X78597676Y-30190475D02*
X78692914Y-30285713D01*
X78692914Y-30285713D02*
X78740533Y-30380951D01*
X79454819Y-28857142D02*
X79454819Y-29428570D01*
X79454819Y-29142856D02*
X78454819Y-29142856D01*
X78454819Y-29142856D02*
X78597676Y-29238094D01*
X78597676Y-29238094D02*
X78692914Y-29333332D01*
X78692914Y-29333332D02*
X78740533Y-29428570D01*
X29416666Y-55394819D02*
X29416666Y-56109104D01*
X29416666Y-56109104D02*
X29369047Y-56251961D01*
X29369047Y-56251961D02*
X29273809Y-56347200D01*
X29273809Y-56347200D02*
X29130952Y-56394819D01*
X29130952Y-56394819D02*
X29035714Y-56394819D01*
X29845238Y-55490057D02*
X29892857Y-55442438D01*
X29892857Y-55442438D02*
X29988095Y-55394819D01*
X29988095Y-55394819D02*
X30226190Y-55394819D01*
X30226190Y-55394819D02*
X30321428Y-55442438D01*
X30321428Y-55442438D02*
X30369047Y-55490057D01*
X30369047Y-55490057D02*
X30416666Y-55585295D01*
X30416666Y-55585295D02*
X30416666Y-55680533D01*
X30416666Y-55680533D02*
X30369047Y-55823390D01*
X30369047Y-55823390D02*
X29797619Y-56394819D01*
X29797619Y-56394819D02*
X30416666Y-56394819D01*
X65927419Y-52586666D02*
X65451228Y-52919999D01*
X65927419Y-53158094D02*
X64927419Y-53158094D01*
X64927419Y-53158094D02*
X64927419Y-52777142D01*
X64927419Y-52777142D02*
X64975038Y-52681904D01*
X64975038Y-52681904D02*
X65022657Y-52634285D01*
X65022657Y-52634285D02*
X65117895Y-52586666D01*
X65117895Y-52586666D02*
X65260752Y-52586666D01*
X65260752Y-52586666D02*
X65355990Y-52634285D01*
X65355990Y-52634285D02*
X65403609Y-52681904D01*
X65403609Y-52681904D02*
X65451228Y-52777142D01*
X65451228Y-52777142D02*
X65451228Y-53158094D01*
X64927419Y-51729523D02*
X64927419Y-51919999D01*
X64927419Y-51919999D02*
X64975038Y-52015237D01*
X64975038Y-52015237D02*
X65022657Y-52062856D01*
X65022657Y-52062856D02*
X65165514Y-52158094D01*
X65165514Y-52158094D02*
X65355990Y-52205713D01*
X65355990Y-52205713D02*
X65736942Y-52205713D01*
X65736942Y-52205713D02*
X65832180Y-52158094D01*
X65832180Y-52158094D02*
X65879800Y-52110475D01*
X65879800Y-52110475D02*
X65927419Y-52015237D01*
X65927419Y-52015237D02*
X65927419Y-51824761D01*
X65927419Y-51824761D02*
X65879800Y-51729523D01*
X65879800Y-51729523D02*
X65832180Y-51681904D01*
X65832180Y-51681904D02*
X65736942Y-51634285D01*
X65736942Y-51634285D02*
X65498847Y-51634285D01*
X65498847Y-51634285D02*
X65403609Y-51681904D01*
X65403609Y-51681904D02*
X65355990Y-51729523D01*
X65355990Y-51729523D02*
X65308371Y-51824761D01*
X65308371Y-51824761D02*
X65308371Y-52015237D01*
X65308371Y-52015237D02*
X65355990Y-52110475D01*
X65355990Y-52110475D02*
X65403609Y-52158094D01*
X65403609Y-52158094D02*
X65498847Y-52205713D01*
X46833332Y-80592800D02*
X46690475Y-80545180D01*
X46690475Y-80545180D02*
X46452380Y-80545180D01*
X46452380Y-80545180D02*
X46357142Y-80592800D01*
X46357142Y-80592800D02*
X46309523Y-80640419D01*
X46309523Y-80640419D02*
X46261904Y-80735657D01*
X46261904Y-80735657D02*
X46261904Y-80830895D01*
X46261904Y-80830895D02*
X46309523Y-80926133D01*
X46309523Y-80926133D02*
X46357142Y-80973752D01*
X46357142Y-80973752D02*
X46452380Y-81021371D01*
X46452380Y-81021371D02*
X46642856Y-81068990D01*
X46642856Y-81068990D02*
X46738094Y-81116609D01*
X46738094Y-81116609D02*
X46785713Y-81164228D01*
X46785713Y-81164228D02*
X46833332Y-81259466D01*
X46833332Y-81259466D02*
X46833332Y-81354704D01*
X46833332Y-81354704D02*
X46785713Y-81449942D01*
X46785713Y-81449942D02*
X46738094Y-81497561D01*
X46738094Y-81497561D02*
X46642856Y-81545180D01*
X46642856Y-81545180D02*
X46404761Y-81545180D01*
X46404761Y-81545180D02*
X46261904Y-81497561D01*
X45928570Y-81545180D02*
X45690475Y-80545180D01*
X45690475Y-80545180D02*
X45499999Y-81259466D01*
X45499999Y-81259466D02*
X45309523Y-80545180D01*
X45309523Y-80545180D02*
X45071428Y-81545180D01*
X44261904Y-81211847D02*
X44261904Y-80545180D01*
X44499999Y-81592800D02*
X44738094Y-80878514D01*
X44738094Y-80878514D02*
X44119047Y-80878514D01*
X68824819Y-131086666D02*
X68348628Y-131419999D01*
X68824819Y-131658094D02*
X67824819Y-131658094D01*
X67824819Y-131658094D02*
X67824819Y-131277142D01*
X67824819Y-131277142D02*
X67872438Y-131181904D01*
X67872438Y-131181904D02*
X67920057Y-131134285D01*
X67920057Y-131134285D02*
X68015295Y-131086666D01*
X68015295Y-131086666D02*
X68158152Y-131086666D01*
X68158152Y-131086666D02*
X68253390Y-131134285D01*
X68253390Y-131134285D02*
X68301009Y-131181904D01*
X68301009Y-131181904D02*
X68348628Y-131277142D01*
X68348628Y-131277142D02*
X68348628Y-131658094D01*
X68824819Y-130134285D02*
X68824819Y-130705713D01*
X68824819Y-130419999D02*
X67824819Y-130419999D01*
X67824819Y-130419999D02*
X67967676Y-130515237D01*
X67967676Y-130515237D02*
X68062914Y-130610475D01*
X68062914Y-130610475D02*
X68110533Y-130705713D01*
X51414819Y-141508094D02*
X50414819Y-141508094D01*
X50414819Y-141508094D02*
X50414819Y-141269999D01*
X50414819Y-141269999D02*
X50462438Y-141127142D01*
X50462438Y-141127142D02*
X50557676Y-141031904D01*
X50557676Y-141031904D02*
X50652914Y-140984285D01*
X50652914Y-140984285D02*
X50843390Y-140936666D01*
X50843390Y-140936666D02*
X50986247Y-140936666D01*
X50986247Y-140936666D02*
X51176723Y-140984285D01*
X51176723Y-140984285D02*
X51271961Y-141031904D01*
X51271961Y-141031904D02*
X51367200Y-141127142D01*
X51367200Y-141127142D02*
X51414819Y-141269999D01*
X51414819Y-141269999D02*
X51414819Y-141508094D01*
X50510057Y-140555713D02*
X50462438Y-140508094D01*
X50462438Y-140508094D02*
X50414819Y-140412856D01*
X50414819Y-140412856D02*
X50414819Y-140174761D01*
X50414819Y-140174761D02*
X50462438Y-140079523D01*
X50462438Y-140079523D02*
X50510057Y-140031904D01*
X50510057Y-140031904D02*
X50605295Y-139984285D01*
X50605295Y-139984285D02*
X50700533Y-139984285D01*
X50700533Y-139984285D02*
X50843390Y-140031904D01*
X50843390Y-140031904D02*
X51414819Y-140603332D01*
X51414819Y-140603332D02*
X51414819Y-139984285D01*
X29441666Y-118684819D02*
X29441666Y-119399104D01*
X29441666Y-119399104D02*
X29394047Y-119541961D01*
X29394047Y-119541961D02*
X29298809Y-119637200D01*
X29298809Y-119637200D02*
X29155952Y-119684819D01*
X29155952Y-119684819D02*
X29060714Y-119684819D01*
X29822619Y-118684819D02*
X30441666Y-118684819D01*
X30441666Y-118684819D02*
X30108333Y-119065771D01*
X30108333Y-119065771D02*
X30251190Y-119065771D01*
X30251190Y-119065771D02*
X30346428Y-119113390D01*
X30346428Y-119113390D02*
X30394047Y-119161009D01*
X30394047Y-119161009D02*
X30441666Y-119256247D01*
X30441666Y-119256247D02*
X30441666Y-119494342D01*
X30441666Y-119494342D02*
X30394047Y-119589580D01*
X30394047Y-119589580D02*
X30346428Y-119637200D01*
X30346428Y-119637200D02*
X30251190Y-119684819D01*
X30251190Y-119684819D02*
X29965476Y-119684819D01*
X29965476Y-119684819D02*
X29870238Y-119637200D01*
X29870238Y-119637200D02*
X29822619Y-119589580D01*
X66533333Y-111859580D02*
X66485714Y-111907200D01*
X66485714Y-111907200D02*
X66342857Y-111954819D01*
X66342857Y-111954819D02*
X66247619Y-111954819D01*
X66247619Y-111954819D02*
X66104762Y-111907200D01*
X66104762Y-111907200D02*
X66009524Y-111811961D01*
X66009524Y-111811961D02*
X65961905Y-111716723D01*
X65961905Y-111716723D02*
X65914286Y-111526247D01*
X65914286Y-111526247D02*
X65914286Y-111383390D01*
X65914286Y-111383390D02*
X65961905Y-111192914D01*
X65961905Y-111192914D02*
X66009524Y-111097676D01*
X66009524Y-111097676D02*
X66104762Y-111002438D01*
X66104762Y-111002438D02*
X66247619Y-110954819D01*
X66247619Y-110954819D02*
X66342857Y-110954819D01*
X66342857Y-110954819D02*
X66485714Y-111002438D01*
X66485714Y-111002438D02*
X66533333Y-111050057D01*
X67485714Y-111954819D02*
X66914286Y-111954819D01*
X67200000Y-111954819D02*
X67200000Y-110954819D01*
X67200000Y-110954819D02*
X67104762Y-111097676D01*
X67104762Y-111097676D02*
X67009524Y-111192914D01*
X67009524Y-111192914D02*
X66914286Y-111240533D01*
X48333333Y-121859580D02*
X48285714Y-121907200D01*
X48285714Y-121907200D02*
X48142857Y-121954819D01*
X48142857Y-121954819D02*
X48047619Y-121954819D01*
X48047619Y-121954819D02*
X47904762Y-121907200D01*
X47904762Y-121907200D02*
X47809524Y-121811961D01*
X47809524Y-121811961D02*
X47761905Y-121716723D01*
X47761905Y-121716723D02*
X47714286Y-121526247D01*
X47714286Y-121526247D02*
X47714286Y-121383390D01*
X47714286Y-121383390D02*
X47761905Y-121192914D01*
X47761905Y-121192914D02*
X47809524Y-121097676D01*
X47809524Y-121097676D02*
X47904762Y-121002438D01*
X47904762Y-121002438D02*
X48047619Y-120954819D01*
X48047619Y-120954819D02*
X48142857Y-120954819D01*
X48142857Y-120954819D02*
X48285714Y-121002438D01*
X48285714Y-121002438D02*
X48333333Y-121050057D01*
X49190476Y-120954819D02*
X49000000Y-120954819D01*
X49000000Y-120954819D02*
X48904762Y-121002438D01*
X48904762Y-121002438D02*
X48857143Y-121050057D01*
X48857143Y-121050057D02*
X48761905Y-121192914D01*
X48761905Y-121192914D02*
X48714286Y-121383390D01*
X48714286Y-121383390D02*
X48714286Y-121764342D01*
X48714286Y-121764342D02*
X48761905Y-121859580D01*
X48761905Y-121859580D02*
X48809524Y-121907200D01*
X48809524Y-121907200D02*
X48904762Y-121954819D01*
X48904762Y-121954819D02*
X49095238Y-121954819D01*
X49095238Y-121954819D02*
X49190476Y-121907200D01*
X49190476Y-121907200D02*
X49238095Y-121859580D01*
X49238095Y-121859580D02*
X49285714Y-121764342D01*
X49285714Y-121764342D02*
X49285714Y-121526247D01*
X49285714Y-121526247D02*
X49238095Y-121431009D01*
X49238095Y-121431009D02*
X49190476Y-121383390D01*
X49190476Y-121383390D02*
X49095238Y-121335771D01*
X49095238Y-121335771D02*
X48904762Y-121335771D01*
X48904762Y-121335771D02*
X48809524Y-121383390D01*
X48809524Y-121383390D02*
X48761905Y-121431009D01*
X48761905Y-121431009D02*
X48714286Y-121526247D01*
X28940476Y-116054819D02*
X28940476Y-116769104D01*
X28940476Y-116769104D02*
X28892857Y-116911961D01*
X28892857Y-116911961D02*
X28797619Y-117007200D01*
X28797619Y-117007200D02*
X28654762Y-117054819D01*
X28654762Y-117054819D02*
X28559524Y-117054819D01*
X29369048Y-116150057D02*
X29416667Y-116102438D01*
X29416667Y-116102438D02*
X29511905Y-116054819D01*
X29511905Y-116054819D02*
X29750000Y-116054819D01*
X29750000Y-116054819D02*
X29845238Y-116102438D01*
X29845238Y-116102438D02*
X29892857Y-116150057D01*
X29892857Y-116150057D02*
X29940476Y-116245295D01*
X29940476Y-116245295D02*
X29940476Y-116340533D01*
X29940476Y-116340533D02*
X29892857Y-116483390D01*
X29892857Y-116483390D02*
X29321429Y-117054819D01*
X29321429Y-117054819D02*
X29940476Y-117054819D01*
X30559524Y-116054819D02*
X30654762Y-116054819D01*
X30654762Y-116054819D02*
X30750000Y-116102438D01*
X30750000Y-116102438D02*
X30797619Y-116150057D01*
X30797619Y-116150057D02*
X30845238Y-116245295D01*
X30845238Y-116245295D02*
X30892857Y-116435771D01*
X30892857Y-116435771D02*
X30892857Y-116673866D01*
X30892857Y-116673866D02*
X30845238Y-116864342D01*
X30845238Y-116864342D02*
X30797619Y-116959580D01*
X30797619Y-116959580D02*
X30750000Y-117007200D01*
X30750000Y-117007200D02*
X30654762Y-117054819D01*
X30654762Y-117054819D02*
X30559524Y-117054819D01*
X30559524Y-117054819D02*
X30464286Y-117007200D01*
X30464286Y-117007200D02*
X30416667Y-116959580D01*
X30416667Y-116959580D02*
X30369048Y-116864342D01*
X30369048Y-116864342D02*
X30321429Y-116673866D01*
X30321429Y-116673866D02*
X30321429Y-116435771D01*
X30321429Y-116435771D02*
X30369048Y-116245295D01*
X30369048Y-116245295D02*
X30416667Y-116150057D01*
X30416667Y-116150057D02*
X30464286Y-116102438D01*
X30464286Y-116102438D02*
X30559524Y-116054819D01*
X46833332Y-103592800D02*
X46690475Y-103545180D01*
X46690475Y-103545180D02*
X46452380Y-103545180D01*
X46452380Y-103545180D02*
X46357142Y-103592800D01*
X46357142Y-103592800D02*
X46309523Y-103640419D01*
X46309523Y-103640419D02*
X46261904Y-103735657D01*
X46261904Y-103735657D02*
X46261904Y-103830895D01*
X46261904Y-103830895D02*
X46309523Y-103926133D01*
X46309523Y-103926133D02*
X46357142Y-103973752D01*
X46357142Y-103973752D02*
X46452380Y-104021371D01*
X46452380Y-104021371D02*
X46642856Y-104068990D01*
X46642856Y-104068990D02*
X46738094Y-104116609D01*
X46738094Y-104116609D02*
X46785713Y-104164228D01*
X46785713Y-104164228D02*
X46833332Y-104259466D01*
X46833332Y-104259466D02*
X46833332Y-104354704D01*
X46833332Y-104354704D02*
X46785713Y-104449942D01*
X46785713Y-104449942D02*
X46738094Y-104497561D01*
X46738094Y-104497561D02*
X46642856Y-104545180D01*
X46642856Y-104545180D02*
X46404761Y-104545180D01*
X46404761Y-104545180D02*
X46261904Y-104497561D01*
X45928570Y-104545180D02*
X45690475Y-103545180D01*
X45690475Y-103545180D02*
X45499999Y-104259466D01*
X45499999Y-104259466D02*
X45309523Y-103545180D01*
X45309523Y-103545180D02*
X45071428Y-104545180D01*
X44214285Y-104545180D02*
X44690475Y-104545180D01*
X44690475Y-104545180D02*
X44738094Y-104068990D01*
X44738094Y-104068990D02*
X44690475Y-104116609D01*
X44690475Y-104116609D02*
X44595237Y-104164228D01*
X44595237Y-104164228D02*
X44357142Y-104164228D01*
X44357142Y-104164228D02*
X44261904Y-104116609D01*
X44261904Y-104116609D02*
X44214285Y-104068990D01*
X44214285Y-104068990D02*
X44166666Y-103973752D01*
X44166666Y-103973752D02*
X44166666Y-103735657D01*
X44166666Y-103735657D02*
X44214285Y-103640419D01*
X44214285Y-103640419D02*
X44261904Y-103592800D01*
X44261904Y-103592800D02*
X44357142Y-103545180D01*
X44357142Y-103545180D02*
X44595237Y-103545180D01*
X44595237Y-103545180D02*
X44690475Y-103592800D01*
X44690475Y-103592800D02*
X44738094Y-103640419D01*
X52884919Y-57048094D02*
X51884919Y-57048094D01*
X51884919Y-57048094D02*
X51884919Y-56809999D01*
X51884919Y-56809999D02*
X51932538Y-56667142D01*
X51932538Y-56667142D02*
X52027776Y-56571904D01*
X52027776Y-56571904D02*
X52123014Y-56524285D01*
X52123014Y-56524285D02*
X52313490Y-56476666D01*
X52313490Y-56476666D02*
X52456347Y-56476666D01*
X52456347Y-56476666D02*
X52646823Y-56524285D01*
X52646823Y-56524285D02*
X52742061Y-56571904D01*
X52742061Y-56571904D02*
X52837300Y-56667142D01*
X52837300Y-56667142D02*
X52884919Y-56809999D01*
X52884919Y-56809999D02*
X52884919Y-57048094D01*
X52218252Y-55619523D02*
X52884919Y-55619523D01*
X51837300Y-55857618D02*
X52551585Y-56095713D01*
X52551585Y-56095713D02*
X52551585Y-55476666D01*
X54784919Y-52761904D02*
X53784919Y-52761904D01*
X54784919Y-52190476D02*
X54213490Y-52619047D01*
X53784919Y-52190476D02*
X54356347Y-52761904D01*
X48304919Y-62867023D02*
X49019204Y-62867023D01*
X49019204Y-62867023D02*
X49162061Y-62914642D01*
X49162061Y-62914642D02*
X49257300Y-63009880D01*
X49257300Y-63009880D02*
X49304919Y-63152737D01*
X49304919Y-63152737D02*
X49304919Y-63247975D01*
X48304919Y-62486070D02*
X48304919Y-61867023D01*
X48304919Y-61867023D02*
X48685871Y-62200356D01*
X48685871Y-62200356D02*
X48685871Y-62057499D01*
X48685871Y-62057499D02*
X48733490Y-61962261D01*
X48733490Y-61962261D02*
X48781109Y-61914642D01*
X48781109Y-61914642D02*
X48876347Y-61867023D01*
X48876347Y-61867023D02*
X49114442Y-61867023D01*
X49114442Y-61867023D02*
X49209680Y-61914642D01*
X49209680Y-61914642D02*
X49257300Y-61962261D01*
X49257300Y-61962261D02*
X49304919Y-62057499D01*
X49304919Y-62057499D02*
X49304919Y-62343213D01*
X49304919Y-62343213D02*
X49257300Y-62438451D01*
X49257300Y-62438451D02*
X49209680Y-62486070D01*
X48304919Y-61533689D02*
X48304919Y-60914642D01*
X48304919Y-60914642D02*
X48685871Y-61247975D01*
X48685871Y-61247975D02*
X48685871Y-61105118D01*
X48685871Y-61105118D02*
X48733490Y-61009880D01*
X48733490Y-61009880D02*
X48781109Y-60962261D01*
X48781109Y-60962261D02*
X48876347Y-60914642D01*
X48876347Y-60914642D02*
X49114442Y-60914642D01*
X49114442Y-60914642D02*
X49209680Y-60962261D01*
X49209680Y-60962261D02*
X49257300Y-61009880D01*
X49257300Y-61009880D02*
X49304919Y-61105118D01*
X49304919Y-61105118D02*
X49304919Y-61390832D01*
X49304919Y-61390832D02*
X49257300Y-61486070D01*
X49257300Y-61486070D02*
X49209680Y-61533689D01*
D16*
%TO.C,J4*%
X27830000Y-139690000D02*
X27830000Y-147370000D01*
X27830000Y-137090000D02*
X27830000Y-138420000D01*
X26500000Y-137090000D02*
X27830000Y-137090000D01*
X25170000Y-147370000D02*
X27830000Y-147370000D01*
X25170000Y-139690000D02*
X27830000Y-139690000D01*
X25170000Y-139690000D02*
X25170000Y-147370000D01*
%TO.C,J21*%
X89170000Y-73270000D02*
X89170000Y-65590000D01*
X89170000Y-75870000D02*
X89170000Y-74540000D01*
X90500000Y-75870000D02*
X89170000Y-75870000D01*
X91830000Y-65590000D02*
X89170000Y-65590000D01*
X91830000Y-73270000D02*
X89170000Y-73270000D01*
X91830000Y-73270000D02*
X91830000Y-65590000D01*
%TO.C,R8*%
X57460000Y-61500000D02*
X58230000Y-61500000D01*
X65540000Y-61500000D02*
X64770000Y-61500000D01*
X58230000Y-60130000D02*
X64770000Y-60130000D01*
X64770000Y-62870000D01*
X58230000Y-62870000D01*
X58230000Y-60130000D01*
%TO.C,SW3*%
X75000000Y-98500000D02*
X75000000Y-108500000D01*
X75000000Y-108500000D02*
X80000000Y-108500000D01*
X75500000Y-98500000D02*
X75500000Y-101500000D01*
X75500000Y-108500000D02*
X75500000Y-105500000D01*
X80000000Y-108500000D02*
X85000000Y-108500000D01*
X84500000Y-98500000D02*
X84500000Y-102000000D01*
X84500000Y-104000000D02*
X84500000Y-103000000D01*
X84500000Y-105500000D02*
X84500000Y-105000000D01*
X84500000Y-108500000D02*
X84500000Y-105500000D01*
X85000000Y-98500000D02*
X75000000Y-98500000D01*
X85000000Y-108500000D02*
X85000000Y-98500000D01*
%TO.C,J29*%
X41590000Y-71360000D02*
X41590000Y-74020000D01*
X46730000Y-71360000D02*
X41590000Y-71360000D01*
X46730000Y-71360000D02*
X46730000Y-74020000D01*
X46730000Y-74020000D02*
X41590000Y-74020000D01*
X49330000Y-72690000D02*
X49330000Y-74020000D01*
X49330000Y-74020000D02*
X48000000Y-74020000D01*
%TO.C,SW2*%
X75000000Y-75000000D02*
X75000000Y-85000000D01*
X75000000Y-85000000D02*
X80000000Y-85000000D01*
X75500000Y-75000000D02*
X75500000Y-78000000D01*
X75500000Y-85000000D02*
X75500000Y-82000000D01*
X80000000Y-85000000D02*
X85000000Y-85000000D01*
X84500000Y-75000000D02*
X84500000Y-78500000D01*
X84500000Y-80500000D02*
X84500000Y-79500000D01*
X84500000Y-82000000D02*
X84500000Y-81500000D01*
X84500000Y-85000000D02*
X84500000Y-82000000D01*
X85000000Y-75000000D02*
X75000000Y-75000000D01*
X85000000Y-85000000D02*
X85000000Y-75000000D01*
%TO.C,J10*%
X96370000Y-25730000D02*
X96370000Y-20540000D01*
X99130000Y-20540000D02*
X96370000Y-20540000D01*
X99130000Y-25730000D02*
X96370000Y-25730000D01*
X99130000Y-25730000D02*
X99130000Y-20540000D01*
X99130000Y-27000000D02*
X99130000Y-28380000D01*
X99130000Y-28380000D02*
X97750000Y-28380000D01*
%TO.C,J32*%
X40010100Y-46877500D02*
X40010100Y-49637500D01*
X45200100Y-46877500D02*
X40010100Y-46877500D01*
X45200100Y-46877500D02*
X45200100Y-49637500D01*
X45200100Y-49637500D02*
X40010100Y-49637500D01*
X46470100Y-46877500D02*
X47850100Y-46877500D01*
X47850100Y-46877500D02*
X47850100Y-48257500D01*
%TO.C,SW1*%
X72390000Y-46890000D02*
X84610000Y-46890000D01*
X72390000Y-49400000D02*
X72390000Y-46890000D01*
X72390000Y-54300000D02*
X72390000Y-51700000D01*
X72390000Y-59110000D02*
X72390000Y-56600000D01*
X84610000Y-49400000D02*
X84610000Y-46890000D01*
X84610000Y-54300000D02*
X84610000Y-51700000D01*
X84610000Y-59110000D02*
X72390000Y-59110000D01*
X84610000Y-59110000D02*
X84610000Y-56600000D01*
X82050000Y-53000000D02*
G75*
G02*
X74950000Y-53000000I-3550000J0D01*
G01*
X74950000Y-53000000D02*
G75*
G02*
X82050000Y-53000000I3550000J0D01*
G01*
%TO.C,J5*%
X50150000Y-20000000D02*
X50150000Y-41250000D01*
X50150000Y-20000000D02*
X53150000Y-20000000D01*
X50150000Y-41250000D02*
X68650000Y-41250000D01*
X53150000Y-16500000D02*
X65650000Y-16500000D01*
X53150000Y-20000000D02*
X53150000Y-16500000D01*
X53150000Y-20000000D02*
X65650000Y-20000000D01*
X55150000Y-41250000D02*
X55150000Y-43250000D01*
X55150000Y-43250000D02*
X64150000Y-43250000D01*
X64150000Y-43250000D02*
X64150000Y-41250000D01*
X65650000Y-20000000D02*
X65650000Y-16500000D01*
X68650000Y-20000000D02*
X65650000Y-20000000D01*
X68650000Y-20000000D02*
X68650000Y-41250000D01*
%TO.C,C5*%
X40710000Y-123740000D02*
X38529000Y-123740000D01*
X40710000Y-123780000D02*
X38532000Y-123780000D01*
X40710000Y-123820000D02*
X38536000Y-123820000D01*
X40710000Y-123860000D02*
X38540000Y-123860000D01*
X40710000Y-123900000D02*
X38545000Y-123900000D01*
X40710000Y-123940000D02*
X38550000Y-123940000D01*
X40710000Y-123980000D02*
X38555000Y-123980000D01*
X40710000Y-124020000D02*
X38562000Y-124020000D01*
X40710000Y-124060000D02*
X38568000Y-124060000D01*
X40710000Y-124100000D02*
X38576000Y-124100000D01*
X40710000Y-124140000D02*
X38583000Y-124140000D01*
X40710000Y-124180000D02*
X38591000Y-124180000D01*
X40710000Y-124220000D02*
X38600000Y-124220000D01*
X40710000Y-124260000D02*
X38610000Y-124260000D01*
X40710000Y-124300000D02*
X38619000Y-124300000D01*
X40710000Y-124340000D02*
X38630000Y-124340000D01*
X40710000Y-124380000D02*
X38641000Y-124380000D01*
X40710000Y-124420000D02*
X38652000Y-124420000D01*
X40710000Y-124460000D02*
X38664000Y-124460000D01*
X40710000Y-124500000D02*
X38677000Y-124500000D01*
X40710000Y-124540000D02*
X38690000Y-124540000D01*
X40710000Y-124580000D02*
X38703000Y-124580000D01*
X40710000Y-124620000D02*
X38718000Y-124620000D01*
X40710000Y-124660000D02*
X38733000Y-124660000D01*
X40710000Y-124700000D02*
X38748000Y-124700000D01*
X40710000Y-124740000D02*
X38764000Y-124740000D01*
X40710000Y-124780000D02*
X38781000Y-124780000D01*
X40710000Y-124820000D02*
X38798000Y-124820000D01*
X40710000Y-124860000D02*
X38816000Y-124860000D01*
X40710000Y-124900000D02*
X38835000Y-124900000D01*
X40710000Y-124940000D02*
X38854000Y-124940000D01*
X40710000Y-124980000D02*
X38874000Y-124980000D01*
X40710000Y-125020000D02*
X38895000Y-125020000D01*
X40710000Y-125060000D02*
X38916000Y-125060000D01*
X40710000Y-125100000D02*
X38938000Y-125100000D01*
X40710000Y-125140000D02*
X38961000Y-125140000D01*
X40710000Y-125180000D02*
X38985000Y-125180000D01*
X40710000Y-125220000D02*
X39009000Y-125220000D01*
X40710000Y-125260000D02*
X39034000Y-125260000D01*
X40710000Y-125300000D02*
X39060000Y-125300000D01*
X40710000Y-125340000D02*
X39087000Y-125340000D01*
X40710000Y-125380000D02*
X39114000Y-125380000D01*
X40710000Y-125420000D02*
X39143000Y-125420000D01*
X40710000Y-125460000D02*
X39173000Y-125460000D01*
X40710000Y-125500000D02*
X39203000Y-125500000D01*
X40710000Y-125540000D02*
X39234000Y-125540000D01*
X40710000Y-125580000D02*
X39267000Y-125580000D01*
X40710000Y-125620000D02*
X39300000Y-125620000D01*
X40710000Y-125660000D02*
X39335000Y-125660000D01*
X40710000Y-125700000D02*
X39371000Y-125700000D01*
X40710000Y-125740000D02*
X39408000Y-125740000D01*
X40710000Y-125780000D02*
X39446000Y-125780000D01*
X42152000Y-126740000D02*
X41348000Y-126740000D01*
X42383000Y-126700000D02*
X41117000Y-126700000D01*
X42551000Y-126660000D02*
X40949000Y-126660000D01*
X42689000Y-126620000D02*
X40811000Y-126620000D01*
X42808000Y-126580000D02*
X40692000Y-126580000D01*
X42915000Y-126540000D02*
X40585000Y-126540000D01*
X43011000Y-126500000D02*
X40489000Y-126500000D01*
X43100000Y-126460000D02*
X40400000Y-126460000D01*
X43182000Y-126420000D02*
X40318000Y-126420000D01*
X43259000Y-126380000D02*
X40241000Y-126380000D01*
X43331000Y-126340000D02*
X40169000Y-126340000D01*
X43399000Y-126300000D02*
X40101000Y-126300000D01*
X43464000Y-126260000D02*
X40036000Y-126260000D01*
X43525000Y-126220000D02*
X39975000Y-126220000D01*
X43584000Y-126180000D02*
X39916000Y-126180000D01*
X43589000Y-119999759D02*
X43589000Y-120629759D01*
X43640000Y-126140000D02*
X39860000Y-126140000D01*
X43693000Y-126100000D02*
X39807000Y-126100000D01*
X43745000Y-126060000D02*
X39755000Y-126060000D01*
X43794000Y-126020000D02*
X39706000Y-126020000D01*
X43841000Y-125980000D02*
X39659000Y-125980000D01*
X43887000Y-125940000D02*
X39613000Y-125940000D01*
X43904000Y-120314759D02*
X43274000Y-120314759D01*
X43931000Y-125900000D02*
X39569000Y-125900000D01*
X43973000Y-125860000D02*
X39527000Y-125860000D01*
X44014000Y-125820000D02*
X39486000Y-125820000D01*
X44054000Y-125780000D02*
X42790000Y-125780000D01*
X44092000Y-125740000D02*
X42790000Y-125740000D01*
X44129000Y-125700000D02*
X42790000Y-125700000D01*
X44165000Y-125660000D02*
X42790000Y-125660000D01*
X44200000Y-125620000D02*
X42790000Y-125620000D01*
X44233000Y-125580000D02*
X42790000Y-125580000D01*
X44266000Y-125540000D02*
X42790000Y-125540000D01*
X44297000Y-125500000D02*
X42790000Y-125500000D01*
X44327000Y-125460000D02*
X42790000Y-125460000D01*
X44357000Y-125420000D02*
X42790000Y-125420000D01*
X44386000Y-125380000D02*
X42790000Y-125380000D01*
X44413000Y-125340000D02*
X42790000Y-125340000D01*
X44440000Y-125300000D02*
X42790000Y-125300000D01*
X44466000Y-125260000D02*
X42790000Y-125260000D01*
X44491000Y-125220000D02*
X42790000Y-125220000D01*
X44515000Y-125180000D02*
X42790000Y-125180000D01*
X44539000Y-125140000D02*
X42790000Y-125140000D01*
X44562000Y-125100000D02*
X42790000Y-125100000D01*
X44584000Y-125060000D02*
X42790000Y-125060000D01*
X44605000Y-125020000D02*
X42790000Y-125020000D01*
X44626000Y-124980000D02*
X42790000Y-124980000D01*
X44646000Y-124940000D02*
X42790000Y-124940000D01*
X44665000Y-124900000D02*
X42790000Y-124900000D01*
X44684000Y-124860000D02*
X42790000Y-124860000D01*
X44702000Y-124820000D02*
X42790000Y-124820000D01*
X44719000Y-124780000D02*
X42790000Y-124780000D01*
X44736000Y-124740000D02*
X42790000Y-124740000D01*
X44752000Y-124700000D02*
X42790000Y-124700000D01*
X44767000Y-124660000D02*
X42790000Y-124660000D01*
X44782000Y-124620000D02*
X42790000Y-124620000D01*
X44797000Y-124580000D02*
X42790000Y-124580000D01*
X44810000Y-124540000D02*
X42790000Y-124540000D01*
X44823000Y-124500000D02*
X42790000Y-124500000D01*
X44836000Y-124460000D02*
X42790000Y-124460000D01*
X44848000Y-124420000D02*
X42790000Y-124420000D01*
X44859000Y-124380000D02*
X42790000Y-124380000D01*
X44870000Y-124340000D02*
X42790000Y-124340000D01*
X44881000Y-124300000D02*
X42790000Y-124300000D01*
X44890000Y-124260000D02*
X42790000Y-124260000D01*
X44900000Y-124220000D02*
X42790000Y-124220000D01*
X44909000Y-124180000D02*
X42790000Y-124180000D01*
X44917000Y-124140000D02*
X42790000Y-124140000D01*
X44924000Y-124100000D02*
X42790000Y-124100000D01*
X44932000Y-124060000D02*
X42790000Y-124060000D01*
X44938000Y-124020000D02*
X42790000Y-124020000D01*
X44945000Y-123980000D02*
X42790000Y-123980000D01*
X44950000Y-123940000D02*
X42790000Y-123940000D01*
X44955000Y-123900000D02*
X42790000Y-123900000D01*
X44960000Y-123860000D02*
X42790000Y-123860000D01*
X44964000Y-123820000D02*
X42790000Y-123820000D01*
X44968000Y-123780000D02*
X42790000Y-123780000D01*
X44971000Y-123740000D02*
X42790000Y-123740000D01*
X44974000Y-123700000D02*
X38526000Y-123700000D01*
X44976000Y-123660000D02*
X38524000Y-123660000D01*
X44978000Y-123620000D02*
X38522000Y-123620000D01*
X44979000Y-123580000D02*
X38521000Y-123580000D01*
X44980000Y-123500000D02*
X38520000Y-123500000D01*
X44980000Y-123540000D02*
X38520000Y-123540000D01*
X45020000Y-123500000D02*
G75*
G02*
X38480000Y-123500000I-3270000J0D01*
G01*
X38480000Y-123500000D02*
G75*
G02*
X45020000Y-123500000I3270000J0D01*
G01*
%TO.C,R7*%
X68500000Y-48460000D02*
X68500000Y-49230000D01*
X68500000Y-56540000D02*
X68500000Y-55770000D01*
X69870000Y-49230000D02*
X67130000Y-49230000D01*
X67130000Y-55770000D01*
X69870000Y-55770000D01*
X69870000Y-49230000D01*
%TO.C,D3*%
X48170000Y-43455000D02*
X48170000Y-46545000D01*
X48170000Y-43455170D02*
G75*
G02*
X53720000Y-45000000I2560000J-1544830D01*
G01*
X53720000Y-45000000D02*
G75*
G02*
X48170000Y-46544830I-2990000J0D01*
G01*
X53230000Y-45000000D02*
G75*
G02*
X48230000Y-45000000I-2500000J0D01*
G01*
X48230000Y-45000000D02*
G75*
G02*
X53230000Y-45000000I2500000J0D01*
G01*
%TO.C,J23*%
X89170000Y-41310000D02*
X89170000Y-36170000D01*
X89170000Y-43910000D02*
X89170000Y-42580000D01*
X90500000Y-43910000D02*
X89170000Y-43910000D01*
X91830000Y-36170000D02*
X89170000Y-36170000D01*
X91830000Y-41310000D02*
X89170000Y-41310000D01*
X91830000Y-41310000D02*
X91830000Y-36170000D01*
%TO.C,J9*%
X25670000Y-27700000D02*
X25670000Y-35380000D01*
X25670000Y-27700000D02*
X28330000Y-27700000D01*
X25670000Y-35380000D02*
X28330000Y-35380000D01*
X27000000Y-25100000D02*
X28330000Y-25100000D01*
X28330000Y-25100000D02*
X28330000Y-26430000D01*
X28330000Y-27700000D02*
X28330000Y-35380000D01*
%TO.C,R2*%
X47000000Y-126960000D02*
X47000000Y-127730000D01*
X47000000Y-135040000D02*
X47000000Y-134270000D01*
X48370000Y-127730000D02*
X45630000Y-127730000D01*
X45630000Y-134270000D01*
X48370000Y-134270000D01*
X48370000Y-127730000D01*
%TO.C,U1*%
X54220000Y-98915000D02*
X55220000Y-97915000D01*
X54220000Y-100715000D02*
X54220000Y-98915000D01*
X54220000Y-100715000D02*
X54220000Y-102015000D01*
X54220000Y-102515000D02*
X54220000Y-102015000D01*
X55220000Y-97415000D02*
X55220000Y-104015000D01*
X55220000Y-103515000D02*
X54220000Y-102515000D01*
X55220000Y-104015000D02*
X61320000Y-104015000D01*
X61320000Y-97415000D02*
X55220000Y-97415000D01*
X61320000Y-97915000D02*
X64120000Y-97915000D01*
X61320000Y-98915000D02*
X64120000Y-98915000D01*
X61320000Y-100215000D02*
X62320000Y-100215000D01*
X61320000Y-100715000D02*
X61320000Y-97415000D01*
X61320000Y-102515000D02*
X64120000Y-102515000D01*
X61320000Y-104015000D02*
X61320000Y-100715000D01*
X62320000Y-100215000D02*
X62320000Y-101215000D01*
X62320000Y-101215000D02*
X61320000Y-101215000D01*
X64120000Y-97915000D02*
X64120000Y-98915000D01*
X64120000Y-102515000D02*
X64120000Y-103515000D01*
X64120000Y-103515000D02*
X61320000Y-103515000D01*
%TO.C,J13*%
X52290000Y-127130000D02*
X52290000Y-125750000D01*
X53670000Y-127130000D02*
X52290000Y-127130000D01*
X54940000Y-124370000D02*
X60130000Y-124370000D01*
X54940000Y-127130000D02*
X54940000Y-124370000D01*
X54940000Y-127130000D02*
X60130000Y-127130000D01*
X60130000Y-127130000D02*
X60130000Y-124370000D01*
%TO.C,J22*%
X89145000Y-56255000D02*
X89145000Y-51115000D01*
X89145000Y-58855000D02*
X89145000Y-57525000D01*
X90475000Y-58855000D02*
X89145000Y-58855000D01*
X91805000Y-51115000D02*
X89145000Y-51115000D01*
X91805000Y-56255000D02*
X89145000Y-56255000D01*
X91805000Y-56255000D02*
X91805000Y-51115000D01*
%TO.C,J6*%
X30150000Y-20000000D02*
X30150000Y-41250000D01*
X30150000Y-20000000D02*
X33150000Y-20000000D01*
X30150000Y-41250000D02*
X48650000Y-41250000D01*
X33150000Y-16500000D02*
X45650000Y-16500000D01*
X33150000Y-20000000D02*
X33150000Y-16500000D01*
X33150000Y-20000000D02*
X45650000Y-20000000D01*
X35150000Y-41250000D02*
X35150000Y-43250000D01*
X35150000Y-43250000D02*
X44150000Y-43250000D01*
X44150000Y-43250000D02*
X44150000Y-41250000D01*
X45650000Y-20000000D02*
X45650000Y-16500000D01*
X48650000Y-20000000D02*
X45650000Y-20000000D01*
X48650000Y-20000000D02*
X48650000Y-41250000D01*
%TO.C,J15*%
X89170000Y-125850000D02*
X89170000Y-118170000D01*
X89170000Y-128450000D02*
X89170000Y-127120000D01*
X90500000Y-128450000D02*
X89170000Y-128450000D01*
X91830000Y-118170000D02*
X89170000Y-118170000D01*
X91830000Y-125850000D02*
X89170000Y-125850000D01*
X91830000Y-125850000D02*
X91830000Y-118170000D01*
%TO.C,C4*%
X57380000Y-93880000D02*
X64620000Y-93880000D01*
X57380000Y-96120000D02*
X57380000Y-93880000D01*
X64620000Y-93880000D02*
X64620000Y-96120000D01*
X64620000Y-96120000D02*
X57380000Y-96120000D01*
%TO.C,U2*%
X55317600Y-55025000D02*
X55317600Y-53075000D01*
X55317600Y-55025000D02*
X55317600Y-56975000D01*
X60437600Y-55025000D02*
X60437600Y-53075000D01*
X60437600Y-55025000D02*
X60437600Y-56975000D01*
X55412600Y-57725000D02*
X55082600Y-57965000D01*
X55082600Y-57485000D01*
X55412600Y-57725000D01*
G36*
X55412600Y-57725000D02*
G01*
X55082600Y-57965000D01*
X55082600Y-57485000D01*
X55412600Y-57725000D01*
G37*
%TO.C,J25*%
X76130000Y-71360000D02*
X76130000Y-74020000D01*
X81270000Y-71360000D02*
X76130000Y-71360000D01*
X81270000Y-71360000D02*
X81270000Y-74020000D01*
X81270000Y-74020000D02*
X76130000Y-74020000D01*
X83870000Y-72690000D02*
X83870000Y-74020000D01*
X83870000Y-74020000D02*
X82540000Y-74020000D01*
%TO.C,J18*%
X31080000Y-50520000D02*
X31080000Y-45380000D01*
X31080000Y-50520000D02*
X28420000Y-50520000D01*
X31080000Y-45380000D02*
X28420000Y-45380000D01*
X29750000Y-53120000D02*
X28420000Y-53120000D01*
X28420000Y-53120000D02*
X28420000Y-51790000D01*
X28420000Y-50520000D02*
X28420000Y-45380000D01*
%TO.C,J7*%
X82300000Y-136450000D02*
X102800000Y-136450000D01*
X82300000Y-148450000D02*
X82300000Y-136450000D01*
X102800000Y-136450000D02*
X102800000Y-142450000D01*
X102800000Y-142450000D02*
X102800000Y-148450000D01*
X102800000Y-148450000D02*
X82300000Y-148450000D01*
%TO.C,J12*%
X28445000Y-86720000D02*
X28445000Y-94400000D01*
X28445000Y-86720000D02*
X31105000Y-86720000D01*
X28445000Y-94400000D02*
X31105000Y-94400000D01*
X29775000Y-84120000D02*
X31105000Y-84120000D01*
X31105000Y-84120000D02*
X31105000Y-85450000D01*
X31105000Y-86720000D02*
X31105000Y-94400000D01*
%TO.C,C8*%
X53352600Y-47380000D02*
X60592600Y-47380000D01*
X53352600Y-49620000D02*
X53352600Y-47380000D01*
X60592600Y-47380000D02*
X60592600Y-49620000D01*
X60592600Y-49620000D02*
X53352600Y-49620000D01*
%TO.C,J31*%
X41630000Y-94360000D02*
X41630000Y-97020000D01*
X46770000Y-94360000D02*
X41630000Y-94360000D01*
X46770000Y-94360000D02*
X46770000Y-97020000D01*
X46770000Y-97020000D02*
X41630000Y-97020000D01*
X49370000Y-95690000D02*
X49370000Y-97020000D01*
X49370000Y-97020000D02*
X48040000Y-97020000D01*
%TO.C,J14*%
X94380000Y-84380000D02*
X102220000Y-84380000D01*
X94380000Y-86700000D02*
X94380000Y-84380000D01*
X94380000Y-134620000D02*
X94380000Y-87300000D01*
X95100000Y-84380000D02*
X95100000Y-134620000D01*
X95700000Y-84380000D02*
X95700000Y-134620000D01*
X100400000Y-84380000D02*
X100400000Y-134620000D01*
X102220000Y-84380000D02*
X102220000Y-134620000D01*
X102220000Y-134620000D02*
X94380000Y-134620000D01*
X101550000Y-87000000D02*
G75*
G02*
X100450000Y-87000000I-550000J0D01*
G01*
X100450000Y-87000000D02*
G75*
G02*
X101550000Y-87000000I550000J0D01*
G01*
X101550000Y-92000000D02*
G75*
G02*
X100450000Y-92000000I-550000J0D01*
G01*
X100450000Y-92000000D02*
G75*
G02*
X101550000Y-92000000I550000J0D01*
G01*
X101550000Y-97000000D02*
G75*
G02*
X100450000Y-97000000I-550000J0D01*
G01*
X100450000Y-97000000D02*
G75*
G02*
X101550000Y-97000000I550000J0D01*
G01*
X101550000Y-102000000D02*
G75*
G02*
X100450000Y-102000000I-550000J0D01*
G01*
X100450000Y-102000000D02*
G75*
G02*
X101550000Y-102000000I550000J0D01*
G01*
X101550000Y-107000000D02*
G75*
G02*
X100450000Y-107000000I-550000J0D01*
G01*
X100450000Y-107000000D02*
G75*
G02*
X101550000Y-107000000I550000J0D01*
G01*
X101550000Y-112000000D02*
G75*
G02*
X100450000Y-112000000I-550000J0D01*
G01*
X100450000Y-112000000D02*
G75*
G02*
X101550000Y-112000000I550000J0D01*
G01*
X101550000Y-117000000D02*
G75*
G02*
X100450000Y-117000000I-550000J0D01*
G01*
X100450000Y-117000000D02*
G75*
G02*
X101550000Y-117000000I550000J0D01*
G01*
X101550000Y-122000000D02*
G75*
G02*
X100450000Y-122000000I-550000J0D01*
G01*
X100450000Y-122000000D02*
G75*
G02*
X101550000Y-122000000I550000J0D01*
G01*
X101550000Y-127000000D02*
G75*
G02*
X100450000Y-127000000I-550000J0D01*
G01*
X100450000Y-127000000D02*
G75*
G02*
X101550000Y-127000000I550000J0D01*
G01*
X101550000Y-132000000D02*
G75*
G02*
X100450000Y-132000000I-550000J0D01*
G01*
X100450000Y-132000000D02*
G75*
G02*
X101550000Y-132000000I550000J0D01*
G01*
X94380000Y-87000000D02*
X93770000Y-87440000D01*
X93770000Y-86560000D01*
X94380000Y-87000000D01*
G36*
X94380000Y-87000000D02*
G01*
X93770000Y-87440000D01*
X93770000Y-86560000D01*
X94380000Y-87000000D01*
G37*
%TO.C,C3*%
X58010000Y-90402000D02*
X58010000Y-89598000D01*
X58050000Y-90633000D02*
X58050000Y-89367000D01*
X58090000Y-90801000D02*
X58090000Y-89199000D01*
X58130000Y-90939000D02*
X58130000Y-89061000D01*
X58170000Y-91058000D02*
X58170000Y-88942000D01*
X58210000Y-91165000D02*
X58210000Y-88835000D01*
X58250000Y-91261000D02*
X58250000Y-88739000D01*
X58290000Y-91350000D02*
X58290000Y-88650000D01*
X58330000Y-91432000D02*
X58330000Y-88568000D01*
X58370000Y-91509000D02*
X58370000Y-88491000D01*
X58410000Y-91581000D02*
X58410000Y-88419000D01*
X58450000Y-91649000D02*
X58450000Y-88351000D01*
X58490000Y-91714000D02*
X58490000Y-88286000D01*
X58530000Y-91775000D02*
X58530000Y-88225000D01*
X58570000Y-91834000D02*
X58570000Y-88166000D01*
X58610000Y-91890000D02*
X58610000Y-88110000D01*
X58650000Y-91943000D02*
X58650000Y-88057000D01*
X58690000Y-91995000D02*
X58690000Y-88005000D01*
X58730000Y-92044000D02*
X58730000Y-87956000D01*
X58770000Y-92091000D02*
X58770000Y-87909000D01*
X58810000Y-92137000D02*
X58810000Y-87863000D01*
X58850000Y-92181000D02*
X58850000Y-87819000D01*
X58890000Y-92223000D02*
X58890000Y-87777000D01*
X58930000Y-92264000D02*
X58930000Y-87736000D01*
X58970000Y-88960000D02*
X58970000Y-87696000D01*
X58970000Y-92304000D02*
X58970000Y-91040000D01*
X59010000Y-88960000D02*
X59010000Y-87658000D01*
X59010000Y-92342000D02*
X59010000Y-91040000D01*
X59050000Y-88960000D02*
X59050000Y-87621000D01*
X59050000Y-92379000D02*
X59050000Y-91040000D01*
X59090000Y-88960000D02*
X59090000Y-87585000D01*
X59090000Y-92415000D02*
X59090000Y-91040000D01*
X59130000Y-88960000D02*
X59130000Y-87550000D01*
X59130000Y-92450000D02*
X59130000Y-91040000D01*
X59170000Y-88960000D02*
X59170000Y-87517000D01*
X59170000Y-92483000D02*
X59170000Y-91040000D01*
X59210000Y-88960000D02*
X59210000Y-87484000D01*
X59210000Y-92516000D02*
X59210000Y-91040000D01*
X59250000Y-88960000D02*
X59250000Y-87453000D01*
X59250000Y-92547000D02*
X59250000Y-91040000D01*
X59290000Y-88960000D02*
X59290000Y-87423000D01*
X59290000Y-92577000D02*
X59290000Y-91040000D01*
X59330000Y-88960000D02*
X59330000Y-87393000D01*
X59330000Y-92607000D02*
X59330000Y-91040000D01*
X59370000Y-88960000D02*
X59370000Y-87364000D01*
X59370000Y-92636000D02*
X59370000Y-91040000D01*
X59410000Y-88960000D02*
X59410000Y-87337000D01*
X59410000Y-92663000D02*
X59410000Y-91040000D01*
X59450000Y-88960000D02*
X59450000Y-87310000D01*
X59450000Y-92690000D02*
X59450000Y-91040000D01*
X59490000Y-88960000D02*
X59490000Y-87284000D01*
X59490000Y-92716000D02*
X59490000Y-91040000D01*
X59530000Y-88960000D02*
X59530000Y-87259000D01*
X59530000Y-92741000D02*
X59530000Y-91040000D01*
X59570000Y-88960000D02*
X59570000Y-87235000D01*
X59570000Y-92765000D02*
X59570000Y-91040000D01*
X59610000Y-88960000D02*
X59610000Y-87211000D01*
X59610000Y-92789000D02*
X59610000Y-91040000D01*
X59650000Y-88960000D02*
X59650000Y-87188000D01*
X59650000Y-92812000D02*
X59650000Y-91040000D01*
X59690000Y-88960000D02*
X59690000Y-87166000D01*
X59690000Y-92834000D02*
X59690000Y-91040000D01*
X59730000Y-88960000D02*
X59730000Y-87145000D01*
X59730000Y-92855000D02*
X59730000Y-91040000D01*
X59770000Y-88960000D02*
X59770000Y-87124000D01*
X59770000Y-92876000D02*
X59770000Y-91040000D01*
X59810000Y-88960000D02*
X59810000Y-87104000D01*
X59810000Y-92896000D02*
X59810000Y-91040000D01*
X59850000Y-88960000D02*
X59850000Y-87085000D01*
X59850000Y-92915000D02*
X59850000Y-91040000D01*
X59890000Y-88960000D02*
X59890000Y-87066000D01*
X59890000Y-92934000D02*
X59890000Y-91040000D01*
X59930000Y-88960000D02*
X59930000Y-87048000D01*
X59930000Y-92952000D02*
X59930000Y-91040000D01*
X59970000Y-88960000D02*
X59970000Y-87031000D01*
X59970000Y-92969000D02*
X59970000Y-91040000D01*
X60010000Y-88960000D02*
X60010000Y-87014000D01*
X60010000Y-92986000D02*
X60010000Y-91040000D01*
X60050000Y-88960000D02*
X60050000Y-86998000D01*
X60050000Y-93002000D02*
X60050000Y-91040000D01*
X60090000Y-88960000D02*
X60090000Y-86983000D01*
X60090000Y-93017000D02*
X60090000Y-91040000D01*
X60130000Y-88960000D02*
X60130000Y-86968000D01*
X60130000Y-93032000D02*
X60130000Y-91040000D01*
X60170000Y-88960000D02*
X60170000Y-86953000D01*
X60170000Y-93047000D02*
X60170000Y-91040000D01*
X60210000Y-88960000D02*
X60210000Y-86940000D01*
X60210000Y-93060000D02*
X60210000Y-91040000D01*
X60250000Y-88960000D02*
X60250000Y-86927000D01*
X60250000Y-93073000D02*
X60250000Y-91040000D01*
X60290000Y-88960000D02*
X60290000Y-86914000D01*
X60290000Y-93086000D02*
X60290000Y-91040000D01*
X60330000Y-88960000D02*
X60330000Y-86902000D01*
X60330000Y-93098000D02*
X60330000Y-91040000D01*
X60370000Y-88960000D02*
X60370000Y-86891000D01*
X60370000Y-93109000D02*
X60370000Y-91040000D01*
X60410000Y-88960000D02*
X60410000Y-86880000D01*
X60410000Y-93120000D02*
X60410000Y-91040000D01*
X60450000Y-88960000D02*
X60450000Y-86869000D01*
X60450000Y-93131000D02*
X60450000Y-91040000D01*
X60490000Y-88960000D02*
X60490000Y-86860000D01*
X60490000Y-93140000D02*
X60490000Y-91040000D01*
X60530000Y-88960000D02*
X60530000Y-86850000D01*
X60530000Y-93150000D02*
X60530000Y-91040000D01*
X60570000Y-88960000D02*
X60570000Y-86841000D01*
X60570000Y-93159000D02*
X60570000Y-91040000D01*
X60610000Y-88960000D02*
X60610000Y-86833000D01*
X60610000Y-93167000D02*
X60610000Y-91040000D01*
X60650000Y-88960000D02*
X60650000Y-86826000D01*
X60650000Y-93174000D02*
X60650000Y-91040000D01*
X60690000Y-88960000D02*
X60690000Y-86818000D01*
X60690000Y-93182000D02*
X60690000Y-91040000D01*
X60730000Y-88960000D02*
X60730000Y-86812000D01*
X60730000Y-93188000D02*
X60730000Y-91040000D01*
X60770000Y-88960000D02*
X60770000Y-86805000D01*
X60770000Y-93195000D02*
X60770000Y-91040000D01*
X60810000Y-88960000D02*
X60810000Y-86800000D01*
X60810000Y-93200000D02*
X60810000Y-91040000D01*
X60850000Y-88960000D02*
X60850000Y-86795000D01*
X60850000Y-93205000D02*
X60850000Y-91040000D01*
X60890000Y-88960000D02*
X60890000Y-86790000D01*
X60890000Y-93210000D02*
X60890000Y-91040000D01*
X60930000Y-88960000D02*
X60930000Y-86786000D01*
X60930000Y-93214000D02*
X60930000Y-91040000D01*
X60970000Y-88960000D02*
X60970000Y-86782000D01*
X60970000Y-93218000D02*
X60970000Y-91040000D01*
X61010000Y-88960000D02*
X61010000Y-86779000D01*
X61010000Y-93221000D02*
X61010000Y-91040000D01*
X61050000Y-93224000D02*
X61050000Y-86776000D01*
X61090000Y-93226000D02*
X61090000Y-86774000D01*
X61130000Y-93228000D02*
X61130000Y-86772000D01*
X61170000Y-93229000D02*
X61170000Y-86771000D01*
X61210000Y-93230000D02*
X61210000Y-86770000D01*
X61250000Y-93230000D02*
X61250000Y-86770000D01*
X64435241Y-92154000D02*
X64435241Y-91524000D01*
X64750241Y-91839000D02*
X64120241Y-91839000D01*
X64520000Y-90000000D02*
G75*
G02*
X57980000Y-90000000I-3270000J0D01*
G01*
X57980000Y-90000000D02*
G75*
G02*
X64520000Y-90000000I3270000J0D01*
G01*
%TO.C,J16*%
X89170000Y-107770000D02*
X89170000Y-102630000D01*
X89170000Y-110370000D02*
X89170000Y-109040000D01*
X90500000Y-110370000D02*
X89170000Y-110370000D01*
X91830000Y-102630000D02*
X89170000Y-102630000D01*
X91830000Y-107770000D02*
X89170000Y-107770000D01*
X91830000Y-107770000D02*
X91830000Y-102630000D01*
%TO.C,J17*%
X89170000Y-93270000D02*
X89170000Y-88130000D01*
X89170000Y-95870000D02*
X89170000Y-94540000D01*
X90500000Y-95870000D02*
X89170000Y-95870000D01*
X91830000Y-88130000D02*
X89170000Y-88130000D01*
X91830000Y-93270000D02*
X89170000Y-93270000D01*
X91830000Y-93270000D02*
X91830000Y-88130000D01*
%TO.C,D1*%
X64455000Y-143290000D02*
X67545000Y-143290000D01*
X64455170Y-143290000D02*
G75*
G02*
X66000000Y-137740000I1544830J2560000D01*
G01*
X66000000Y-137740000D02*
G75*
G02*
X67544830Y-143290000I0J-2990000D01*
G01*
X68500000Y-140730000D02*
G75*
G02*
X63500000Y-140730000I-2500000J0D01*
G01*
X63500000Y-140730000D02*
G75*
G02*
X68500000Y-140730000I2500000J0D01*
G01*
%TO.C,R4*%
X43380000Y-118500000D02*
X44150000Y-118500000D01*
X51460000Y-118500000D02*
X50690000Y-118500000D01*
X50690000Y-119870000D02*
X44150000Y-119870000D01*
X44150000Y-117130000D01*
X50690000Y-117130000D01*
X50690000Y-119870000D01*
%TO.C,R3*%
X62472600Y-48460000D02*
X62472600Y-49230000D01*
X62472600Y-56540000D02*
X62472600Y-55770000D01*
X61102600Y-55770000D02*
X63842600Y-55770000D01*
X63842600Y-49230000D01*
X61102600Y-49230000D01*
X61102600Y-55770000D01*
%TO.C,C2*%
X57380000Y-107620000D02*
X57380000Y-105380000D01*
X64620000Y-105380000D02*
X57380000Y-105380000D01*
X64620000Y-107620000D02*
X57380000Y-107620000D01*
X64620000Y-107620000D02*
X64620000Y-105380000D01*
%TO.C,J30*%
X41630000Y-109860000D02*
X41630000Y-112520000D01*
X46770000Y-109860000D02*
X41630000Y-109860000D01*
X46770000Y-109860000D02*
X46770000Y-112520000D01*
X46770000Y-112520000D02*
X41630000Y-112520000D01*
X49370000Y-111190000D02*
X49370000Y-112520000D01*
X49370000Y-112520000D02*
X48040000Y-112520000D01*
%TO.C,C7*%
X71660000Y-63700000D02*
X70429000Y-63700000D01*
X71660000Y-63740000D02*
X70434000Y-63740000D01*
X71660000Y-63780000D02*
X70439000Y-63780000D01*
X71660000Y-63820000D02*
X70444000Y-63820000D01*
X71660000Y-63860000D02*
X70451000Y-63860000D01*
X71660000Y-63900000D02*
X70458000Y-63900000D01*
X71660000Y-63940000D02*
X70466000Y-63940000D01*
X71660000Y-63980000D02*
X70475000Y-63980000D01*
X71660000Y-64020000D02*
X70485000Y-64020000D01*
X71660000Y-64060000D02*
X70495000Y-64060000D01*
X71660000Y-64100000D02*
X70507000Y-64100000D01*
X71660000Y-64140000D02*
X70519000Y-64140000D01*
X71660000Y-64180000D02*
X70532000Y-64180000D01*
X71660000Y-64220000D02*
X70546000Y-64220000D01*
X71660000Y-64260000D02*
X70561000Y-64260000D01*
X71660000Y-64300000D02*
X70577000Y-64300000D01*
X71660000Y-64340000D02*
X70594000Y-64340000D01*
X71660000Y-64380000D02*
X70611000Y-64380000D01*
X71660000Y-64420000D02*
X70630000Y-64420000D01*
X71660000Y-64460000D02*
X70650000Y-64460000D01*
X71660000Y-64500000D02*
X70671000Y-64500000D01*
X71660000Y-64540000D02*
X70693000Y-64540000D01*
X71660000Y-64580000D02*
X70716000Y-64580000D01*
X71660000Y-64620000D02*
X70740000Y-64620000D01*
X71660000Y-64660000D02*
X70766000Y-64660000D01*
X71660000Y-64700000D02*
X70792000Y-64700000D01*
X71660000Y-64740000D02*
X70820000Y-64740000D01*
X71660000Y-64780000D02*
X70850000Y-64780000D01*
X71660000Y-64820000D02*
X70881000Y-64820000D01*
X71660000Y-64860000D02*
X70914000Y-64860000D01*
X71660000Y-64900000D02*
X70948000Y-64900000D01*
X71660000Y-64940000D02*
X70984000Y-64940000D01*
X71660000Y-64980000D02*
X71022000Y-64980000D01*
X71660000Y-65020000D02*
X71062000Y-65020000D01*
X71660000Y-65060000D02*
X71104000Y-65060000D01*
X71660000Y-65100000D02*
X71149000Y-65100000D01*
X71660000Y-65140000D02*
X71197000Y-65140000D01*
X71660000Y-65180000D02*
X71247000Y-65180000D01*
X71660000Y-65220000D02*
X71301000Y-65220000D01*
X71660000Y-65260000D02*
X71358000Y-65260000D01*
X71660000Y-65300000D02*
X71420000Y-65300000D01*
X72870000Y-65580000D02*
X72130000Y-65580000D01*
X73037000Y-65540000D02*
X71963000Y-65540000D01*
X73163000Y-65500000D02*
X71837000Y-65500000D01*
X73268000Y-65460000D02*
X71732000Y-65460000D01*
X73359000Y-65420000D02*
X71641000Y-65420000D01*
X73440000Y-65380000D02*
X71560000Y-65380000D01*
X73513000Y-65340000D02*
X71487000Y-65340000D01*
X73580000Y-65300000D02*
X73340000Y-65300000D01*
X73642000Y-65260000D02*
X73340000Y-65260000D01*
X73695000Y-61230199D02*
X73695000Y-61630199D01*
X73699000Y-65220000D02*
X73340000Y-65220000D01*
X73753000Y-65180000D02*
X73340000Y-65180000D01*
X73803000Y-65140000D02*
X73340000Y-65140000D01*
X73851000Y-65100000D02*
X73340000Y-65100000D01*
X73895000Y-61430199D02*
X73495000Y-61430199D01*
X73896000Y-65060000D02*
X73340000Y-65060000D01*
X73938000Y-65020000D02*
X73340000Y-65020000D01*
X73978000Y-64980000D02*
X73340000Y-64980000D01*
X74016000Y-64940000D02*
X73340000Y-64940000D01*
X74052000Y-64900000D02*
X73340000Y-64900000D01*
X74086000Y-64860000D02*
X73340000Y-64860000D01*
X74119000Y-64820000D02*
X73340000Y-64820000D01*
X74150000Y-64780000D02*
X73340000Y-64780000D01*
X74180000Y-64740000D02*
X73340000Y-64740000D01*
X74208000Y-64700000D02*
X73340000Y-64700000D01*
X74234000Y-64660000D02*
X73340000Y-64660000D01*
X74260000Y-64620000D02*
X73340000Y-64620000D01*
X74284000Y-64580000D02*
X73340000Y-64580000D01*
X74307000Y-64540000D02*
X73340000Y-64540000D01*
X74329000Y-64500000D02*
X73340000Y-64500000D01*
X74350000Y-64460000D02*
X73340000Y-64460000D01*
X74370000Y-64420000D02*
X73340000Y-64420000D01*
X74389000Y-64380000D02*
X73340000Y-64380000D01*
X74406000Y-64340000D02*
X73340000Y-64340000D01*
X74423000Y-64300000D02*
X73340000Y-64300000D01*
X74439000Y-64260000D02*
X73340000Y-64260000D01*
X74454000Y-64220000D02*
X73340000Y-64220000D01*
X74468000Y-64180000D02*
X73340000Y-64180000D01*
X74481000Y-64140000D02*
X73340000Y-64140000D01*
X74493000Y-64100000D02*
X73340000Y-64100000D01*
X74505000Y-64060000D02*
X73340000Y-64060000D01*
X74515000Y-64020000D02*
X73340000Y-64020000D01*
X74525000Y-63980000D02*
X73340000Y-63980000D01*
X74534000Y-63940000D02*
X73340000Y-63940000D01*
X74542000Y-63900000D02*
X73340000Y-63900000D01*
X74549000Y-63860000D02*
X73340000Y-63860000D01*
X74556000Y-63820000D02*
X73340000Y-63820000D01*
X74561000Y-63780000D02*
X73340000Y-63780000D01*
X74566000Y-63740000D02*
X73340000Y-63740000D01*
X74571000Y-63700000D02*
X73340000Y-63700000D01*
X74574000Y-63660000D02*
X70426000Y-63660000D01*
X74577000Y-63620000D02*
X70423000Y-63620000D01*
X74578000Y-63580000D02*
X70422000Y-63580000D01*
X74580000Y-63500000D02*
X70420000Y-63500000D01*
X74580000Y-63540000D02*
X70420000Y-63540000D01*
X74620000Y-63500000D02*
G75*
G02*
X70380000Y-63500000I-2120000J0D01*
G01*
X70380000Y-63500000D02*
G75*
G02*
X74620000Y-63500000I2120000J0D01*
G01*
%TO.C,J24*%
X76115000Y-86885000D02*
X76115000Y-89545000D01*
X81255000Y-86885000D02*
X76115000Y-86885000D01*
X81255000Y-86885000D02*
X81255000Y-89545000D01*
X81255000Y-89545000D02*
X76115000Y-89545000D01*
X83855000Y-88215000D02*
X83855000Y-89545000D01*
X83855000Y-89545000D02*
X82525000Y-89545000D01*
%TO.C,J1*%
X28420000Y-74440000D02*
X28420000Y-82120000D01*
X28420000Y-74440000D02*
X31080000Y-74440000D01*
X28420000Y-82120000D02*
X31080000Y-82120000D01*
X29750000Y-71840000D02*
X31080000Y-71840000D01*
X31080000Y-71840000D02*
X31080000Y-73170000D01*
X31080000Y-74440000D02*
X31080000Y-82120000D01*
%TO.C,J26*%
X76090000Y-109860000D02*
X76090000Y-112520000D01*
X81230000Y-109860000D02*
X76090000Y-109860000D01*
X81230000Y-109860000D02*
X81230000Y-112520000D01*
X81230000Y-112520000D02*
X76090000Y-112520000D01*
X83830000Y-111190000D02*
X83830000Y-112520000D01*
X83830000Y-112520000D02*
X82500000Y-112520000D01*
%TO.C,J8*%
X44770000Y-146320000D02*
X44770000Y-149080000D01*
X47420000Y-146320000D02*
X44770000Y-146320000D01*
X47420000Y-146320000D02*
X47420000Y-149080000D01*
X47420000Y-149080000D02*
X44770000Y-149080000D01*
X48690000Y-146320000D02*
X50070000Y-146320000D01*
X50070000Y-146320000D02*
X50070000Y-147700000D01*
%TO.C,R5*%
X43460000Y-115250000D02*
X44230000Y-115250000D01*
X51540000Y-115250000D02*
X50770000Y-115250000D01*
X44230000Y-113880000D02*
X50770000Y-113880000D01*
X50770000Y-116620000D01*
X44230000Y-116620000D01*
X44230000Y-113880000D01*
%TO.C,J19*%
X94380000Y-32380000D02*
X102220000Y-32380000D01*
X94380000Y-34700000D02*
X94380000Y-32380000D01*
X94380000Y-82620000D02*
X94380000Y-35300000D01*
X95100000Y-32380000D02*
X95100000Y-82620000D01*
X95700000Y-32380000D02*
X95700000Y-82620000D01*
X100400000Y-32380000D02*
X100400000Y-82620000D01*
X102220000Y-32380000D02*
X102220000Y-82620000D01*
X102220000Y-82620000D02*
X94380000Y-82620000D01*
X101550000Y-35000000D02*
G75*
G02*
X100450000Y-35000000I-550000J0D01*
G01*
X100450000Y-35000000D02*
G75*
G02*
X101550000Y-35000000I550000J0D01*
G01*
X101550000Y-40000000D02*
G75*
G02*
X100450000Y-40000000I-550000J0D01*
G01*
X100450000Y-40000000D02*
G75*
G02*
X101550000Y-40000000I550000J0D01*
G01*
X101550000Y-45000000D02*
G75*
G02*
X100450000Y-45000000I-550000J0D01*
G01*
X100450000Y-45000000D02*
G75*
G02*
X101550000Y-45000000I550000J0D01*
G01*
X101550000Y-50000000D02*
G75*
G02*
X100450000Y-50000000I-550000J0D01*
G01*
X100450000Y-50000000D02*
G75*
G02*
X101550000Y-50000000I550000J0D01*
G01*
X101550000Y-55000000D02*
G75*
G02*
X100450000Y-55000000I-550000J0D01*
G01*
X100450000Y-55000000D02*
G75*
G02*
X101550000Y-55000000I550000J0D01*
G01*
X101550000Y-60000000D02*
G75*
G02*
X100450000Y-60000000I-550000J0D01*
G01*
X100450000Y-60000000D02*
G75*
G02*
X101550000Y-60000000I550000J0D01*
G01*
X101550000Y-65000000D02*
G75*
G02*
X100450000Y-65000000I-550000J0D01*
G01*
X100450000Y-65000000D02*
G75*
G02*
X101550000Y-65000000I550000J0D01*
G01*
X101550000Y-70000000D02*
G75*
G02*
X100450000Y-70000000I-550000J0D01*
G01*
X100450000Y-70000000D02*
G75*
G02*
X101550000Y-70000000I550000J0D01*
G01*
X101550000Y-75000000D02*
G75*
G02*
X100450000Y-75000000I-550000J0D01*
G01*
X100450000Y-75000000D02*
G75*
G02*
X101550000Y-75000000I550000J0D01*
G01*
X101550000Y-80000000D02*
G75*
G02*
X100450000Y-80000000I-550000J0D01*
G01*
X100450000Y-80000000D02*
G75*
G02*
X101550000Y-80000000I550000J0D01*
G01*
X94380000Y-35000000D02*
X93770000Y-35440000D01*
X93770000Y-34560000D01*
X94380000Y-35000000D01*
G36*
X94380000Y-35000000D02*
G01*
X93770000Y-35440000D01*
X93770000Y-34560000D01*
X94380000Y-35000000D01*
G37*
%TO.C,K1*%
X39780100Y-51677500D02*
X40280100Y-51677500D01*
X39780100Y-58377500D02*
X39780100Y-51677500D01*
X40280100Y-58377500D02*
X39780100Y-58377500D01*
X41880100Y-51677500D02*
X42480100Y-51677500D01*
X42480100Y-58377500D02*
X41880100Y-58377500D01*
X44080100Y-51677500D02*
X44880100Y-51677500D01*
X44880100Y-58377500D02*
X44080100Y-58377500D01*
X46480100Y-51677500D02*
X47580100Y-51677500D01*
X47880100Y-58377500D02*
X46480100Y-58377500D01*
X48680100Y-51377500D02*
X50280100Y-51377500D01*
X49980100Y-51677500D02*
X49780100Y-51677500D01*
X49980100Y-51677500D02*
X49980100Y-58377500D01*
X49980100Y-58377500D02*
X49480100Y-58377500D01*
X50280100Y-51377500D02*
X50280100Y-52977500D01*
%TO.C,J27*%
X76130000Y-94310000D02*
X76130000Y-96970000D01*
X81270000Y-94310000D02*
X76130000Y-94310000D01*
X81270000Y-94310000D02*
X81270000Y-96970000D01*
X81270000Y-96970000D02*
X76130000Y-96970000D01*
X83870000Y-95640000D02*
X83870000Y-96970000D01*
X83870000Y-96970000D02*
X82540000Y-96970000D01*
%TO.C,JP1*%
X62040000Y-118380000D02*
X62040000Y-117000000D01*
X63420000Y-118380000D02*
X62040000Y-118380000D01*
X64690000Y-115620000D02*
X69880000Y-115620000D01*
X64690000Y-118380000D02*
X64690000Y-115620000D01*
X64690000Y-118380000D02*
X69880000Y-118380000D01*
X69880000Y-118380000D02*
X69880000Y-115620000D01*
%TO.C,J28*%
X41630000Y-86860000D02*
X41630000Y-89520000D01*
X46770000Y-86860000D02*
X41630000Y-86860000D01*
X46770000Y-86860000D02*
X46770000Y-89520000D01*
X46770000Y-89520000D02*
X41630000Y-89520000D01*
X49370000Y-88190000D02*
X49370000Y-89520000D01*
X49370000Y-89520000D02*
X48040000Y-89520000D01*
%TO.C,J11*%
X70250000Y-20000000D02*
X70250000Y-41250000D01*
X70250000Y-20000000D02*
X73250000Y-20000000D01*
X70250000Y-41250000D02*
X88750000Y-41250000D01*
X73250000Y-16500000D02*
X85750000Y-16500000D01*
X73250000Y-20000000D02*
X73250000Y-16500000D01*
X73250000Y-20000000D02*
X85750000Y-20000000D01*
X75250000Y-41250000D02*
X75250000Y-43250000D01*
X75250000Y-43250000D02*
X84250000Y-43250000D01*
X84250000Y-43250000D02*
X84250000Y-41250000D01*
X85750000Y-20000000D02*
X85750000Y-16500000D01*
X88750000Y-20000000D02*
X85750000Y-20000000D01*
X88750000Y-20000000D02*
X88750000Y-41250000D01*
%TO.C,J2*%
X28420000Y-59980000D02*
X28420000Y-62580000D01*
X28420000Y-59980000D02*
X31080000Y-59980000D01*
X28420000Y-62580000D02*
X31080000Y-62580000D01*
X29750000Y-57380000D02*
X31080000Y-57380000D01*
X31080000Y-57380000D02*
X31080000Y-58710000D01*
X31080000Y-59980000D02*
X31080000Y-62580000D01*
%TO.C,R6*%
X65472600Y-48380000D02*
X65472600Y-49150000D01*
X65472600Y-56460000D02*
X65472600Y-55690000D01*
X64102600Y-55690000D02*
X66842600Y-55690000D01*
X66842600Y-49150000D01*
X64102600Y-49150000D01*
X64102600Y-55690000D01*
%TO.C,SW4*%
X40500000Y-75500000D02*
X40500000Y-85500000D01*
X40500000Y-85500000D02*
X45500000Y-85500000D01*
X41000000Y-75500000D02*
X41000000Y-78500000D01*
X41000000Y-85500000D02*
X41000000Y-82500000D01*
X45500000Y-85500000D02*
X50500000Y-85500000D01*
X50000000Y-75500000D02*
X50000000Y-79000000D01*
X50000000Y-81000000D02*
X50000000Y-80000000D01*
X50000000Y-82500000D02*
X50000000Y-82000000D01*
X50000000Y-85500000D02*
X50000000Y-82500000D01*
X50500000Y-75500000D02*
X40500000Y-75500000D01*
X50500000Y-85500000D02*
X50500000Y-75500000D01*
%TO.C,R1*%
X66000000Y-126880000D02*
X66000000Y-127650000D01*
X66000000Y-134960000D02*
X66000000Y-134190000D01*
X67370000Y-127650000D02*
X64630000Y-127650000D01*
X64630000Y-134190000D01*
X67370000Y-134190000D01*
X67370000Y-127650000D01*
%TO.C,D2*%
X48545000Y-138210000D02*
X45455000Y-138210000D01*
X47000000Y-143760000D02*
G75*
G02*
X45455170Y-138210000I0J2990000D01*
G01*
X48544830Y-138210000D02*
G75*
G02*
X47000000Y-143760000I-1544830J-2560000D01*
G01*
X49500000Y-140770000D02*
G75*
G02*
X44500000Y-140770000I-2500000J0D01*
G01*
X44500000Y-140770000D02*
G75*
G02*
X49500000Y-140770000I2500000J0D01*
G01*
%TO.C,J3*%
X28445000Y-123270000D02*
X28445000Y-125870000D01*
X28445000Y-123270000D02*
X31105000Y-123270000D01*
X28445000Y-125870000D02*
X31105000Y-125870000D01*
X29775000Y-120670000D02*
X31105000Y-120670000D01*
X31105000Y-120670000D02*
X31105000Y-122000000D01*
X31105000Y-123270000D02*
X31105000Y-125870000D01*
%TO.C,C1*%
X59010000Y-111902000D02*
X59010000Y-111098000D01*
X59050000Y-112133000D02*
X59050000Y-110867000D01*
X59090000Y-112301000D02*
X59090000Y-110699000D01*
X59130000Y-112439000D02*
X59130000Y-110561000D01*
X59170000Y-112558000D02*
X59170000Y-110442000D01*
X59210000Y-112665000D02*
X59210000Y-110335000D01*
X59250000Y-112761000D02*
X59250000Y-110239000D01*
X59290000Y-112850000D02*
X59290000Y-110150000D01*
X59330000Y-112932000D02*
X59330000Y-110068000D01*
X59370000Y-113009000D02*
X59370000Y-109991000D01*
X59410000Y-113081000D02*
X59410000Y-109919000D01*
X59450000Y-113149000D02*
X59450000Y-109851000D01*
X59490000Y-113214000D02*
X59490000Y-109786000D01*
X59530000Y-113275000D02*
X59530000Y-109725000D01*
X59570000Y-113334000D02*
X59570000Y-109666000D01*
X59610000Y-113390000D02*
X59610000Y-109610000D01*
X59650000Y-113443000D02*
X59650000Y-109557000D01*
X59690000Y-113495000D02*
X59690000Y-109505000D01*
X59730000Y-113544000D02*
X59730000Y-109456000D01*
X59770000Y-113591000D02*
X59770000Y-109409000D01*
X59810000Y-113637000D02*
X59810000Y-109363000D01*
X59850000Y-113681000D02*
X59850000Y-109319000D01*
X59890000Y-113723000D02*
X59890000Y-109277000D01*
X59930000Y-113764000D02*
X59930000Y-109236000D01*
X59970000Y-110460000D02*
X59970000Y-109196000D01*
X59970000Y-113804000D02*
X59970000Y-112540000D01*
X60010000Y-110460000D02*
X60010000Y-109158000D01*
X60010000Y-113842000D02*
X60010000Y-112540000D01*
X60050000Y-110460000D02*
X60050000Y-109121000D01*
X60050000Y-113879000D02*
X60050000Y-112540000D01*
X60090000Y-110460000D02*
X60090000Y-109085000D01*
X60090000Y-113915000D02*
X60090000Y-112540000D01*
X60130000Y-110460000D02*
X60130000Y-109050000D01*
X60130000Y-113950000D02*
X60130000Y-112540000D01*
X60170000Y-110460000D02*
X60170000Y-109017000D01*
X60170000Y-113983000D02*
X60170000Y-112540000D01*
X60210000Y-110460000D02*
X60210000Y-108984000D01*
X60210000Y-114016000D02*
X60210000Y-112540000D01*
X60250000Y-110460000D02*
X60250000Y-108953000D01*
X60250000Y-114047000D02*
X60250000Y-112540000D01*
X60290000Y-110460000D02*
X60290000Y-108923000D01*
X60290000Y-114077000D02*
X60290000Y-112540000D01*
X60330000Y-110460000D02*
X60330000Y-108893000D01*
X60330000Y-114107000D02*
X60330000Y-112540000D01*
X60370000Y-110460000D02*
X60370000Y-108864000D01*
X60370000Y-114136000D02*
X60370000Y-112540000D01*
X60410000Y-110460000D02*
X60410000Y-108837000D01*
X60410000Y-114163000D02*
X60410000Y-112540000D01*
X60450000Y-110460000D02*
X60450000Y-108810000D01*
X60450000Y-114190000D02*
X60450000Y-112540000D01*
X60490000Y-110460000D02*
X60490000Y-108784000D01*
X60490000Y-114216000D02*
X60490000Y-112540000D01*
X60530000Y-110460000D02*
X60530000Y-108759000D01*
X60530000Y-114241000D02*
X60530000Y-112540000D01*
X60570000Y-110460000D02*
X60570000Y-108735000D01*
X60570000Y-114265000D02*
X60570000Y-112540000D01*
X60610000Y-110460000D02*
X60610000Y-108711000D01*
X60610000Y-114289000D02*
X60610000Y-112540000D01*
X60650000Y-110460000D02*
X60650000Y-108688000D01*
X60650000Y-114312000D02*
X60650000Y-112540000D01*
X60690000Y-110460000D02*
X60690000Y-108666000D01*
X60690000Y-114334000D02*
X60690000Y-112540000D01*
X60730000Y-110460000D02*
X60730000Y-108645000D01*
X60730000Y-114355000D02*
X60730000Y-112540000D01*
X60770000Y-110460000D02*
X60770000Y-108624000D01*
X60770000Y-114376000D02*
X60770000Y-112540000D01*
X60810000Y-110460000D02*
X60810000Y-108604000D01*
X60810000Y-114396000D02*
X60810000Y-112540000D01*
X60850000Y-110460000D02*
X60850000Y-108585000D01*
X60850000Y-114415000D02*
X60850000Y-112540000D01*
X60890000Y-110460000D02*
X60890000Y-108566000D01*
X60890000Y-114434000D02*
X60890000Y-112540000D01*
X60930000Y-110460000D02*
X60930000Y-108548000D01*
X60930000Y-114452000D02*
X60930000Y-112540000D01*
X60970000Y-110460000D02*
X60970000Y-108531000D01*
X60970000Y-114469000D02*
X60970000Y-112540000D01*
X61010000Y-110460000D02*
X61010000Y-108514000D01*
X61010000Y-114486000D02*
X61010000Y-112540000D01*
X61050000Y-110460000D02*
X61050000Y-108498000D01*
X61050000Y-114502000D02*
X61050000Y-112540000D01*
X61090000Y-110460000D02*
X61090000Y-108483000D01*
X61090000Y-114517000D02*
X61090000Y-112540000D01*
X61130000Y-110460000D02*
X61130000Y-108468000D01*
X61130000Y-114532000D02*
X61130000Y-112540000D01*
X61170000Y-110460000D02*
X61170000Y-108453000D01*
X61170000Y-114547000D02*
X61170000Y-112540000D01*
X61210000Y-110460000D02*
X61210000Y-108440000D01*
X61210000Y-114560000D02*
X61210000Y-112540000D01*
X61250000Y-110460000D02*
X61250000Y-108427000D01*
X61250000Y-114573000D02*
X61250000Y-112540000D01*
X61290000Y-110460000D02*
X61290000Y-108414000D01*
X61290000Y-114586000D02*
X61290000Y-112540000D01*
X61330000Y-110460000D02*
X61330000Y-108402000D01*
X61330000Y-114598000D02*
X61330000Y-112540000D01*
X61370000Y-110460000D02*
X61370000Y-108391000D01*
X61370000Y-114609000D02*
X61370000Y-112540000D01*
X61410000Y-110460000D02*
X61410000Y-108380000D01*
X61410000Y-114620000D02*
X61410000Y-112540000D01*
X61450000Y-110460000D02*
X61450000Y-108369000D01*
X61450000Y-114631000D02*
X61450000Y-112540000D01*
X61490000Y-110460000D02*
X61490000Y-108360000D01*
X61490000Y-114640000D02*
X61490000Y-112540000D01*
X61530000Y-110460000D02*
X61530000Y-108350000D01*
X61530000Y-114650000D02*
X61530000Y-112540000D01*
X61570000Y-110460000D02*
X61570000Y-108341000D01*
X61570000Y-114659000D02*
X61570000Y-112540000D01*
X61610000Y-110460000D02*
X61610000Y-108333000D01*
X61610000Y-114667000D02*
X61610000Y-112540000D01*
X61650000Y-110460000D02*
X61650000Y-108326000D01*
X61650000Y-114674000D02*
X61650000Y-112540000D01*
X61690000Y-110460000D02*
X61690000Y-108318000D01*
X61690000Y-114682000D02*
X61690000Y-112540000D01*
X61730000Y-110460000D02*
X61730000Y-108312000D01*
X61730000Y-114688000D02*
X61730000Y-112540000D01*
X61770000Y-110460000D02*
X61770000Y-108305000D01*
X61770000Y-114695000D02*
X61770000Y-112540000D01*
X61810000Y-110460000D02*
X61810000Y-108300000D01*
X61810000Y-114700000D02*
X61810000Y-112540000D01*
X61850000Y-110460000D02*
X61850000Y-108295000D01*
X61850000Y-114705000D02*
X61850000Y-112540000D01*
X61890000Y-110460000D02*
X61890000Y-108290000D01*
X61890000Y-114710000D02*
X61890000Y-112540000D01*
X61930000Y-110460000D02*
X61930000Y-108286000D01*
X61930000Y-114714000D02*
X61930000Y-112540000D01*
X61970000Y-110460000D02*
X61970000Y-108282000D01*
X61970000Y-114718000D02*
X61970000Y-112540000D01*
X62010000Y-110460000D02*
X62010000Y-108279000D01*
X62010000Y-114721000D02*
X62010000Y-112540000D01*
X62050000Y-114724000D02*
X62050000Y-108276000D01*
X62090000Y-114726000D02*
X62090000Y-108274000D01*
X62130000Y-114728000D02*
X62130000Y-108272000D01*
X62170000Y-114729000D02*
X62170000Y-108271000D01*
X62210000Y-114730000D02*
X62210000Y-108270000D01*
X62250000Y-114730000D02*
X62250000Y-108270000D01*
X65435241Y-113654000D02*
X65435241Y-113024000D01*
X65750241Y-113339000D02*
X65120241Y-113339000D01*
X65520000Y-111500000D02*
G75*
G02*
X58980000Y-111500000I-3270000J0D01*
G01*
X58980000Y-111500000D02*
G75*
G02*
X65520000Y-111500000I3270000J0D01*
G01*
%TO.C,C6*%
X44880000Y-120380000D02*
X52120000Y-120380000D01*
X44880000Y-122620000D02*
X44880000Y-120380000D01*
X52120000Y-120380000D02*
X52120000Y-122620000D01*
X52120000Y-122620000D02*
X44880000Y-122620000D01*
%TO.C,J20*%
X28420000Y-112560000D02*
X28420000Y-107420000D01*
X28420000Y-115160000D02*
X28420000Y-113830000D01*
X29750000Y-115160000D02*
X28420000Y-115160000D01*
X31080000Y-107420000D02*
X28420000Y-107420000D01*
X31080000Y-112560000D02*
X28420000Y-112560000D01*
X31080000Y-112560000D02*
X31080000Y-107420000D01*
%TO.C,SW5*%
X40500000Y-98500000D02*
X40500000Y-108500000D01*
X40500000Y-108500000D02*
X45500000Y-108500000D01*
X41000000Y-98500000D02*
X41000000Y-101500000D01*
X41000000Y-108500000D02*
X41000000Y-105500000D01*
X45500000Y-108500000D02*
X50500000Y-108500000D01*
X50000000Y-98500000D02*
X50000000Y-102000000D01*
X50000000Y-104000000D02*
X50000000Y-103000000D01*
X50000000Y-105500000D02*
X50000000Y-105000000D01*
X50000000Y-108500000D02*
X50000000Y-105500000D01*
X50500000Y-98500000D02*
X40500000Y-98500000D01*
X50500000Y-108500000D02*
X50500000Y-98500000D01*
%TO.C,D4*%
X50960100Y-53590000D02*
X50960100Y-59030000D01*
X50960100Y-59030000D02*
X51290100Y-59030000D01*
X51290100Y-53590000D02*
X50960100Y-53590000D01*
X53570100Y-53590000D02*
X53900100Y-53590000D01*
X53900100Y-53590000D02*
X53900100Y-59030000D01*
X53900100Y-54370000D02*
X50960100Y-54370000D01*
X53900100Y-54490000D02*
X50960100Y-54490000D01*
X53900100Y-54610000D02*
X50960100Y-54610000D01*
X53900100Y-59030000D02*
X53570100Y-59030000D01*
%TO.C,J33*%
X40010100Y-60677500D02*
X40010100Y-63437500D01*
X45200100Y-60677500D02*
X40010100Y-60677500D01*
X45200100Y-60677500D02*
X45200100Y-63437500D01*
X45200100Y-63437500D02*
X40010100Y-63437500D01*
X46470100Y-60677500D02*
X47850100Y-60677500D01*
X47850100Y-60677500D02*
X47850100Y-62057500D01*
%TD*%
M02*
