M48
; DRILL file {KiCad 9.0.4} date 2025-11-06T00:06:59+0100
; FORMAT={-:-/ absolute / inch / decimal}
; #@! TF.CreationDate,2025-11-06T00:06:59+01:00
; #@! TF.GenerationSoftware,Kicad,Pcbnew,9.0.4
; #@! TF.FileFunction,Plated,1,2,PTH
FMAT,2
INCH
; #@! TA.AperFunction,Plated,PTH,ViaDrill
T1C0.0118
; #@! TA.AperFunction,Plated,PTH,ComponentDrill
T2C0.0236
; #@! TA.AperFunction,Plated,PTH,ComponentDrill
T3C0.0276
; #@! TA.AperFunction,Plated,PTH,ComponentDrill
T4C0.0315
; #@! TA.AperFunction,Plated,PTH,ComponentDrill
T5C0.0335
; #@! TA.AperFunction,Plated,PTH,ComponentDrill
T6C0.0354
; #@! TA.AperFunction,Plated,PTH,ComponentDrill
T7C0.0394
; #@! TA.AperFunction,Plated,PTH,ComponentDrill
T8C0.0512
; #@! TA.AperFunction,Plated,PTH,ComponentDrill
T9C0.0591
; #@! TA.AperFunction,Plated,PTH,ViaDrill
T10C0.1220
; #@! TA.AperFunction,Plated,PTH,ViaDrill
T11C0.3740
%
G90
G05
T1
X1.0315Y-0.8583
X1.0413Y-1.4508
X1.0463Y-2.3779
X1.0512Y-4.8543
X1.0669Y-2.2205
X1.126Y-2.6339
X1.1614Y-5.8346
X1.2008Y-3.878
X1.315Y-4.0354
X1.3642Y-5.0807
X1.3773Y-3.833
X1.4629Y-3.9539
X1.4961Y-3.1654
X1.5039Y-3.7717
X1.5079Y-1.937
X1.5387Y-2.3835
X1.563Y-0.937
X1.563Y-1.374
X1.626Y-5.8307
X1.6575Y-2.1693
X1.6732Y-1.8268
X1.6949Y-5.0768
X1.7126Y-2.6693
X1.7795Y-4.6772
X1.8241Y-1.7421
X1.8412Y-2.3242
X2.0709Y-3.8031
X2.0709Y-3.9567
X2.0709Y-4.1142
X2.0919Y-2.1392
X2.1102Y-5.8307
X2.1339Y-2.9449
X2.1732Y-3.8031
X2.1732Y-4.1181
X2.259Y-2.1397
X2.3031Y-0.937
X2.3031Y-1.4094
X2.3584Y-2.4994
X2.3661Y-3.8031
X2.3701Y-4.1181
X2.5354Y-2.937
X2.7717Y-4.0591
X3.1339Y-5.8425
X3.1575Y-1.4094
X3.1614Y-0.937
X3.6614Y-1.0157
X3.6654Y-0.9134
X3.8504Y-5.6024
X3.8543Y-4.7047
X3.8543Y-4.8976
X3.8543Y-5.0945
X3.8583Y-1.2205
X3.8583Y-4.3031
X3.8622Y-1.4724
X3.8622Y-1.6772
X3.8622Y-2.0748
X3.8622Y-2.2638
X3.8622Y-2.6654
X3.8622Y-2.8583
X3.8622Y-4.1142
X3.8661Y-3.0472
X3.8661Y-3.5236
X3.8661Y-3.7283
T2
X2.8543Y-2.4606
X2.8543Y-2.5394
T3
X1.6929Y-3.0709
X1.6929Y-3.2677
X1.6929Y-3.9764
X1.6929Y-4.1732
X1.7913Y-3.0709
X1.7913Y-3.2677
X1.7913Y-3.9764
X1.7913Y-4.1732
X1.8898Y-3.0709
X1.8898Y-3.2677
X1.8898Y-3.9764
X1.8898Y-4.1732
X3.0512Y-3.0512
X3.0512Y-3.248
X3.0512Y-3.9764
X3.0512Y-4.1732
X3.1496Y-3.0512
X3.1496Y-3.248
X3.1496Y-3.9764
X3.1496Y-4.1732
X3.248Y-3.0512
X3.248Y-3.248
X3.248Y-3.9764
X3.248Y-4.1732
T4
X1.6437Y-4.813
X1.6437Y-4.9114
X1.6669Y-4.6654
X1.6701Y-4.5374
X1.811Y-4.7835
X1.8504Y-4.9575
X1.8504Y-5.3575
X2.0079Y-4.7835
X2.0669Y-4.6654
X2.0701Y-4.5374
X2.1446Y-1.9094
X2.2213Y-2.4213
X2.3031Y-3.7402
X2.3031Y-4.1929
X2.3414Y-1.9094
X2.3622Y-3.5433
X2.4016Y-4.3898
X2.4596Y-1.8669
X2.4596Y-2.2669
X2.4606Y-3.5433
X2.5Y-3.7402
X2.5Y-4.1929
X2.5Y-4.3898
X2.5777Y-1.8638
X2.5777Y-2.2638
X2.5984Y-4.9543
X2.5984Y-5.3543
X2.6213Y-2.4213
X2.6969Y-1.8669
X2.6969Y-2.2669
T5
X1.6173Y-2.066
X1.6173Y-2.266
X1.7039Y-2.066
X1.7039Y-2.266
X1.7984Y-2.066
X1.7984Y-2.266
X1.9165Y-2.066
X1.9165Y-2.266
T6
X1.8504Y-5.4921
X1.8504Y-5.5921
X1.9472Y-1.7717
X2.0472Y-1.7717
X2.0642Y-2.0669
X2.0642Y-2.3669
X2.5984Y-5.4906
X2.5984Y-5.5906
T7
X1.0433Y-5.4496
X1.0433Y-5.5496
X1.0433Y-5.6496
X1.0433Y-5.7496
X1.063Y-1.0406
X1.063Y-1.1406
X1.063Y-1.2406
X1.063Y-1.3406
X1.1713Y-1.839
X1.1713Y-1.939
X1.1713Y-2.039
X1.1713Y-2.3114
X1.1713Y-2.4114
X1.1713Y-2.8807
X1.1713Y-2.9807
X1.1713Y-3.0807
X1.1713Y-3.1807
X1.1713Y-4.2815
X1.1713Y-4.3815
X1.1713Y-4.4815
X1.1722Y-3.3642
X1.1722Y-3.4642
X1.1722Y-3.5642
X1.1722Y-3.6642
X1.1722Y-4.8031
X1.1722Y-4.9031
X1.6295Y-1.8999
X1.6295Y-2.4432
X1.6898Y-2.8618
X1.6913Y-3.472
X1.6913Y-3.7673
X1.6913Y-4.3776
X1.7295Y-1.8999
X1.7295Y-2.4432
X1.7898Y-2.8618
X1.7913Y-3.472
X1.7913Y-3.7673
X1.7913Y-4.3776
X1.8169Y-5.815
X1.8295Y-1.8999
X1.8295Y-2.4432
X1.8898Y-2.8618
X1.8913Y-3.472
X1.8913Y-3.7673
X1.8913Y-4.3776
X1.9169Y-5.815
X2.113Y-4.9508
X2.213Y-4.9508
X2.313Y-4.9508
X2.4969Y-4.6063
X2.5969Y-4.6063
X2.6969Y-4.6063
X3.048Y-4.3776
X3.049Y-3.473
X3.0496Y-2.8618
X3.0496Y-3.7654
X3.148Y-4.3776
X3.149Y-3.473
X3.1496Y-2.8618
X3.1496Y-3.7654
X3.248Y-4.3776
X3.249Y-3.473
X3.2496Y-2.8618
X3.2496Y-3.7654
X3.562Y-2.0648
X3.562Y-2.1648
X3.562Y-2.2648
X3.563Y-1.4764
X3.563Y-1.5764
X3.563Y-1.6764
X3.563Y-2.6346
X3.563Y-2.7346
X3.563Y-2.8346
X3.563Y-2.9346
X3.563Y-3.522
X3.563Y-3.622
X3.563Y-3.722
X3.563Y-4.0929
X3.563Y-4.1929
X3.563Y-4.2929
X3.563Y-4.7047
X3.563Y-4.8047
X3.563Y-4.9047
X3.563Y-5.0047
X3.8484Y-0.863
X3.8484Y-0.963
X3.8484Y-1.063
T8
X2.8445Y-1.9882
X2.8445Y-2.185
X3.3366Y-1.9882
X3.3366Y-2.185
X3.8583Y-1.378
X3.8583Y-1.5748
X3.8583Y-1.7717
X3.8583Y-1.9685
X3.8583Y-2.1654
X3.8583Y-2.3622
X3.8583Y-2.5591
X3.8583Y-2.7559
X3.8583Y-2.9528
X3.8583Y-3.1496
X3.8583Y-3.4252
X3.8583Y-3.622
X3.8583Y-3.8189
X3.8583Y-4.0157
X3.8583Y-4.2126
X3.8583Y-4.4094
X3.8583Y-4.6063
X3.8583Y-4.8031
X3.8583Y-5.0
X3.8583Y-5.1969
T9
X1.2323Y-0.9449
X1.2323Y-1.4291
X1.8701Y-0.9449
X1.8701Y-1.4291
X2.0197Y-0.9449
X2.0197Y-1.4291
X2.6575Y-0.9449
X2.6575Y-1.4291
X2.811Y-0.9449
X2.811Y-1.4291
X3.4488Y-0.9449
X3.4488Y-1.4291
X3.4567Y-5.6083
X3.6142Y-5.6083
X3.8504Y-5.4114
X3.8504Y-5.8051
T10
X1.4173Y-2.5984
X1.4173Y-4.685
X3.189Y-2.5984
X3.189Y-4.685
T11
X1.4764Y-5.3307
X2.2244Y-5.3386
X2.9724Y-5.3307
M30
